<svg width="500" height="436" viewBox="0 0 500 436" fill="none" xmlns="http://www.w3.org/2000/svg">
<rect x="1" y="1" width="498" height="434" rx="19" fill="#F6CD8B" stroke="#B97532" stroke-width="2"/>
<mask id="mask0_34_631" style="mask-type:alpha" maskUnits="userSpaceOnUse" x="0" y="0" width="500" height="436">
<path d="M20 1H480C490.493 1.00001 499 9.50659 499 20V416C499 426.493 490.493 435 480 435H20C9.50659 435 1 426.493 1 416V20C1 9.67049 9.24292 1.26588 19.5098 1.00586L20 1Z" fill="#F6CD8B" stroke="#B97532" stroke-width="2"/>
</mask>
<g mask="url(#mask0_34_631)">
<g opacity="0.9">
<rect x="31.775" y="369.817" width="3.45" height="73.2039" fill="#CFCB62" stroke="#939154" stroke-width="2"/>
<path d="M46.4979 446.122C55.9021 440.344 65.5597 431.201 69.1617 419.786C72.0019 410.784 73.6336 400.732 74.0936 392.458C74.3237 388.319 74.2582 384.665 73.9182 381.835C73.7482 380.42 73.5137 379.243 73.2272 378.327C72.9373 377.401 72.6198 376.823 72.3227 376.507C72.1145 376.286 71.6399 376.068 70.741 376.087C69.8783 376.105 68.7801 376.336 67.4913 376.764C64.919 377.617 61.7246 379.203 58.3916 381.154C51.7213 385.057 44.639 390.334 41.0916 393.865C33.9789 400.945 29.5115 414.644 27.3334 427.267C26.2488 433.553 25.7458 439.496 25.755 444.101C25.7596 446.407 25.8932 448.341 26.1338 449.798C26.254 450.526 26.3958 451.106 26.549 451.541C26.705 451.984 26.8494 452.211 26.9464 452.314C27.0372 452.411 27.2403 452.552 27.6247 452.659C27.999 452.764 28.4855 452.82 29.0834 452.815C30.2785 452.803 31.8276 452.544 33.6388 452.031C37.256 451.005 41.8173 448.998 46.4979 446.122Z" fill="#CFCB62" stroke="#939154" stroke-width="2"/>
<path d="M20.502 446.586C11.0978 440.808 1.44029 431.665 -2.16177 420.249C-5.00195 411.248 -6.63368 401.195 -7.09369 392.922C-7.32377 388.783 -7.25826 385.129 -6.91829 382.299C-6.74825 380.884 -6.5137 379.706 -6.2273 378.791C-5.93737 377.864 -5.61985 377.287 -5.32275 376.971C-5.11452 376.75 -4.63997 376.532 -3.74104 376.551C-2.87839 376.569 -1.78019 376.8 -0.491335 377.227C2.08098 378.081 5.27533 379.667 8.60833 381.617C15.2786 385.52 22.361 390.798 25.9084 394.329C33.021 401.409 37.4884 415.108 39.6665 427.731C40.7511 434.016 41.2542 439.96 41.2449 444.565C41.2403 446.871 41.1068 448.805 40.8662 450.262C40.7459 450.99 40.6041 451.57 40.451 452.005C40.2949 452.448 40.1506 452.675 40.0535 452.778C39.9627 452.875 39.7597 453.016 39.3753 453.123C39.0009 453.228 38.5144 453.284 37.9166 453.278C36.7214 453.267 35.1724 453.008 33.3611 452.494C29.7439 451.469 25.1827 449.462 20.502 446.586Z" fill="#CFCB62" stroke="#939154" stroke-width="2"/>
<path d="M50.3698 332.753C51.5445 332.038 52.3496 331.924 52.8777 332.039C53.3782 332.148 53.8568 332.513 54.2761 333.303C55.1506 334.951 55.4808 337.935 55.2321 341.608C54.9872 345.226 54.195 349.325 52.9997 353.062C51.7988 356.818 50.2198 360.118 48.4529 362.205C40.5755 371.51 26.4239 371.51 18.5466 362.205C16.7797 360.118 15.2016 356.818 14.0007 353.062C12.8054 349.325 12.0132 345.226 11.7683 341.608C11.5196 337.935 11.8499 334.951 12.7243 333.303C13.1435 332.513 13.6214 332.148 14.1218 332.039C14.6498 331.924 15.455 332.038 16.6296 332.753C18.6876 334.006 20.6279 336.56 22.0925 338.932C22.8118 340.096 23.3938 341.179 23.7956 341.97C23.9962 342.365 24.1512 342.686 24.2556 342.907C24.3077 343.018 24.3477 343.103 24.3737 343.16C24.3868 343.189 24.3968 343.211 24.403 343.225C24.406 343.231 24.4075 343.236 24.4089 343.239C24.4095 343.241 24.4106 343.242 24.4109 343.242V343.243L25.5085 345.716L26.2829 343.123C26.2832 343.122 26.2842 343.12 26.2849 343.118C26.2862 343.114 26.2881 343.107 26.2907 343.099C26.2964 343.08 26.3053 343.051 26.3171 343.014C26.3408 342.938 26.3768 342.826 26.4245 342.682C26.5201 342.393 26.6628 341.977 26.8493 341.478C27.2234 340.476 27.7688 339.15 28.4587 337.831C29.1531 336.504 29.9694 335.232 30.8698 334.305C31.78 333.368 32.6615 332.899 33.4997 332.898C34.338 332.898 35.2194 333.368 36.1296 334.305C37.0301 335.232 37.8463 336.504 38.5407 337.831C39.2306 339.15 39.777 340.476 40.1511 341.478C40.3376 341.977 40.4803 342.393 40.5759 342.682C40.6236 342.826 40.6596 342.938 40.6833 343.014C40.6951 343.051 40.704 343.08 40.7097 343.099C40.7124 343.107 40.7143 343.114 40.7155 343.118C40.7162 343.12 40.7163 343.122 40.7165 343.123L41.4919 345.716L42.5896 343.242C42.5898 343.242 42.59 343.241 42.5905 343.239C42.5919 343.236 42.5943 343.231 42.5974 343.225C42.6036 343.211 42.6137 343.189 42.6267 343.16C42.6527 343.103 42.6918 343.017 42.7439 342.907C42.8482 342.686 43.0032 342.365 43.2038 341.97C43.6056 341.179 44.1876 340.096 44.907 338.932C46.3714 336.56 48.3119 334.006 50.3698 332.753Z" fill="#C66260" stroke="#BD5351" stroke-width="2"/>
</g>
</g>
<mask id="mask1_34_631" style="mask-type:alpha" maskUnits="userSpaceOnUse" x="0" y="0" width="500" height="436">
<path d="M20 1H480C490.493 1.00001 499 9.50659 499 20V416C499 426.493 490.493 435 480 435H20C9.50659 435 1 426.493 1 416V20C1 9.67049 9.24292 1.26588 19.5098 1.00586L20 1Z" fill="#F6CD8B" stroke="#B97532" stroke-width="2"/>
</mask>
<g mask="url(#mask1_34_631)">
<path d="M100.042 20.2719C101.269 20.0625 102.829 20.2435 104.057 20.4417C105.199 20.6261 106.166 21.0625 107.001 21.8258C107.508 22.2894 108.341 23.1371 108.711 24.0787C109.056 24.9577 109.621 26.4992 109.587 28.7406C109.565 30.1077 109.112 32.2082 108.413 33.6265C107.795 34.8803 107.494 35.677 107.015 36.4631C106.22 37.7656 105.327 38.9429 105.122 39.2317C104.907 39.5325 104.336 40.0585 102.64 41.9842C101.711 43.0385 100.405 44.1046 99.4461 44.887L99.3762 44.944C97.8595 46.182 97.0758 46.7091 96.3888 47.3454C95.2921 48.3614 91.8959 51.0463 91.3327 51.4738C89.8147 52.626 90.2572 52.1311 89.643 52.7563C89.3645 53.0077 85.8135 52.1456 85.6826 52.2116C85.6817 52.2123 85.6808 52.213 85.68 52.2135C85.6806 52.2128 85.6815 52.2122 85.6826 52.2116C86.2619 51.7546 95.2917 21.6199 95.9671 21.3238C96.6299 21.0331 99.6288 20.3423 100.042 20.2719Z" fill="#F6EBD6"/>
<path d="M89.643 52.7563C90.2572 52.1311 89.8147 52.626 91.3327 51.4738C91.8959 51.0463 95.2921 48.3614 96.3888 47.3454C97.0758 46.7091 97.8595 46.182 99.3762 44.944C100.341 44.1569 101.689 43.0644 102.64 41.9842C104.336 40.0585 104.907 39.5325 105.122 39.2317C105.327 38.943 106.22 37.7656 107.015 36.4631C107.494 35.677 107.795 34.8803 108.413 33.6265C109.112 32.2082 109.565 30.1077 109.587 28.7406C109.621 26.4992 109.056 24.9577 108.711 24.0787C108.341 23.1371 107.508 22.2894 107.001 21.8258C106.166 21.0625 105.199 20.6261 104.057 20.4417C102.829 20.2435 101.269 20.0625 100.042 20.2719C99.6288 20.3423 96.6299 21.0331 95.9671 21.3238C95.2907 21.6204 86.2344 51.8464 85.68 52.2135C85.7531 52.1309 89.3621 53.0099 89.643 52.7563ZM89.643 52.7563C89.349 53.033 89.9239 52.5028 89.643 52.7563Z" stroke="#E3D2B1" stroke-width="2" stroke-linecap="round"/>
<path d="M73.6349 48.0403C74.1977 49.4453 75.1505 51.2759 75.2093 51.284C75.3715 51.2136 84.8448 52.3636 85.68 52.2135C86.1645 52.1265 86.5044 51.6809 86.8065 51.3585C87.4764 50.5924 88.0686 49.5127 88.6997 48.5898C89.3308 47.6669 90.1096 46.9687 91.5739 44.4099C92.3405 43.0703 93.2495 40.8903 94.0198 39.2251C94.7808 37.5801 95.1246 36.3789 95.669 34.4772L95.689 34.4071C96.2741 32.3633 96.5162 29.2481 96.6941 27.3887C96.8721 25.5294 96.8471 24.8366 96.7941 24.2222C96.7411 23.6077 96.6848 23.0813 96.4932 22.4235C96.0716 20.9756 95.5065 19.4725 94.4632 18.3026C93.9074 17.6792 93.2109 17.0743 92.468 16.6097C91.7252 16.1451 90.959 15.8303 89.9676 15.6051C88.9762 15.3798 87.7948 15.1883 86.859 15.2274C85.2513 15.2947 84.2788 15.4338 83.6727 15.6697C82.9546 15.9492 82.047 16.3347 81.1743 16.8883C80.4307 17.3601 79.3058 18.103 77.9389 19.9129C77.1007 21.0229 76.1061 22.5951 75.1547 24.5542C74.2033 26.5134 73.1732 29.3044 72.8339 31.7812C72.4801 34.3645 72.4575 36.3046 72.3794 38.7843C72.3013 41.2641 72.5074 42.3372 72.6916 43.8738C72.8758 45.4104 73.3346 47.2908 73.6349 48.0403Z" fill="#F6EBD6" stroke="#E3D2B1" stroke-width="2" stroke-linecap="round"/>
<path d="M83.2031 51.8743C90.5259 52.8773 98.5844 55.477 104.537 59.5474C110.486 63.6157 114.164 69.0142 113.252 75.6721C112.474 81.3493 108.045 85.4506 101.486 87.8365C94.936 90.219 86.4522 90.8011 78.0608 89.5247C69.6357 88.2432 60.3276 85.3432 53.3764 81.2064C46.3563 77.0285 42.114 71.8367 42.9084 66.0371C43.8106 59.4502 49.3667 55.2981 57.189 53.0837C64.9778 50.8788 74.6948 50.7089 83.2031 51.8743Z" fill="#FDC160" stroke="#B97532" stroke-width="2"/>
<path d="M94.7529 55.9796C94.5126 56.3622 94.2733 56.946 93.9324 57.6233C93.5931 58.2975 93.2686 59.0123 92.9541 59.9158C92.5411 61.1025 92.2668 62.4361 91.7859 64.5673C91.203 67.1509 91.2162 69.5415 91.2893 70.67C91.3694 71.9073 91.3709 73.1328 91.4854 73.8139C91.6448 74.7624 91.9464 76.3946 92.3355 77.9882C92.5718 78.9561 92.8983 79.9835 93.4264 81.5141C93.716 82.3538 94.1795 83.0802 94.9935 84.1974C95.4963 84.8875 96.0014 85.5701 96.6842 86.403C96.9811 86.7289 97.213 86.9894 97.4079 87.2245C97.5073 87.3337 97.6079 87.4226 97.6961 87.626" stroke="#B97532" stroke-width="4" stroke-linecap="round"/>
<path d="M80.7457 52.6318C80.5526 52.9446 80.0775 53.6377 79.7386 54.3124C79.4042 54.9782 79.0911 55.8523 78.7371 56.7743C78.4443 57.5371 78.1548 58.5325 77.6739 61.3491C77.2872 63.6139 76.7617 67.6051 76.6118 70.1959C76.4021 73.8212 76.6003 75.1339 76.6637 75.5023C76.7182 75.8191 76.7931 76.4854 77.135 77.8545C77.6416 79.8835 77.8374 81.3369 78.0369 81.9494C78.7859 84.2479 79.1872 85.8853 79.559 86.7701C79.8236 87.3397 80.0381 87.7106 80.212 87.9616C80.2905 88.0867 80.3491 88.2074 80.5059 88.4589" stroke="#B97532" stroke-width="4" stroke-linecap="round"/>
<path d="M66.4487 52.6074C66.1769 52.9458 65.632 53.2892 64.7999 54.2527C63.7662 55.4497 62.9967 57.2861 62.3527 58.9419C61.7931 60.3805 61.4915 61.3353 61.2147 62.6617C60.9231 64.0598 60.4358 66.2668 60.1466 68.6526C59.8172 71.3691 60.1996 72.695 60.561 74.7526C60.7634 75.9051 61.2903 77.9968 61.7481 79.1137C62.1574 80.1122 62.7193 81.1615 63.1092 81.9179C63.6198 82.9083 64.1096 83.4785 64.6584 84.1798C65.122 84.6805 65.481 85.1099 65.6811 85.3074C65.7806 85.4161 65.8761 85.5419 66.1673 85.9256" stroke="#B97532" stroke-width="4" stroke-linecap="round"/>
<path d="M66.2126 84.7778C66.8503 85.1348 67.1544 85.421 67.605 85.8021C68.0606 86.1874 68.2615 86.4818 68.5366 86.7161C68.8437 86.9778 69.1223 87.189 69.3855 87.4218C69.4515 87.4802 69.5166 87.5377 69.5826 87.5961C69.6486 87.6545 69.7137 87.712 69.9154 87.8634" stroke="#B97532" stroke-width="2" stroke-linecap="round"/>
<path d="M65.7873 53.9995C66.1186 53.7266 66.5076 53.3879 66.9034 53.0123C67.402 52.5392 67.7098 52.3238 67.9876 52.0919C68.3888 51.8518 68.7588 51.6571 69.0831 51.4437C69.1641 51.3929 69.2422 51.355 69.4673 51.3357" stroke="#B97532" stroke-width="2" stroke-linecap="round"/>
<path d="M97.7657 86.2266C97.9681 86.3516 98.3623 86.7003 98.6773 87.0013C98.9437 87.2559 99.2544 87.5341 99.5388 87.7948C99.6699 87.9107 99.8291 88.007 100.013 88.0933" stroke="#B97532" stroke-width="2" stroke-linecap="round"/>
<path d="M80.9576 87.3868C81.2551 87.7215 81.4315 88.1348 81.7175 88.5116C82.145 89.0748 83.0679 89.7059 83.0679 89.7059" stroke="#B97532" stroke-width="2" stroke-linecap="round"/>
<path d="M81.0204 53.5813C81.1535 53.5022 81.5071 53.0615 81.8517 52.7021C82.1255 52.4832 82.3747 52.2941 82.5268 52.168C82.5975 52.1036 82.655 52.0386 82.7143 51.9715" stroke="#B97532" stroke-width="2" stroke-linecap="round"/>
<path d="M66.6718 53.4576C66.8493 53.409 67.4972 52.9607 67.9197 52.5861C68.3126 52.2379 68.7157 51.971 69.0589 51.7963C69.4669 51.5886 70.8029 51.3697 71.1784 51.2366" stroke="#B97532" stroke-width="2" stroke-linecap="round"/>
<path d="M51.3858 57.6469C51.3759 57.4857 51.366 57.3244 51.1158 55.5289C50.8655 53.7333 50.3753 50.3083 50.1496 47.7641C49.9239 45.2199 49.9776 43.6602 50.0182 42.7626C50.0588 41.865 50.0846 41.6767 50.1112 41.4826" stroke="#B97532" stroke-width="2" stroke-linecap="round"/>
<path d="M51.7401 57.8892C51.8003 57.4497 52.0743 56.617 53.1308 54.6414C53.8819 53.2368 55.3212 51.1581 56.8744 49.1614C58.4275 47.1646 60.1153 45.3491 61.2189 44.2221C62.3225 43.095 62.7907 42.7115 63.1076 42.4283C63.4245 42.1451 63.5759 41.974 63.827 41.8107" stroke="#B97532" stroke-width="2" stroke-linecap="round"/>
<path d="M63.8271 41.8108C63.9045 41.2457 64.0557 40.842 64.2758 40.6463C64.3781 40.5555 64.4874 40.5135 64.6009 40.5121C64.7145 40.5107 64.8358 40.5593 64.8875 40.6628C64.9392 40.7663 64.9177 40.9232 64.851 41.0604C64.7167 41.3363 64.4196 41.5033 64.1713 41.5507C64.0596 41.572 63.9846 41.3827 64.0227 41.2101C64.1139 40.7978 64.5511 40.5222 64.8756 40.3888C65.0173 40.3306 65.1472 40.4081 65.2282 40.5316C65.4154 40.8172 65.3584 41.2433 65.2815 41.5715C65.2475 41.7164 65.1547 41.7968 65.0486 41.8637C64.8242 42.0052 64.4818 41.9973 64.1893 41.8933C63.9638 41.8131 64.0865 41.3317 64.2035 40.9446C64.258 40.7641 64.4331 40.6689 64.5894 40.5924C64.7458 40.5159 64.9113 40.4746 65.0529 40.5091C65.1946 40.5435 65.3072 40.6549 65.3481 40.8378C65.3889 41.0207 65.3545 41.2718 65.2476 41.4689C65.1406 41.666 64.9622 41.8015 64.8053 41.8784C64.6484 41.9552 64.5186 41.9694 64.4089 41.9389C64.2992 41.9084 64.2136 41.8327 64.1646 41.7131C64.0558 41.4475 64.1127 41.1405 64.1923 40.9096C64.2322 40.7939 64.3618 40.723 64.5111 40.6941C64.8426 40.6298 65.1641 40.7661 65.3706 40.9068C65.4743 40.9774 65.5014 41.133 65.5163 41.2649C65.5312 41.3968 65.514 41.5224 65.4424 41.5785C65.3707 41.6346 65.2452 41.6174 65.1158 41.5996" stroke="#B97532" stroke-width="2" stroke-linecap="round"/>
<path d="M50.605 39.9997C50.6076 40.4478 50.5246 40.8269 50.3028 41.0388C50.1932 41.1435 49.9768 41.0765 49.8256 40.9919C49.2315 40.6592 49.4319 39.841 49.4748 39.5241C49.4927 39.392 49.626 39.3501 49.7418 39.333C49.8575 39.3159 49.983 39.3331 50.0705 39.409C50.2583 39.572 50.2647 39.8872 50.2463 40.1424C50.2369 40.2717 50.1336 40.3848 49.9982 40.4321C49.8628 40.4795 49.6745 40.4537 49.5768 40.3284C49.4792 40.2031 49.4779 39.979 49.5156 39.4629" stroke="#B97532" stroke-width="2" stroke-linecap="round"/>
<path d="M50.3365 40.5444C50.2737 40.5358 50.0216 40.5013 49.6481 40.4021C49.4851 40.3589 49.413 40.226 49.3797 40.1081C49.2363 39.5997 49.7124 39.2001 49.9077 39.0655C50.0141 38.9921 50.1886 39.0066 50.3323 39.0258C50.476 39.045 50.5972 39.0936 50.636 39.2912C50.6749 39.4889 50.6276 39.8342 50.5611 40.0863C50.4946 40.3383 50.4103 40.4867 50.2099 40.5416C50.0095 40.5965 49.6956 40.5535 49.3722 40.5092" stroke="#B97532" stroke-width="2" stroke-linecap="round"/>
<path d="M53.4031 68.3891C52.994 68.3331 52.0884 68.337 51.4959 68.5306C51.0433 68.6785 50.802 69.2248 50.5328 69.658C50.3998 69.8721 50.3236 70.3542 50.2926 70.9309C50.2572 71.5886 51.0903 72.0436 51.9667 72.6002C52.7192 73.0781 53.9151 72.886 54.4151 72.6638C54.8671 72.4629 54.8881 71.6975 55.0648 70.9944C55.2314 70.3317 55.1814 69.7966 55.0381 69.5516C54.8392 69.2116 54.5841 68.9715 54.3938 68.8325C54.1902 68.6838 53.6662 68.619 52.9948 68.575C52.4942 68.5422 52.2159 68.807 52.0612 68.9951C51.6968 69.4385 51.5452 70.1659 51.4356 70.9595C51.3648 71.4719 51.9637 71.8086 52.4353 72.0195C52.5681 72.0789 52.7332 72.0768 52.8541 72.0294C53.3342 71.841 53.5894 71.2599 53.8003 70.2082C53.8485 69.9681 53.7563 69.8291 53.6565 69.7336C53.4449 69.531 53.027 69.5005 52.6427 69.4799C52.4781 69.471 52.3753 69.5392 52.2959 69.6412C52.1197 69.8677 52.0877 70.2101 52.08 70.4993C52.0765 70.6322 52.1438 70.7343 52.228 70.8272C52.3121 70.9202 52.4291 71.0002 52.57 71.0364C52.7109 71.0727 52.8721 71.0628 52.993 71.0149C53.1139 70.967 53.1896 70.8814 53.2372 70.7746C53.2848 70.6677 53.302 70.5421 53.2681 70.4396C53.2341 70.3371 53.1486 70.2614 53.0488 70.2788C52.949 70.2961 52.8377 70.4088 52.8052 70.5182C52.7728 70.6276 52.8227 70.7304 52.909 70.8076C53.0899 70.9695 53.3671 71.0007 53.5973 70.9683C53.712 70.9521 53.782 70.8017 53.8339 70.663C53.8859 70.5242 53.9074 70.3673 53.8757 70.2486C53.8171 70.0293 53.549 69.9277 53.3003 69.8611C53.1729 69.8432 53.043 69.8574 52.9226 69.9053C52.8022 69.9533 52.6951 70.0346 52.5848 70.1183" stroke="#CE794D" stroke-width="2" stroke-linecap="round"/>
<path d="M51.5605 69.1059C51.3583 69.1742 50.9809 69.5731 50.7342 70.0728C50.5913 70.3621 50.4529 70.8245 50.4127 71.3515C50.3711 71.8966 50.8391 72.236 51.2009 72.5444C51.6157 72.8977 52.151 73.0301 53.2115 73.1764C53.5895 73.2285 53.863 73.0398 54.1041 72.928C54.5599 72.7165 54.5636 71.9429 54.5638 71.4748C54.4083 71.2093 54.2022 71.0512 53.9313 70.9172C53.746 70.8589 53.4634 70.8202 53.1724 70.7803" stroke="#CE794D" stroke-width="2" stroke-linecap="round"/>
<path d="M48.5856 61.8179C48.4062 61.9532 48.1379 62.497 47.9549 63.0054C47.8522 63.2908 47.9254 63.5678 48.0594 63.7635C48.3791 64.2301 49.3459 64.2478 49.9664 64.108C50.4656 63.9955 50.3573 63.0335 50.3927 62.425C50.4062 62.1929 50.2909 62.1174 50.1412 62.032C49.7917 61.8325 49.406 61.7365 49.1303 61.7467C48.677 61.7635 48.4601 62.5081 48.356 63.2537C48.334 63.4112 48.516 63.4868 48.6704 63.5409C48.8248 63.595 49.0132 63.6208 49.148 63.5913C49.2829 63.5618 49.3586 63.4763 49.4126 63.3223C49.4666 63.1684 49.4967 62.9486 49.4538 62.7954C49.3774 62.5232 48.8594 62.4369 48.3324 62.3967C48.1199 62.3805 48.0165 62.4493 47.9378 62.6634C47.729 63.2311 47.8042 63.745 47.9226 63.9385C48.0409 64.132 48.286 64.2316 48.5953 64.3224C49.0231 64.448 49.396 64.3846 49.6031 64.284C50.0108 64.0862 50.1605 63.5221 50.3435 63.0137C50.4008 62.7158 50.3731 62.4513 50.2547 62.2578C50.1862 62.167 50.1006 62.0913 49.8222 61.9873" stroke="#B97532" stroke-width="2" stroke-linecap="round"/>
<path d="M66.2931 86.9035C65.7298 87.331 65.3582 87.969 65.0987 88.2539C64.8783 88.5442 64.4677 89.1768 64.3998 89.6722" stroke="#B97532" stroke-width="2" stroke-linecap="round"/>
<path d="M68.7021 87.7382C69.1296 88.3014 69.053 88.8603 68.9939 89.2921C68.926 89.7875 68.8447 90.3812 68.7903 90.7783" stroke="#B97532" stroke-width="2" stroke-linecap="round"/>
<path d="M85.4483 90.3769C85.1877 90.5632 84.9131 90.8251 84.6255 91.1956C84.3279 91.6387 84.0603 92.8704 84.0791 93.377" stroke="#B97532" stroke-width="2" stroke-linecap="round"/>
<path d="M87.5263 90.3165C87.7036 90.4888 88.344 91.7156 88.2457 92.4337C88.11 93.4245 88.0632 93.6407 88.0421 93.9199" stroke="#B97532" stroke-width="2" stroke-linecap="round"/>
</g>
<path d="M233.442 158C233.442 158 232.442 169.5 219.942 177.5C209.586 184.128 202.442 184.5 191.442 184.5C175.431 184.5 161.435 178.958 145.942 183C134.493 185.987 125.942 198 125.942 198" stroke="#763B29" stroke-dasharray="9 9"/>
<path d="M129.5 270.5C139.649 284.263 161.04 277.137 168.851 281.237C176.661 285.338 184.04 294.137 191.851 298.237C199.661 302.338 224.04 299.637 231.851 303.737C239.661 307.838 241.5 314 241.5 314" stroke="#763B29" stroke-dasharray="9 9"/>
</svg>
