<svg width="40" height="40" viewBox="0 0 40 40" fill="none" xmlns="http://www.w3.org/2000/svg">
<path d="M37.371 20.5961C37.8788 20.1876 37.8666 19.4105 37.3463 19.0184L36.2963 18.2276L33.2528 16.1709L33.2417 16.1642L33.2313 16.1567L24.9931 10.2725C24.6262 10.0106 23.9834 10.0356 23.3143 10.6189C22.649 11.1989 22.4323 11.9392 22.623 12.4391C23.5608 14.8953 24.2933 17.5643 24.3231 19.9982C24.3529 22.4481 23.6772 25.1552 22.7923 27.6479C22.6136 28.1518 22.8452 28.8815 23.5171 29.4397C24.1925 30.0008 24.832 30.0106 25.1939 29.7397L33.3359 23.6441L33.3407 23.6406L36.3586 21.4118L37.371 20.5961Z" fill="#824736" stroke="#622E1E" stroke-width="2"/>
</svg>
