<svg width="40" height="40" viewBox="0 0 40 40" fill="none" xmlns="http://www.w3.org/2000/svg">
<path d="M2.62896 20.5961C2.12122 20.1876 2.13341 19.4105 2.65374 19.0184L3.70375 18.2276L6.74717 16.1709L6.7583 16.1642L6.76875 16.1567L15.0069 10.2725C15.3738 10.0106 16.0166 10.0356 16.6857 10.6189C17.351 11.1989 17.5677 11.9392 17.377 12.4391C16.4392 14.8953 15.7067 17.5643 15.6769 19.9982C15.6471 22.4481 16.3228 25.1552 17.2077 27.6479C17.3864 28.1518 17.1548 28.8815 16.4829 29.4397C15.8075 30.0008 15.168 30.0106 14.8061 29.7397L6.66408 23.6441L6.65928 23.6406L3.64142 21.4118L2.62896 20.5961Z" fill="#824736" stroke="#622E1E" stroke-width="2"/>
</svg>
