<svg width="122" height="32" viewBox="0 0 122 32" fill="none" xmlns="http://www.w3.org/2000/svg">
<rect x="0.5" y="0.5" width="121" height="31" rx="9.5" fill="#622E1E" stroke="#572517"/>
<path d="M2 10C2 5.02944 6.02944 1 11 1H111C115.971 1 120 5.02944 120 10V18C120 23.5228 115.523 28 110 28H12C6.47715 28 2 23.5228 2 18V10Z" fill="#824736"/>
<path d="M5 12C5 7.02944 9.02944 3 14 3H108C112.971 3 117 7.02944 117 12V16C117 21.5228 112.523 26 107 26H15C9.47715 26 5 21.5228 5 16V12Z" fill="#753A29"/>
</svg>
