<svg width="657" height="816" viewBox="0 0 657 816" fill="none" xmlns="http://www.w3.org/2000/svg">
<path d="M0 40C0 26.7451 10.7452 16 24 16H633C646.255 16 657 26.7452 657 40V792C657 805.255 646.255 816 633 816H17C7.61117 816 0 808.389 0 799V40Z" fill="#814330"/>
<rect x="15.4099" y="23.8873" width="626.18" height="783.226" rx="19" fill="#814330" stroke="#DD954D" stroke-width="2" stroke-dasharray="4 4"/>
<g filter="url(#filter0_d_34_33)">
<path d="M9 29H624C637.255 29 648 39.7452 648 53V783.754C648 797.105 637.157 807.891 623.807 807.766C567.803 807.241 426.551 806.015 328.5 806.015C203.727 806.015 9 808 9 808V29Z" fill="url(#paint0_linear_34_33)"/>
</g>
<g filter="url(#filter1_d_34_33)">
<path d="M9 27H622C635.255 27 646 37.7452 646 51V782.038C646 795.278 635.278 806.017 622.038 806.038L9 807V27Z" fill="url(#paint1_linear_34_33)"/>
</g>
<g filter="url(#filter2_d_34_33)">
<path d="M9 25H620C633.255 25 644 35.7452 644 49V780.075C644 793.301 633.301 804.034 620.076 804.075L9 806V25Z" fill="url(#paint2_linear_34_33)"/>
</g>
<g filter="url(#filter3_d_34_33)">
<path d="M9 23H618C631.255 23 642 33.7452 642 47V778.113C642 791.324 631.324 802.051 618.114 802.113L9 805V23Z" fill="url(#paint3_linear_34_33)"/>
</g>
<g filter="url(#filter4_d_34_33)">
<path d="M9 23H616C629.255 23 640 33.7452 640 47V776.152C640 789.347 629.347 800.068 616.152 800.151L9 804V23Z" fill="url(#paint4_linear_34_33)"/>
</g>
<g filter="url(#filter5_d_34_33)">
<path d="M9 23H614C627.255 23 638 33.7452 638 47V774.19C638 787.37 627.371 798.084 614.191 798.189L9 803V23Z" fill="url(#paint5_linear_34_33)"/>
</g>
<g filter="url(#filter6_d_34_33)">
<path d="M9 23H612C625.255 23 636 33.7452 636 47V772.229C636 785.394 625.394 796.101 612.23 796.227L9 802V23Z" fill="url(#paint6_linear_34_33)"/>
</g>
<path d="M0 24C0 10.7451 10.7452 0 24 0H616C629.255 0 640 10.7452 640 24V776C640 789.255 629.255 800 616 800H0V24Z" fill="#824736"/>
<rect x="11" y="13" width="618" height="773" rx="19" fill="#824736" stroke="#DD954D" stroke-width="2" stroke-dasharray="4 4"/>
<path d="M0 799L22 800C22 800 10 801 10 808C10 815 22 816 22 816H17C7.61116 816 0 808.389 0 799Z" fill="#824736"/>
<path d="M168 130H488L482.5 136L488 145L475 149.5L488 160L482.5 168L488 175L478.5 183L488 190L481.5 196.5L488 205L475 212L488 220L482.5 227L488 235L481.5 242.5L488 250H168L175 243L168 235L181 231.5L168 220L177 213.5L168 205L173 198L168 190L179 183L168 175L181 165L168 160L177 151.5L168 145L173 138L168 130Z" fill="#DD954D"/>
<line x1="197.992" y1="231.008" x2="457.992" y2="229.008" stroke="#763B29" stroke-width="2" stroke-linecap="round" stroke-dasharray="12 12"/>
<path d="M429 420.5C429 420.5 435 421 447 435C455.653 445.096 469 457.5 469 457.5C469 457.5 456.168 458.737 450 453C448.076 451.211 434.5 432.5 434.5 432.5L429 420.5Z" fill="#763B29"/>
<path d="M436.075 380.955C445.451 391.687 448.668 403.736 447.023 415.322C445.375 426.928 438.831 438.153 428.532 447.15C427.241 448.279 426.205 449.097 425.387 449.648C424.631 450.157 424.143 450.38 423.862 450.453C423.838 450.273 423.83 449.951 423.901 449.432C424.098 448.006 424.751 445.821 425.686 443.004C426.604 440.243 427.797 436.858 428.982 433.23C431.363 425.935 433.827 417.305 434.48 409.098C435.132 400.907 433.995 392.945 428.954 387.176C423.916 381.408 416.131 379.154 407.856 378.613C399.563 378.071 390.582 379.237 382.934 380.502C381.019 380.818 379.183 381.142 377.461 381.448C375.736 381.753 374.129 382.041 372.662 382.285C369.699 382.78 367.404 383.086 365.93 383.048C365.297 383.032 364.946 382.951 364.777 382.883C364.857 382.624 365.128 382.149 365.778 381.406C366.425 380.667 367.37 379.748 368.66 378.621C378.945 369.635 391.14 364.881 403.067 365.031C414.979 365.18 426.696 370.22 436.075 380.955Z" fill="url(#paint7_linear_34_33)" stroke="#B46E36" stroke-width="2"/>
<path d="M308.275 486.43C307.977 486.314 307.772 486.071 307.707 485.764C307.065 482.732 305.155 473.11 304.058 461.246C302.958 449.367 302.682 435.317 305.266 423.397C310.825 397.756 325.992 373.376 348.819 366.89C356.721 364.646 363.042 365.407 368.639 368.074C374.283 370.763 379.259 375.421 384.386 381.112C388.287 385.442 389.167 392.778 388.666 400.333C388.169 407.818 386.341 415.202 385.164 419.33C384.537 421.529 386.457 423.689 388.71 423.341C393.008 422.678 400.718 421.794 408.378 422.43C416.095 423.071 423.467 425.233 427.432 430.38C432.314 436.718 435.739 442.889 437.125 449.264C438.505 455.613 437.877 462.236 434.528 469.525C424.537 491.271 401.533 501.048 373.681 501.634C361.704 501.886 346.936 498.713 334.323 495.143C321.732 491.578 311.382 487.645 308.275 486.43Z" fill="url(#paint8_radial_34_33)" stroke="#B46E36" stroke-width="2"/>
<path d="M648 457C648 457 650 457 654 460C656.884 462.163 657 466 657 466C657 466 654.5 463 653 462C651.4 460.933 648 460 648 460V457Z" fill="#763B29"/>
<path d="M625.976 357C641.412 357 648.94 359.494 652.58 361.841C654.386 363.005 655.23 364.128 655.627 364.896C655.827 365.284 655.92 365.593 655.963 365.787C655.984 365.884 655.994 365.953 655.998 365.99L656 366.021V462.055C655.408 461.436 654.646 460.792 653.664 460.159C649.548 457.506 641.563 455 625.976 455C600.582 455 503.607 456.339 469.193 456.826C461.822 456.93 454.885 453.496 450.472 447.586L430 420.166V393.351L450.708 367.466C455.002 362.099 461.4 358.936 468.266 358.839C501.812 358.364 600.361 357 625.976 357Z" fill="#814330" stroke="#DD954D" stroke-width="2"/>
<path d="M456.25 383.838C456.25 375.065 463.248 367.929 472.021 367.842C510.694 367.456 608.306 366.5 625.063 366.5C646.05 366.5 646.05 371 646.05 371V448.5C646.05 448.5 639.054 446.5 625.063 446.5C613.858 446.5 512.337 447.462 472.34 447.845C463.443 447.93 456.25 440.741 456.25 431.844V383.838Z" fill="url(#paint9_linear_34_33)" stroke="#DD954D" stroke-width="2" stroke-dasharray="2 2"/>
<rect x="515" y="354" width="23" height="106" rx="2" fill="#DD954D"/>
<g filter="url(#filter7_d_34_33)">
<rect x="345.822" y="473.54" width="14" height="18" rx="6" transform="rotate(7.55517 345.822 473.54)" fill="#824736"/>
<rect x="344.962" y="472.417" width="16" height="20" rx="7" transform="rotate(7.55517 344.962 472.417)" stroke="#622E1E" stroke-width="2"/>
</g>
<g filter="url(#filter8_d_34_33)">
<rect x="366.019" y="475.886" width="14" height="18" rx="6" transform="rotate(-4.44483 366.019 475.886)" fill="#824736"/>
<rect x="364.944" y="474.967" width="16" height="20" rx="7" transform="rotate(-4.44483 364.944 474.967)" stroke="#622E1E" stroke-width="2"/>
</g>
<g filter="url(#filter9_d_34_33)">
<rect x="386.184" y="473.323" width="14" height="18" rx="6" transform="rotate(-16.4448 386.184 473.323)" fill="#824736"/>
<rect x="384.942" y="472.647" width="16" height="20" rx="7" transform="rotate(-16.4448 384.942 472.647)" stroke="#622E1E" stroke-width="2"/>
</g>
<g filter="url(#filter10_d_34_33)">
<rect x="404.645" y="465.652" width="14" height="18" rx="6" transform="rotate(-28.4448 404.645 465.652)" fill="#824736"/>
<rect x="403.289" y="465.249" width="16" height="20" rx="7" transform="rotate(-28.4448 403.289 465.249)" stroke="#622E1E" stroke-width="2"/>
</g>
<defs>
<filter id="filter0_d_34_33" x="5" y="29" width="647" height="787" filterUnits="userSpaceOnUse" color-interpolation-filters="sRGB">
<feFlood flood-opacity="0" result="BackgroundImageFix"/>
<feColorMatrix in="SourceAlpha" type="matrix" values="0 0 0 0 0 0 0 0 0 0 0 0 0 0 0 0 0 0 127 0" result="hardAlpha"/>
<feOffset dy="4"/>
<feGaussianBlur stdDeviation="2"/>
<feComposite in2="hardAlpha" operator="out"/>
<feColorMatrix type="matrix" values="0 0 0 0 0.225962 0 0 0 0 0.112874 0 0 0 0 0.0782175 0 0 0 0.3 0"/>
<feBlend mode="normal" in2="BackgroundImageFix" result="effect1_dropShadow_34_33"/>
<feBlend mode="normal" in="SourceGraphic" in2="effect1_dropShadow_34_33" result="shape"/>
</filter>
<filter id="filter1_d_34_33" x="5" y="27" width="645" height="788" filterUnits="userSpaceOnUse" color-interpolation-filters="sRGB">
<feFlood flood-opacity="0" result="BackgroundImageFix"/>
<feColorMatrix in="SourceAlpha" type="matrix" values="0 0 0 0 0 0 0 0 0 0 0 0 0 0 0 0 0 0 127 0" result="hardAlpha"/>
<feOffset dy="4"/>
<feGaussianBlur stdDeviation="2"/>
<feComposite in2="hardAlpha" operator="out"/>
<feColorMatrix type="matrix" values="0 0 0 0 0.225962 0 0 0 0 0.112874 0 0 0 0 0.0782175 0 0 0 0.3 0"/>
<feBlend mode="normal" in2="BackgroundImageFix" result="effect1_dropShadow_34_33"/>
<feBlend mode="normal" in="SourceGraphic" in2="effect1_dropShadow_34_33" result="shape"/>
</filter>
<filter id="filter2_d_34_33" x="5" y="25" width="643" height="789" filterUnits="userSpaceOnUse" color-interpolation-filters="sRGB">
<feFlood flood-opacity="0" result="BackgroundImageFix"/>
<feColorMatrix in="SourceAlpha" type="matrix" values="0 0 0 0 0 0 0 0 0 0 0 0 0 0 0 0 0 0 127 0" result="hardAlpha"/>
<feOffset dy="4"/>
<feGaussianBlur stdDeviation="2"/>
<feComposite in2="hardAlpha" operator="out"/>
<feColorMatrix type="matrix" values="0 0 0 0 0.225962 0 0 0 0 0.112874 0 0 0 0 0.0782175 0 0 0 0.3 0"/>
<feBlend mode="normal" in2="BackgroundImageFix" result="effect1_dropShadow_34_33"/>
<feBlend mode="normal" in="SourceGraphic" in2="effect1_dropShadow_34_33" result="shape"/>
</filter>
<filter id="filter3_d_34_33" x="5" y="23" width="641" height="790" filterUnits="userSpaceOnUse" color-interpolation-filters="sRGB">
<feFlood flood-opacity="0" result="BackgroundImageFix"/>
<feColorMatrix in="SourceAlpha" type="matrix" values="0 0 0 0 0 0 0 0 0 0 0 0 0 0 0 0 0 0 127 0" result="hardAlpha"/>
<feOffset dy="4"/>
<feGaussianBlur stdDeviation="2"/>
<feComposite in2="hardAlpha" operator="out"/>
<feColorMatrix type="matrix" values="0 0 0 0 0.225962 0 0 0 0 0.112874 0 0 0 0 0.0782175 0 0 0 0.3 0"/>
<feBlend mode="normal" in2="BackgroundImageFix" result="effect1_dropShadow_34_33"/>
<feBlend mode="normal" in="SourceGraphic" in2="effect1_dropShadow_34_33" result="shape"/>
</filter>
<filter id="filter4_d_34_33" x="5" y="23" width="639" height="789" filterUnits="userSpaceOnUse" color-interpolation-filters="sRGB">
<feFlood flood-opacity="0" result="BackgroundImageFix"/>
<feColorMatrix in="SourceAlpha" type="matrix" values="0 0 0 0 0 0 0 0 0 0 0 0 0 0 0 0 0 0 127 0" result="hardAlpha"/>
<feOffset dy="4"/>
<feGaussianBlur stdDeviation="2"/>
<feComposite in2="hardAlpha" operator="out"/>
<feColorMatrix type="matrix" values="0 0 0 0 0.225962 0 0 0 0 0.112874 0 0 0 0 0.0782175 0 0 0 0.3 0"/>
<feBlend mode="normal" in2="BackgroundImageFix" result="effect1_dropShadow_34_33"/>
<feBlend mode="normal" in="SourceGraphic" in2="effect1_dropShadow_34_33" result="shape"/>
</filter>
<filter id="filter5_d_34_33" x="5" y="23" width="637" height="788" filterUnits="userSpaceOnUse" color-interpolation-filters="sRGB">
<feFlood flood-opacity="0" result="BackgroundImageFix"/>
<feColorMatrix in="SourceAlpha" type="matrix" values="0 0 0 0 0 0 0 0 0 0 0 0 0 0 0 0 0 0 127 0" result="hardAlpha"/>
<feOffset dy="4"/>
<feGaussianBlur stdDeviation="2"/>
<feComposite in2="hardAlpha" operator="out"/>
<feColorMatrix type="matrix" values="0 0 0 0 0.225962 0 0 0 0 0.112874 0 0 0 0 0.0782175 0 0 0 0.3 0"/>
<feBlend mode="normal" in2="BackgroundImageFix" result="effect1_dropShadow_34_33"/>
<feBlend mode="normal" in="SourceGraphic" in2="effect1_dropShadow_34_33" result="shape"/>
</filter>
<filter id="filter6_d_34_33" x="5" y="23" width="635" height="787" filterUnits="userSpaceOnUse" color-interpolation-filters="sRGB">
<feFlood flood-opacity="0" result="BackgroundImageFix"/>
<feColorMatrix in="SourceAlpha" type="matrix" values="0 0 0 0 0 0 0 0 0 0 0 0 0 0 0 0 0 0 127 0" result="hardAlpha"/>
<feOffset dy="4"/>
<feGaussianBlur stdDeviation="2"/>
<feComposite in2="hardAlpha" operator="out"/>
<feColorMatrix type="matrix" values="0 0 0 0 0.225962 0 0 0 0 0.112874 0 0 0 0 0.0782175 0 0 0 0.3 0"/>
<feBlend mode="normal" in2="BackgroundImageFix" result="effect1_dropShadow_34_33"/>
<feBlend mode="normal" in="SourceGraphic" in2="effect1_dropShadow_34_33" result="shape"/>
</filter>
<filter id="filter7_d_34_33" x="339.191" y="471.276" width="22.7734" height="26.2128" filterUnits="userSpaceOnUse" color-interpolation-filters="sRGB">
<feFlood flood-opacity="0" result="BackgroundImageFix"/>
<feColorMatrix in="SourceAlpha" type="matrix" values="0 0 0 0 0 0 0 0 0 0 0 0 0 0 0 0 0 0 127 0" result="hardAlpha"/>
<feOffset dx="-1" dy="1"/>
<feGaussianBlur stdDeviation="1"/>
<feComposite in2="hardAlpha" operator="out"/>
<feColorMatrix type="matrix" values="0 0 0 0 0.225962 0 0 0 0 0.112874 0 0 0 0 0.0782175 0 0 0 0.3 0"/>
<feBlend mode="normal" in2="BackgroundImageFix" result="effect1_dropShadow_34_33"/>
<feBlend mode="normal" in="SourceGraphic" in2="effect1_dropShadow_34_33" result="shape"/>
</filter>
<filter id="filter8_d_34_33" x="361.465" y="472.248" width="22.4597" height="26.1377" filterUnits="userSpaceOnUse" color-interpolation-filters="sRGB">
<feFlood flood-opacity="0" result="BackgroundImageFix"/>
<feColorMatrix in="SourceAlpha" type="matrix" values="0 0 0 0 0 0 0 0 0 0 0 0 0 0 0 0 0 0 127 0" result="hardAlpha"/>
<feOffset dx="-1" dy="1"/>
<feGaussianBlur stdDeviation="1"/>
<feComposite in2="hardAlpha" operator="out"/>
<feColorMatrix type="matrix" values="0 0 0 0 0.225962 0 0 0 0 0.112874 0 0 0 0 0.0782175 0 0 0 0.3 0"/>
<feBlend mode="normal" in2="BackgroundImageFix" result="effect1_dropShadow_34_33"/>
<feBlend mode="normal" in="SourceGraphic" in2="effect1_dropShadow_34_33" result="shape"/>
</filter>
<filter id="filter9_d_34_33" x="382.635" y="467.81" width="23.6211" height="26.325" filterUnits="userSpaceOnUse" color-interpolation-filters="sRGB">
<feFlood flood-opacity="0" result="BackgroundImageFix"/>
<feColorMatrix in="SourceAlpha" type="matrix" values="0 0 0 0 0 0 0 0 0 0 0 0 0 0 0 0 0 0 127 0" result="hardAlpha"/>
<feOffset dx="-1" dy="1"/>
<feGaussianBlur stdDeviation="1"/>
<feComposite in2="hardAlpha" operator="out"/>
<feColorMatrix type="matrix" values="0 0 0 0 0.225962 0 0 0 0 0.112874 0 0 0 0 0.0782175 0 0 0 0.3 0"/>
<feBlend mode="normal" in2="BackgroundImageFix" result="effect1_dropShadow_34_33"/>
<feBlend mode="normal" in="SourceGraphic" in2="effect1_dropShadow_34_33" result="shape"/>
</filter>
<filter id="filter10_d_34_33" x="401.777" y="458.116" width="24.6194" height="26.2313" filterUnits="userSpaceOnUse" color-interpolation-filters="sRGB">
<feFlood flood-opacity="0" result="BackgroundImageFix"/>
<feColorMatrix in="SourceAlpha" type="matrix" values="0 0 0 0 0 0 0 0 0 0 0 0 0 0 0 0 0 0 127 0" result="hardAlpha"/>
<feOffset dx="-1" dy="1"/>
<feGaussianBlur stdDeviation="1"/>
<feComposite in2="hardAlpha" operator="out"/>
<feColorMatrix type="matrix" values="0 0 0 0 0.225962 0 0 0 0 0.112874 0 0 0 0 0.0782175 0 0 0 0.3 0"/>
<feBlend mode="normal" in2="BackgroundImageFix" result="effect1_dropShadow_34_33"/>
<feBlend mode="normal" in="SourceGraphic" in2="effect1_dropShadow_34_33" result="shape"/>
</filter>
<linearGradient id="paint0_linear_34_33" x1="648" y1="404.663" x2="8.9999" y2="406.158" gradientUnits="userSpaceOnUse">
<stop offset="0.85" stop-color="#ECE1CB"/>
<stop offset="1" stop-color="#D4C2A0"/>
</linearGradient>
<linearGradient id="paint1_linear_34_33" x1="646" y1="402.663" x2="8.99988" y2="404.149" gradientUnits="userSpaceOnUse">
<stop offset="0.85" stop-color="#ECE1CB"/>
<stop offset="1" stop-color="#D4C2A0"/>
</linearGradient>
<linearGradient id="paint2_linear_34_33" x1="644" y1="400.663" x2="8.99986" y2="402.14" gradientUnits="userSpaceOnUse">
<stop offset="0.85" stop-color="#ECE1CB"/>
<stop offset="1" stop-color="#D4C2A0"/>
</linearGradient>
<linearGradient id="paint3_linear_34_33" x1="642" y1="398.662" x2="8.99984" y2="400.13" gradientUnits="userSpaceOnUse">
<stop offset="0.85" stop-color="#ECE1CB"/>
<stop offset="1" stop-color="#D4C2A0"/>
</linearGradient>
<linearGradient id="paint4_linear_34_33" x1="640" y1="397.698" x2="8.99983" y2="399.161" gradientUnits="userSpaceOnUse">
<stop offset="0.85" stop-color="#ECE1CB"/>
<stop offset="1" stop-color="#D4C2A0"/>
</linearGradient>
<linearGradient id="paint5_linear_34_33" x1="638" y1="396.734" x2="8.99983" y2="398.191" gradientUnits="userSpaceOnUse">
<stop offset="0.85" stop-color="#ECE1CB"/>
<stop offset="1" stop-color="#D4C2A0"/>
</linearGradient>
<linearGradient id="paint6_linear_34_33" x1="636" y1="395.769" x2="8.99983" y2="397.221" gradientUnits="userSpaceOnUse">
<stop offset="0.5" stop-color="#ECE1CB"/>
<stop offset="0.65" stop-color="#F8EBD3"/>
<stop offset="0.8" stop-color="#ECE1CB"/>
<stop offset="1" stop-color="#D4C2A0"/>
</linearGradient>
<linearGradient id="paint7_linear_34_33" x1="436.425" y1="379.836" x2="393.5" y2="417.338" gradientUnits="userSpaceOnUse">
<stop offset="0.129808" stop-color="#DD954D"/>
<stop offset="0.475962" stop-color="#D0883E"/>
</linearGradient>
<radialGradient id="paint8_radial_34_33" cx="0" cy="0" r="1" gradientUnits="userSpaceOnUse" gradientTransform="translate(360.789 445.253) rotate(138.857) scale(61.0002 61)">
<stop offset="0.735577" stop-color="#DD954D"/>
<stop offset="1" stop-color="#D0883E"/>
</radialGradient>
<linearGradient id="paint9_linear_34_33" x1="456.25" y1="408" x2="646.05" y2="408" gradientUnits="userSpaceOnUse">
<stop offset="0.6" stop-color="#814330"/>
<stop offset="0.899038" stop-color="#7B3A26"/>
<stop offset="1" stop-color="#814330"/>
</linearGradient>
</defs>
</svg>
