<svg width="165" height="71" viewBox="0 0 165 71" fill="none" xmlns="http://www.w3.org/2000/svg">
<path d="M30.64 21.32C30.64 22.12 30.4667 22.72 30.12 23.12C29.8 23.52 29.2667 23.72 28.52 23.72C28.4667 24.28 28.3467 25.2533 28.16 26.64C27.8933 28.5067 27.7467 29.5467 27.72 29.76C25.3467 47.44 20.4 56.28 12.88 56.28C10.6667 56.28 8.93333 55.6533 7.68 54.4C6.45333 53.1467 5.84 51.5733 5.84 49.68C5.84 46.2933 7.28 43.3067 10.16 40.72C13.04 38.1067 16.8267 35.9467 21.52 34.24C21.8133 32.3467 22.04 30.6533 22.2 29.16L22.92 23.12C21.32 22.96 19.8267 22.88 18.44 22.88C14.7333 22.88 12 23.24 10.24 23.96C8.48 24.68 7.6 25.8533 7.6 27.48C7.6 28.28 7.86667 29.1467 8.4 30.08C8.56 30.3467 8.64 30.6267 8.64 30.92C8.64 31.48 8.34667 31.9867 7.76 32.44C7.2 32.8667 6.58667 33.08 5.92 33.08C5.06667 33.08 4.41333 32.72 3.96 32C3.21333 30.7733 2.84 29.3467 2.84 27.72C2.84 21.32 8.44 18.12 19.64 18.12C22.8933 18.12 25.8 18.44 28.36 19.08C29.88 19.4533 30.64 20.2 30.64 21.32ZM13.4 52C14.7067 52 16.0133 51.0133 17.32 49.04C18.6267 47.0667 19.7733 43.6133 20.76 38.68C14.2533 41.5333 11 45.0267 11 49.16C11 50.0667 11.2133 50.7733 11.64 51.28C12.0667 51.76 12.6533 52 13.4 52ZM50.2497 39.72C50.5964 39.72 50.863 39.8933 51.0497 40.24C51.2364 40.5867 51.3297 41.0267 51.3297 41.56C51.3297 42.84 50.943 43.6 50.1697 43.84C48.5697 44.4 46.8097 44.72 44.8897 44.8C44.383 47.04 43.383 48.84 41.8897 50.2C40.3964 51.5333 38.703 52.2 36.8097 52.2C35.2097 52.2 33.8364 51.8133 32.6897 51.04C31.5697 50.2667 30.7164 49.24 30.1297 47.96C29.543 46.68 29.2497 45.2933 29.2497 43.8C29.2497 41.7733 29.6364 39.9733 30.4097 38.4C31.183 36.8 32.2497 35.56 33.6097 34.68C34.9697 33.7733 36.4764 33.32 38.1297 33.32C40.1564 33.32 41.783 34.0267 43.0097 35.44C44.263 36.8267 44.9964 38.5467 45.2097 40.6C46.463 40.52 47.9564 40.2533 49.6897 39.8C49.903 39.7467 50.0897 39.72 50.2497 39.72ZM37.1297 47.96C37.983 47.96 38.7164 47.6133 39.3297 46.92C39.9697 46.2267 40.3964 45.2267 40.6097 43.92C39.783 43.36 39.143 42.6267 38.6897 41.72C38.263 40.8133 38.0497 39.8533 38.0497 38.84C38.0497 38.4133 38.0897 37.9867 38.1697 37.56H37.9697C36.903 37.56 36.0097 38.08 35.2897 39.12C34.5964 40.1333 34.2497 41.5733 34.2497 43.44C34.2497 44.9067 34.5297 46.0267 35.0897 46.8C35.6764 47.5733 36.3564 47.96 37.1297 47.96ZM51.9766 52.2C50.7766 52.2 49.7899 51.6533 49.0166 50.56C48.2699 49.44 47.8966 48.0533 47.8966 46.4C47.8966 44.4 48.0299 42.5733 48.2966 40.92C48.5632 39.24 49.0032 37.4667 49.6166 35.6C49.8832 34.8 50.2566 34.2267 50.7366 33.88C51.2166 33.5333 51.9766 33.36 53.0166 33.36C53.6032 33.36 54.0032 33.4533 54.2166 33.64C54.4566 33.8267 54.5766 34.1067 54.5766 34.48C54.5766 34.6933 54.4299 35.4133 54.1366 36.64C53.8699 37.6267 53.6566 38.52 53.4966 39.32C52.9632 42.12 52.6966 43.9867 52.6966 44.92C52.6966 45.48 52.7632 45.88 52.8966 46.12C53.0299 46.3333 53.2432 46.44 53.5366 46.44C53.9366 46.44 54.4299 46.04 55.0166 45.24C55.6299 44.44 56.2699 43.2267 56.9366 41.6C57.6299 39.9733 58.2966 37.9733 58.9366 35.6C59.1499 34.8 59.4699 34.2267 59.8966 33.88C60.3499 33.5333 61.0166 33.36 61.8966 33.36C62.5099 33.36 62.9366 33.44 63.1766 33.6C63.4166 33.7333 63.5366 34 63.5366 34.4C63.5366 35.0667 63.2032 36.8933 62.5366 39.88C61.7899 43.2933 61.4166 45.4 61.4166 46.2C61.4166 46.7067 61.5232 47.1067 61.7366 47.4C61.9499 47.6667 62.2299 47.8 62.5766 47.8C63.1099 47.8 63.7366 47.48 64.4566 46.84C65.2032 46.1733 66.1899 45.1067 67.4166 43.64C67.7366 43.2667 68.0966 43.08 68.4966 43.08C68.8432 43.08 69.1099 43.24 69.2966 43.56C69.5099 43.88 69.6166 44.32 69.6166 44.88C69.6166 45.9467 69.3632 46.7733 68.8566 47.36C67.7099 48.7733 66.4699 49.9333 65.1366 50.84C63.8299 51.7467 62.3366 52.2 60.6566 52.2C59.3766 52.2 58.4299 51.7067 57.8166 50.72C57.2299 49.7333 56.9366 48.3467 56.9366 46.56C56.4832 48.3733 55.8032 49.7733 54.8966 50.76C53.9899 51.72 53.0166 52.2 51.9766 52.2ZM69.2131 52.2C68.1998 52.2 67.4798 51.6667 67.0531 50.6C66.6531 49.5333 66.4531 47.8267 66.4531 45.48C66.4531 42.0133 66.9465 38.72 67.9331 35.6C68.1731 34.8267 68.5598 34.2667 69.0931 33.92C69.6531 33.5467 70.4265 33.36 71.4131 33.36C71.9465 33.36 72.3198 33.4267 72.5331 33.56C72.7465 33.6933 72.8531 33.9467 72.8531 34.32C72.8531 34.7467 72.6531 35.7067 72.2531 37.2C71.9865 38.2667 71.7731 39.2 71.6131 40C71.4531 40.8 71.3198 41.7867 71.2131 42.96C72.0931 40.6667 73.0798 38.8 74.1731 37.36C75.2665 35.92 76.3331 34.8933 77.3731 34.28C78.4398 33.6667 79.4131 33.36 80.2931 33.36C82.0265 33.36 82.8931 34.2267 82.8931 35.96C82.8931 36.3067 82.7731 37.1467 82.5331 38.48C82.3198 39.5467 82.2131 40.2133 82.2131 40.48C82.2131 41.4133 82.5465 41.88 83.2131 41.88C83.9598 41.88 84.9198 41.2933 86.0931 40.12C86.4398 39.7733 86.7998 39.6 87.1731 39.6C87.5198 39.6 87.7865 39.76 87.9731 40.08C88.1865 40.3733 88.2931 40.7733 88.2931 41.28C88.2931 42.2667 88.0265 43.04 87.4931 43.6C86.7465 44.3733 85.8665 45.04 84.8531 45.6C83.8665 46.1333 82.8131 46.4 81.6931 46.4C80.2798 46.4 79.1998 46.04 78.4531 45.32C77.7331 44.6 77.3731 43.6267 77.3731 42.4C77.3731 42 77.4131 41.6 77.4931 41.2C77.5465 40.6667 77.5731 40.3067 77.5731 40.12C77.5731 39.6933 77.4265 39.48 77.1331 39.48C76.7331 39.48 76.1998 39.9333 75.5331 40.84C74.8931 41.72 74.2531 42.8933 73.6131 44.36C72.9731 45.8267 72.4531 47.3733 72.0531 49C71.7598 50.2533 71.4131 51.1067 71.0131 51.56C70.6398 51.9867 70.0398 52.2 69.2131 52.2ZM87.4163 52.2C86.4029 52.2 85.6829 51.6667 85.2563 50.6C84.8563 49.5333 84.6563 47.8267 84.6563 45.48C84.6563 42.0133 85.1496 38.72 86.1363 35.6C86.3763 34.8267 86.7629 34.2667 87.2963 33.92C87.8563 33.5467 88.6296 33.36 89.6163 33.36C90.1496 33.36 90.5229 33.4267 90.7363 33.56C90.9496 33.6933 91.0563 33.9467 91.0563 34.32C91.0563 34.7467 90.8563 35.7067 90.4563 37.2C90.1896 38.2667 89.9763 39.2 89.8163 40C89.6563 40.8 89.5229 41.7867 89.4163 42.96C90.2963 40.6667 91.2829 38.8 92.3763 37.36C93.4696 35.92 94.5363 34.8933 95.5763 34.28C96.6429 33.6667 97.6163 33.36 98.4963 33.36C100.23 33.36 101.096 34.2267 101.096 35.96C101.096 37 100.803 38.88 100.216 41.6C99.7096 43.92 99.4563 45.4533 99.4563 46.2C99.4563 47.2667 99.8429 47.8 100.616 47.8C101.15 47.8 101.776 47.48 102.496 46.84C103.243 46.1733 104.23 45.1067 105.456 43.64C105.776 43.2667 106.136 43.08 106.536 43.08C106.883 43.08 107.15 43.24 107.336 43.56C107.55 43.88 107.656 44.32 107.656 44.88C107.656 45.9467 107.403 46.7733 106.896 47.36C105.75 48.7733 104.51 49.9333 103.176 50.84C101.87 51.7467 100.376 52.2 98.6963 52.2C97.3363 52.2 96.3096 51.8133 95.6163 51.04C94.9229 50.24 94.5763 49.0933 94.5763 47.6C94.5763 46.8533 94.7629 45.52 95.1363 43.6C95.4829 41.92 95.6563 40.76 95.6563 40.12C95.6563 39.6933 95.5096 39.48 95.2163 39.48C94.8696 39.48 94.3763 39.9333 93.7363 40.84C93.1229 41.72 92.4829 42.8933 91.8163 44.36C91.1763 45.8267 90.6563 47.3733 90.2563 49C89.9629 50.2533 89.6163 51.1067 89.2163 51.56C88.8429 51.9867 88.2429 52.2 87.4163 52.2ZM109.66 30.72C108.54 30.72 107.7 30.4667 107.14 29.96C106.58 29.4267 106.3 28.6933 106.3 27.76C106.3 26.8267 106.66 26.0533 107.38 25.44C108.127 24.8 109.047 24.48 110.14 24.48C111.127 24.48 111.927 24.72 112.54 25.2C113.153 25.68 113.46 26.36 113.46 27.24C113.46 28.3067 113.113 29.16 112.42 29.8C111.727 30.4133 110.807 30.72 109.66 30.72ZM109.34 52.2C107.607 52.2 106.34 51.5867 105.54 50.36C104.767 49.1333 104.38 47.5067 104.38 45.48C104.38 44.28 104.527 42.7467 104.82 40.88C105.14 38.9867 105.54 37.2267 106.02 35.6C106.26 34.7467 106.58 34.16 106.98 33.84C107.38 33.52 108.02 33.36 108.9 33.36C110.26 33.36 110.94 33.8133 110.94 34.72C110.94 35.3867 110.687 36.9333 110.18 39.36C109.54 42.2933 109.22 44.28 109.22 45.32C109.22 46.12 109.327 46.7333 109.54 47.16C109.753 47.5867 110.113 47.8 110.62 47.8C111.1 47.8 111.7 47.4667 112.42 46.8C113.14 46.1333 114.1 45.08 115.3 43.64C115.62 43.2667 115.98 43.08 116.38 43.08C116.727 43.08 116.993 43.24 117.18 43.56C117.393 43.88 117.5 44.32 117.5 44.88C117.5 45.9467 117.247 46.7733 116.74 47.36C114.1 50.5867 111.633 52.2 109.34 52.2ZM129.833 40.8C130.58 40.8 130.953 41.36 130.953 42.48C130.953 44.5867 129.3 45.64 125.993 45.64C125.353 45.64 124.433 45.52 123.233 45.28C123.58 46.9333 123.86 48.7733 124.073 50.8C124.313 52.8 124.433 54.4533 124.433 55.76C124.433 58.64 123.966 60.84 123.033 62.36C122.1 63.88 120.873 64.64 119.353 64.64C117.433 64.64 116.06 63.28 115.233 60.56C114.433 57.84 114.033 53.7333 114.033 48.24C114.033 43.12 114.58 37.9333 115.673 32.68C116.793 27.4 118.313 23.04 120.233 19.6C122.18 16.1333 124.313 14.4 126.633 14.4C127.886 14.4 128.86 14.96 129.553 16.08C130.273 17.2 130.633 18.7067 130.633 20.6C130.633 26.8667 126.886 33.6933 119.393 41.08C119.126 43.6933 118.993 45.9867 118.993 47.96C118.993 50.7067 119.086 53.52 119.273 56.4C119.46 59.3067 119.766 60.76 120.193 60.76C120.993 60.76 121.393 59.3733 121.393 56.6C121.393 54.52 121.246 52.5067 120.953 50.56C120.686 48.6133 120.313 46.56 119.833 44.4C119.806 44.0533 119.913 43.6133 120.153 43.08C120.42 42.5467 120.74 42.08 121.113 41.68C121.486 41.28 121.82 41.08 122.113 41.08C122.646 41.08 123.286 41.1067 124.033 41.16C124.273 41.1867 124.553 41.2 124.873 41.2C125.94 41.2 127.126 41.1067 128.433 40.92C128.646 40.8933 128.873 40.8667 129.113 40.84C129.353 40.8133 129.593 40.8 129.833 40.8ZM125.793 18.36C125.313 18.36 124.713 19.1733 123.993 20.8C123.3 22.4267 122.606 24.5867 121.913 27.28C121.22 29.9467 120.62 32.7733 120.113 35.76C122.246 33.3333 123.886 30.8133 125.033 28.2C126.18 25.56 126.766 23.0933 126.793 20.8C126.793 19.1733 126.46 18.36 125.793 18.36ZM141.936 33.36C142.549 33.36 142.976 33.44 143.216 33.6C143.456 33.76 143.576 34.0267 143.576 34.4C143.576 35.04 143.229 37.32 142.536 41.24C141.922 45 141.562 47.2267 141.456 47.92C140.469 54.7733 139.109 60.2 137.376 64.2C135.642 68.2 133.336 70.2 130.456 70.2C129.096 70.2 127.989 69.7733 127.136 68.92C126.282 68.0933 125.856 67 125.856 65.64C125.856 64.3867 126.136 63.1067 126.696 61.8C127.282 60.4933 128.349 58.9867 129.896 57.28C131.469 55.6 133.682 53.6667 136.536 51.48L136.656 50.56C136.842 49.5733 137.056 48.16 137.296 46.32C136.762 48.24 136.016 49.7067 135.056 50.72C134.096 51.7067 133.082 52.2 132.016 52.2C130.816 52.2 129.829 51.6533 129.056 50.56C128.309 49.44 127.936 48.0533 127.936 46.4C127.936 44.4 128.069 42.5733 128.336 40.92C128.602 39.24 129.042 37.4667 129.656 35.6C129.922 34.8 130.296 34.2267 130.776 33.88C131.256 33.5333 132.016 33.36 133.056 33.36C133.642 33.36 134.042 33.4533 134.256 33.64C134.496 33.8267 134.616 34.1067 134.616 34.48C134.616 34.6933 134.469 35.4133 134.176 36.64C133.909 37.6267 133.696 38.52 133.536 39.32C133.322 40.4133 133.136 41.4667 132.976 42.48C132.816 43.4667 132.736 44.28 132.736 44.92C132.736 45.9333 133.016 46.44 133.576 46.44C133.976 46.44 134.469 46.04 135.056 45.24C135.669 44.44 136.309 43.2267 136.976 41.6C137.669 39.9733 138.336 37.9733 138.976 35.6C139.189 34.8 139.509 34.2267 139.936 33.88C140.389 33.5333 141.056 33.36 141.936 33.36ZM130.896 66.32C131.562 66.32 132.309 65.5467 133.136 64C133.962 62.4533 134.789 59.88 135.616 56.28C133.562 58.0133 132.069 59.5867 131.136 61C130.229 62.44 129.776 63.6933 129.776 64.76C129.776 65.2133 129.856 65.5867 130.016 65.88C130.202 66.1733 130.496 66.32 130.896 66.32Z" fill="#763B29"/>
<path d="M150 8.5C150.137 8.5 150.328 8.56965 150.58 8.80273C150.829 9.03355 151.091 9.38411 151.358 9.83887C151.891 10.7463 152.389 11.9766 152.817 13.2344C153.244 14.4867 153.594 15.7424 153.838 16.6865C153.96 17.1579 154.055 17.5508 154.119 17.8252C154.151 17.9624 154.176 18.0706 154.192 18.1436C154.201 18.1796 154.207 18.2071 154.211 18.2256C154.213 18.2349 154.215 18.2425 154.216 18.2471C154.216 18.2492 154.217 18.2509 154.217 18.252V18.2529H154.218L154.282 18.5498L154.575 18.6299H154.576C154.577 18.6302 154.58 18.6312 154.582 18.6318C154.587 18.6331 154.594 18.6352 154.603 18.6377C154.621 18.6429 154.65 18.6498 154.688 18.6602C154.762 18.6808 154.871 18.712 155.011 18.752C155.29 18.8319 155.689 18.9486 156.168 19.0957C157.127 19.3903 158.403 19.8051 159.676 20.2871C160.954 20.771 162.209 21.3153 163.137 21.8652C163.602 22.141 163.962 22.4053 164.2 22.6484C164.448 22.9013 164.5 23.0665 164.5 23.1475C164.5 23.2285 164.447 23.3931 164.2 23.6455C163.962 23.8886 163.602 24.1529 163.137 24.4287C162.209 24.9787 160.954 25.523 159.676 26.0068C158.403 26.4888 157.127 26.9037 156.168 27.1982C155.689 27.3453 155.29 27.462 155.011 27.542C154.871 27.582 154.762 27.6131 154.688 27.6338C154.65 27.6441 154.621 27.652 154.603 27.6572C154.593 27.6597 154.587 27.6618 154.582 27.6631C154.58 27.6637 154.577 27.6638 154.576 27.6641H154.575L154.279 27.7451L154.217 28.0449L154.216 28.0459C154.216 28.0469 154.215 28.0486 154.215 28.0508C154.214 28.0552 154.213 28.0623 154.211 28.0713C154.207 28.0892 154.201 28.1162 154.193 28.1514C154.178 28.222 154.155 28.3262 154.125 28.459C154.064 28.725 153.974 29.1062 153.858 29.5635C153.626 30.4793 153.29 31.697 152.873 32.9111C152.454 34.1309 151.963 35.322 151.426 36.1992C151.157 36.6383 150.89 36.9762 150.634 37.1992C150.378 37.4222 150.168 37.5 150 37.5C149.833 37.5 149.63 37.4239 149.384 37.2041C149.137 36.9833 148.881 36.6472 148.626 36.209C148.116 35.3335 147.661 34.1436 147.278 32.9238C146.898 31.7101 146.599 30.4929 146.394 29.5771C146.291 29.1202 146.213 28.7396 146.16 28.4736C146.134 28.3406 146.113 28.2357 146.1 28.165C146.093 28.1299 146.088 28.1028 146.085 28.085C146.083 28.0763 146.082 28.0698 146.081 28.0654C146.081 28.0635 146.081 28.0616 146.081 28.0605L146.08 28.0596V28.0586L146.022 27.7363L145.703 27.6602H145.701C145.7 27.6599 145.698 27.6597 145.696 27.6592C145.692 27.658 145.684 27.6556 145.675 27.6533C145.655 27.6487 145.626 27.6421 145.588 27.6328C145.512 27.6142 145.399 27.5861 145.256 27.5498C144.969 27.4773 144.559 27.371 144.066 27.2354C143.081 26.9638 141.769 26.5767 140.461 26.1133C139.147 25.648 137.859 25.1141 136.908 24.5527C136.432 24.2715 136.063 23.9964 135.819 23.7373C135.571 23.4738 135.5 23.2784 135.5 23.1475C135.5 23.0165 135.571 22.8204 135.819 22.5566C136.063 22.2977 136.432 22.0233 136.908 21.7422C137.859 21.1808 139.147 20.6459 140.461 20.1807C141.769 19.7173 143.081 19.3302 144.066 19.0586C144.559 18.9229 144.969 18.8167 145.256 18.7441C145.399 18.7079 145.512 18.6797 145.588 18.6611C145.626 18.6518 145.655 18.6453 145.675 18.6406C145.684 18.6383 145.692 18.6369 145.696 18.6357C145.698 18.6352 145.7 18.6341 145.701 18.6338H145.703L146.02 18.5586L146.08 18.2393V18.2383C146.08 18.2372 146.081 18.2356 146.081 18.2334C146.082 18.2289 146.083 18.222 146.085 18.2129C146.089 18.1944 146.093 18.1662 146.101 18.1299C146.115 18.0569 146.137 17.9487 146.165 17.8115C146.222 17.5373 146.305 17.1449 146.413 16.6738C146.63 15.7299 146.944 14.4746 147.334 13.2227C147.726 11.965 148.187 10.735 148.692 9.8291C148.946 9.37508 149.197 9.02659 149.438 8.79785C149.679 8.56779 149.865 8.5 150 8.5Z" fill="#F6CD8B" stroke="#B97532"/>
</svg>
