<svg width="1241" height="775" viewBox="0 0 1241 775" fill="none" xmlns="http://www.w3.org/2000/svg">
<path d="M620.5 0H1217C1230.25 0 1241 10.7452 1241 24V751C1241 764.255 1230.25 775 1217 775H620.5V0Z" fill="#814330"/>
<path d="M1209.3 11.625V12.625H1211.3C1211.93 12.625 1212.56 12.6552 1213.17 12.7148L1213.26 11.7207C1214.59 11.8495 1215.88 12.108 1217.11 12.4824L1216.82 13.4385C1218.02 13.8023 1219.17 14.2817 1220.26 14.8643L1220.73 13.9834C1221.89 14.6043 1222.98 15.3356 1223.99 16.1641L1223.36 16.9365C1224.32 17.7267 1225.2 18.6096 1225.99 19.5713L1226.76 18.9365C1227.59 19.9449 1228.32 21.0361 1228.95 22.1953L1228.07 22.668C1228.65 23.7556 1229.13 24.9065 1229.49 26.1074L1230.45 25.8174C1230.82 27.0534 1231.08 28.3396 1231.21 29.6641L1230.21 29.7607C1230.27 30.3738 1230.3 30.9957 1230.3 31.625V33.6348H1231.3V37.6553H1230.3V41.6758H1231.3V45.6963H1230.3V49.7158H1231.3V53.7363H1230.3V57.7568H1231.3V61.7773H1230.3V65.7979H1231.3V69.8184H1230.3V73.8389H1231.3V77.8594H1230.3V81.8789H1231.3V85.8994H1230.3V89.9199H1231.3V93.9404H1230.3V97.9609H1231.3V101.981H1230.3V106.002H1231.3V110.022H1230.3V114.042H1231.3V118.062H1230.3V122.083H1231.3V126.104H1230.3V130.124H1231.3V134.145H1230.3V138.165H1231.3V142.185H1230.3V146.205H1231.3V150.226H1230.3V154.246H1231.3V158.267H1230.3V162.287H1231.3V166.308H1230.3V170.328H1231.3V174.348H1230.3V178.368H1231.3V182.389H1230.3V186.409H1231.3V190.43H1230.3V194.45H1231.3V198.471H1230.3V202.491H1231.3V206.511H1230.3V210.531H1231.3V214.552H1230.3V218.572H1231.3V222.593H1230.3V226.613H1231.3V230.634H1230.3V234.654H1231.3V238.674H1230.3V242.694H1231.3V246.715H1230.3V250.735H1231.3V254.756H1230.3V258.776H1231.3V262.797H1230.3V266.816H1231.3V270.837H1230.3V274.857H1231.3V278.878H1230.3V282.898H1231.3V286.919H1230.3V290.938H1231.3V294.959H1230.3V298.979H1231.3V303H1230.3V307.021H1231.3V311.041H1230.3V315.061H1231.3V319.081H1230.3V323.102H1231.3V327.122H1230.3V331.143H1231.3V335.163H1230.3V339.184H1231.3V343.203H1230.3V347.224H1231.3V351.244H1230.3V355.265H1231.3V359.285H1230.3V363.306H1231.3V367.325H1230.3V371.346H1231.3V375.366H1230.3V379.387H1231.3V383.407H1230.3V387.428H1231.3V391.448H1230.3V395.468H1231.3V399.488H1230.3V403.509H1231.3V407.529H1230.3V411.55H1231.3V415.57H1230.3V419.59H1231.3V423.61H1230.3V427.631H1231.3V431.651H1230.3V435.672H1231.3V439.692H1230.3V443.712H1231.3V447.732H1230.3V451.753H1231.3V455.773H1230.3V459.794H1231.3V463.814H1230.3V467.835H1231.3V471.854H1230.3V475.875H1231.3V479.896H1230.3V483.916H1231.3V487.937H1230.3V491.957H1231.3V495.977H1230.3V499.997H1231.3V504.018H1230.3V508.038H1231.3V512.059H1230.3V516.079H1231.3V520.1H1230.3V524.12H1231.3V528.14H1230.3V532.16H1231.3V536.181H1230.3V540.201H1231.3V544.222H1230.3V548.242H1231.3V552.263H1230.3V556.282H1231.3V560.303H1230.3V564.323H1231.3V568.344H1230.3V572.364H1231.3V576.385H1230.3V580.405H1231.3V584.425H1230.3V588.445H1231.3V592.466H1230.3V596.486H1231.3V600.507H1230.3V604.527H1231.3V608.548H1230.3V612.567H1231.3V616.588H1230.3V620.608H1231.3V624.629H1230.3V628.649H1231.3V632.67H1230.3V636.69H1231.3V640.71H1230.3V644.73H1231.3V648.751H1230.3V652.771H1231.3V656.792H1230.3V660.812H1231.3V664.832H1230.3V668.853H1231.3V672.873H1230.3V676.894H1231.3V680.914H1230.3V684.935H1231.3V688.955H1230.3V692.975H1231.3V696.995H1230.3V701.016H1231.3V705.036H1230.3V709.057H1231.3V713.077H1230.3V717.098H1231.3V721.117H1230.3V725.138H1231.3V729.158H1230.3V733.179H1231.3V737.199H1230.3V741.22H1231.3V745.24H1230.3V747.25C1230.3 747.879 1230.27 748.501 1230.21 749.114L1231.21 749.21C1231.08 750.534 1230.82 751.821 1230.45 753.057L1229.49 752.768C1229.13 753.968 1228.65 755.119 1228.07 756.207L1228.95 756.679C1228.32 757.838 1227.59 758.929 1226.76 759.938L1225.99 759.304C1225.2 760.265 1224.32 761.148 1223.36 761.938L1223.99 762.71C1222.98 763.539 1221.89 764.27 1220.73 764.891L1220.26 764.011C1219.17 764.593 1218.02 765.073 1216.82 765.437L1217.11 766.392C1215.88 766.766 1214.59 767.024 1213.26 767.153L1213.17 766.16C1212.56 766.22 1211.93 766.25 1211.3 766.25H1209.3V767.25H1205.29V766.25H1201.27V767.25H1197.26V766.25H1193.25V767.25H1189.24V766.25H1185.22V767.25H1181.21V766.25H1177.2V767.25H1173.19V766.25H1169.18V767.25H1165.16V766.25H1161.15V767.25H1157.14V766.25H1153.13V767.25H1149.11V766.25H1145.1V767.25H1141.09V766.25H1137.08V767.25H1133.07V766.25H1129.05V767.25H1125.04V766.25H1121.03V767.25H1117.02V766.25H1113V767.25H1108.99V766.25H1104.98V767.25H1100.97V766.25H1096.95V767.25H1092.94V766.25H1088.93V767.25H1084.92V766.25H1080.91V767.25H1076.89V766.25H1072.88V767.25H1068.87V766.25H1064.86V767.25H1060.84V766.25H1056.83V767.25H1052.82V766.25H1048.81V767.25H1044.79V766.25H1040.78V767.25H1036.77V766.25H1032.76V767.25H1028.75V766.25H1024.73V767.25H1020.72V766.25H1016.71V767.25H1012.7V766.25H1008.68V767.25H1004.67V766.25H1000.66V767.25H996.647V766.25H992.636V767.25H988.623V766.25H984.611V767.25H980.599V766.25H976.587V767.25H972.574V766.25H968.562V767.25H964.55V766.25H960.537V767.25H956.525V766.25H952.513V767.25H948.501V766.25H944.488V767.25H940.477V766.25H936.464V767.25H932.451V766.25H928.439V767.25H924.427V766.25H920.415V767.25H916.402V766.25H912.391V767.25H908.378V766.25H904.365V767.25H900.354V766.25H896.341V767.25H892.329V766.25H888.316V767.25H884.305V766.25H880.292V767.25H876.279V766.25H872.268V767.25H868.255V766.25H864.243V767.25H860.23V766.25H856.219V767.25H852.206V766.25H848.193V767.25H844.182V766.25H840.169V767.25H836.157V766.25H832.145V767.25H828.132V766.25H824.12V767.25H820.107V766.25H816.096V767.25H812.083V766.25H808.071V767.25H804.059V766.25H800.046V767.25H796.034V766.25H792.021V767.25H788.01V766.25H783.997V767.25H779.985V766.25H775.973V767.25H771.96V766.25H767.948V767.25H763.936V766.25H759.924V767.25H755.911V766.25H751.899V767.25H747.887V766.25H743.874V767.25H739.862V766.25H735.85V767.25H731.838V766.25H727.825V767.25H723.813V766.25H719.801V767.25H715.788V766.25H711.776V767.25H707.764V766.25H703.752V767.25H699.739V766.25H695.728V767.25H691.715V766.25H687.702V767.25H683.69V766.25H679.678V767.25H675.666V766.25H671.653V767.25H667.642V766.25H663.629V767.25H659.616V766.25H655.604V767.25H651.592V766.25H650.586V765.241H649.586V761.222H650.586V757.202H649.586V753.184H650.586V749.164H649.586V745.145H650.586V741.125H649.586V737.106H650.586V733.087H649.586V729.067H650.586V725.048H649.586V721.029H650.586V717.01H649.586V712.99H650.586V708.971H649.586V704.952H650.586V700.933H649.586V696.913H650.586V692.894H649.586V688.875H650.586V684.855H649.586V680.836H650.586V676.816H649.586V672.798H650.586V668.778H649.586V664.759H650.586V660.739H649.586V656.721H650.586V652.701H649.586V648.682H650.586V644.662H649.586V640.644H650.586V636.624H649.586V632.604H650.586V628.585H649.586V624.566H650.586V620.547H649.586V616.527H650.586V612.508H649.586V608.489H650.586V604.47H649.586V600.45H650.586V596.431H649.586V592.412H650.586V588.393H649.586V584.373H650.586V580.354H649.586V576.335H650.586V572.315H649.586V568.296H650.586V564.276H649.586V560.258H650.586V556.238H649.586V552.219H650.586V548.199H649.586V544.181H650.586V540.161H649.586V536.142H650.586V532.122H649.586V528.104H650.586V524.084H649.586V520.064H650.586V516.045H649.586V512.026H650.586V508.007H649.586V503.987H650.586V499.968H649.586V495.949H650.586V491.93H649.586V487.91H650.586V483.891H649.586V479.872H650.586V475.853H649.586V471.833H650.586V467.813H649.586V463.795H650.586V459.775H649.586V455.756H650.586V451.736H649.586V447.718H650.586V443.698H649.586V439.679H650.586V435.659H649.586V431.641H650.586V427.621H649.586V423.602H650.586V419.582H649.586V415.563H650.586V411.544H649.586V407.524H650.586V403.505H649.586V399.486H650.586V395.467H649.586V391.447H650.586V387.428H649.586V383.409H650.586V379.39H649.586V375.37H650.586V371.351H649.586V367.332H650.586V363.312H649.586V359.293H650.586V355.273H649.586V351.255H650.586V347.235H649.586V343.216H650.586V339.196H649.586V335.178H650.586V331.158H649.586V327.139H650.586V323.119H649.586V319.101H650.586V315.081H649.586V311.062H650.586V307.042H649.586V303.023H650.586V299.004H649.586V294.984H650.586V290.965H649.586V286.946H650.586V282.927H649.586V278.907H650.586V274.888H649.586V270.869H650.586V266.85H649.586V262.83H650.586V258.811H649.586V254.792H650.586V250.772H649.586V246.753H650.586V242.733H649.586V238.715H650.586V234.695H649.586V230.676H650.586V226.656H649.586V222.638H650.586V218.618H649.586V214.599H650.586V210.579H649.586V206.561H650.586V202.541H649.586V198.521H650.586V194.502H649.586V190.483H650.586V186.464H649.586V182.444H650.586V178.425H649.586V174.406H650.586V170.387H649.586V166.367H650.586V162.348H649.586V158.329H650.586V154.31H649.586V150.29H650.586V146.271H649.586V142.252H650.586V138.232H649.586V134.213H650.586V130.193H649.586V126.175H650.586V122.155H649.586V118.136H650.586V114.116H649.586V110.098H650.586V106.078H649.586V102.059H650.586V98.04H649.586V94.0205H650.586V90.001H649.586V85.9814H650.586V81.9629H649.586V77.9434H650.586V73.9238H649.586V69.9043H650.586V65.8857H649.586V61.8662H650.586V57.8467H649.586V53.8271H650.586V49.8086H649.586V45.7891H650.586V41.7695H649.586V37.75H650.586V33.7314H649.586V29.7119H650.586V25.6924H649.586V21.6729H650.586V17.6543H649.586V13.6348H650.586V12.625H651.593V11.625H655.604V12.625H659.617V11.625H663.629V12.625H667.642V11.625H671.654V12.625H675.666V11.625H679.679V12.625H683.69V11.625H687.703V12.625H691.715V11.625H695.728V12.625H699.74V11.625H703.752V12.625H707.765V11.625H711.776V12.625H715.789V11.625H719.801V12.625H723.813V11.625H727.825V12.625H731.838V11.625H735.851V12.625H739.862V11.625H743.875V12.625H747.887V11.625H751.899V12.625H755.911V11.625H759.924V12.625H763.937V11.625H767.948V12.625H771.961V11.625H775.973V12.625H779.985V11.625H783.997V12.625H788.01V11.625H792.021V12.625H796.034V11.625H800.047V12.625H804.059V11.625H808.071V12.625H812.083V11.625H816.096V12.625H820.107V11.625H824.12V12.625H828.133V11.625H832.145V12.625H836.157V11.625H840.169V12.625H844.182V11.625H848.193V12.625H852.206V11.625H856.218V12.625H860.23V11.625H864.243V12.625H868.255V11.625H872.268V12.625H876.279V11.625H880.292V12.625H884.304V11.625H888.316V12.625H892.329V11.625H896.341V12.625H900.354V11.625H904.365V12.625H908.378V11.625H912.39V12.625H916.402V11.625H920.414V12.625H924.427V11.625H928.439V12.625H932.451V11.625H936.464V12.625H940.476V11.625H944.488V12.625H948.5V11.625H952.513V12.625H956.525V11.625H960.537V12.625H964.55V11.625H968.562V12.625H972.574V11.625H976.586V12.625H980.599V11.625H984.611V12.625H988.623V11.625H992.636V12.625H996.647V11.625H1000.66V12.625H1004.67V11.625H1008.68V12.625H1012.7V11.625H1016.71V12.625H1020.72V11.625H1024.73V12.625H1028.75V11.625H1032.76V12.625H1036.77V11.625H1040.78V12.625H1044.79V11.625H1048.81V12.625H1052.82V11.625H1056.83V12.625H1060.84V11.625H1064.86V12.625H1068.87V11.625H1072.88V12.625H1076.89V11.625H1080.91V12.625H1084.92V11.625H1088.93V12.625H1092.94V11.625H1096.96V12.625H1100.97V11.625H1104.98V12.625H1108.99V11.625H1113V12.625H1117.02V11.625H1121.03V12.625H1125.04V11.625H1129.05V12.625H1133.07V11.625H1137.08V12.625H1141.09V11.625H1145.1V12.625H1149.11V11.625H1153.13V12.625H1157.14V11.625H1161.15V12.625H1165.16V11.625H1169.18V12.625H1173.19V11.625H1177.2V12.625H1181.21V11.625H1185.22V12.625H1189.24V11.625H1193.25V12.625H1197.26V11.625H1201.27V12.625H1205.29V11.625H1209.3Z" fill="#814330" stroke="#DD954D" stroke-width="2" stroke-dasharray="4 4"/>
<path d="M0 24C0 10.7451 10.7452 0 24 0H620.5V775H24C10.7452 775 0 764.255 0 751V24Z" fill="#814330"/>
<path d="M589.408 11.625V12.625H590.414V13.6338H591.414V17.6533H590.414V21.6729H591.414V25.6914H590.414V29.7109H591.414V33.7305H590.414V37.75H591.414V41.7686H590.414V45.7881H591.414V49.8076H590.414V53.8271H591.414V57.8457H590.414V61.8652H591.414V65.8848H590.414V69.9043H591.414V73.9229H590.414V77.9424H591.414V81.9619H590.414V85.9814H591.414V90H590.414V94.0195H591.414V98.0391H590.414V102.059H591.414V106.077H590.414V110.097H591.414V114.116H590.414V118.136H591.414V122.154H590.414V126.174H591.414V130.193H590.414V134.213H591.414V138.231H590.414V142.251H591.414V146.271H590.414V150.29H591.414V154.309H590.414V158.328H591.414V162.348H590.414V166.367H591.414V170.386H590.414V174.405H591.414V178.425H590.414V182.444H591.414V186.463H590.414V190.482H591.414V194.502H590.414V198.521H591.414V202.54H590.414V206.56H591.414V210.579H590.414V214.599H591.414V218.617H590.414V222.637H591.414V226.656H590.414V230.676H591.414V234.694H590.414V238.714H591.414V242.733H590.414V246.753H591.414V250.771H590.414V254.791H591.414V258.811H590.414V262.83H591.414V266.849H590.414V270.868H591.414V274.888H590.414V278.907H591.414V282.926H590.414V286.945H591.414V290.965H590.414V294.984H591.414V299.003H590.414V303.022H591.414V307.042H590.414V311.062H591.414V315.08H590.414V319.1H591.414V323.119H590.414V327.139H591.414V331.157H590.414V335.177H591.414V339.196H590.414V343.216H591.414V347.234H590.414V351.254H591.414V355.273H590.414V359.293H591.414V363.312H590.414V367.331H591.414V371.351H590.414V375.37H591.414V379.389H590.414V383.408H591.414V387.428H590.414V391.447H591.414V395.466H590.414V399.485H591.414V403.505H590.414V407.524H591.414V411.543H590.414V415.562H591.414V419.582H590.414V423.602H591.414V427.62H590.414V431.64H591.414V435.659H590.414V439.679H591.414V443.697H590.414V447.717H591.414V451.736H590.414V455.756H591.414V459.774H590.414V463.794H591.414V467.813H590.414V471.833H591.414V475.852H590.414V479.871H591.414V483.891H590.414V487.91H591.414V491.929H590.414V495.948H591.414V499.968H590.414V503.987H591.414V508.006H590.414V512.025H591.414V516.045H590.414V520.064H591.414V524.083H590.414V528.103H591.414V532.122H590.414V536.142H591.414V540.16H590.414V544.18H591.414V548.199H590.414V552.219H591.414V556.237H590.414V560.257H591.414V564.276H590.414V568.296H591.414V572.314H590.414V576.334H591.414V580.354H590.414V584.373H591.414V588.392H590.414V592.411H591.414V596.431H590.414V600.45H591.414V604.469H590.414V608.488H591.414V612.508H590.414V616.527H591.414V620.546H590.414V624.565H591.414V628.585H590.414V632.604H591.414V636.623H590.414V640.643H591.414V644.662H590.414V648.682H591.414V652.7H590.414V656.72H591.414V660.739H590.414V664.759H591.414V668.777H590.414V672.797H591.414V676.816H590.414V680.835H591.414V684.854H590.414V688.874H591.414V692.894H590.414V696.912H591.414V700.932H590.414V704.951H591.414V708.971H590.414V712.989H591.414V717.009H590.414V721.028H591.414V725.048H590.414V729.066H591.414V733.086H590.414V737.105H591.414V741.125H590.414V745.144H591.414V749.163H590.414V753.183H591.414V757.202H590.414V761.221H591.414V765.24H590.414V766.25H589.407V767.25H585.396V766.25H581.383V767.25H577.371V766.25H573.358V767.25H569.346V766.25H565.334V767.25H561.321V766.25H557.31V767.25H553.297V766.25H549.285V767.25H545.272V766.25H541.26V767.25H537.248V766.25H533.235V767.25H529.224V766.25H525.211V767.25H521.199V766.25H517.187V767.25H513.175V766.25H509.162V767.25H505.149V766.25H501.138V767.25H497.125V766.25H493.113V767.25H489.101V766.25H485.089V767.25H481.076V766.25H477.063V767.25H473.052V766.25H469.039V767.25H465.027V766.25H461.015V767.25H457.003V766.25H452.99V767.25H448.979V766.25H444.966V767.25H440.953V766.25H436.941V767.25H432.929V766.25H428.917V767.25H424.904V766.25H420.893V767.25H416.88V766.25H412.867V767.25H408.855V766.25H404.843V767.25H400.831V766.25H396.818V767.25H392.807V766.25H388.794V767.25H384.782V766.25H380.77V767.25H376.757V766.25H372.745V767.25H368.732V766.25H364.721V767.25H360.708V766.25H356.696V767.25H352.684V766.25H348.671V767.25H344.659V766.25H340.646V767.25H336.635V766.25H332.622V767.25H328.61V766.25H324.598V767.25H320.586V766.25H316.573V767.25H312.561V766.25H308.549V767.25H304.536V766.25H300.524V767.25H296.512V766.25H292.5V767.25H288.487V766.25H284.475V767.25H280.463V766.25H276.45V767.25H272.438V766.25H268.426V767.25H264.414V766.25H260.401V767.25H256.389V766.25H252.377V767.25H248.364V766.25H244.353V767.25H240.34V766.25H236.328V767.25H232.315V766.25H228.303V767.25H224.291V766.25H220.278V767.25H216.267V766.25H212.254V767.25H208.241V766.25H204.229V767.25H200.217V766.25H196.205V767.25H192.192V766.25H188.181V767.25H184.168V766.25H180.155V767.25H176.144V766.25H172.131V767.25H168.119V766.25H164.106V767.25H160.095V766.25H156.082V767.25H152.069V766.25H148.058V767.25H144.045V766.25H140.033V767.25H136.021V766.25H132.009V767.25H127.996V766.25H123.983V767.25H119.972V766.25H115.959V767.25H111.947V766.25H107.935V767.25H103.923V766.25H99.9102V767.25H95.8975V766.25H91.8857V767.25H87.873V766.25H83.8613V767.25H79.8486V766.25H75.8369V767.25H71.8242V766.25H67.8115V767.25H63.7998V766.25H59.7871V767.25H55.7754V766.25H51.7627V767.25H47.751V766.25H43.7383V767.25H39.7256V766.25H35.7139V767.25H31.7012V766.25H29.6953C29.066 766.25 28.4441 766.22 27.8311 766.16L27.7344 767.153C26.4099 767.024 25.1237 766.766 23.8877 766.392L24.1777 765.437C22.9768 765.073 21.8259 764.593 20.7383 764.011L20.2656 764.891C19.1064 764.27 18.0152 763.539 17.0068 762.71L17.6416 761.938C16.6799 761.148 15.797 760.265 15.0068 759.304L14.2344 759.938C13.4059 758.929 12.6746 757.838 12.0537 756.679L12.9346 756.207C12.352 755.119 11.8726 753.968 11.5088 752.768L10.5527 753.057C10.1783 751.821 9.91984 750.534 9.79102 749.21L10.7852 749.114C10.7255 748.501 10.6953 747.879 10.6953 747.25V745.24H9.69531V741.22H10.6953V737.199H9.69531V733.179H10.6953V729.159H9.69531V725.139H10.6953V721.118H9.69531V717.098H10.6953V713.077H9.69531V709.057H10.6953V705.036H9.69531V701.016H10.6953V696.996H9.69531V692.976H10.6953V688.955H9.69531V684.935H10.6953V680.914H9.69531V676.894H10.6953V672.873H9.69531V668.853H10.6953V664.833H9.69531V660.812H10.6953V656.792H9.69531V652.771H10.6953V648.751H9.69531V644.73H10.6953V640.71H9.69531V636.69H10.6953V632.67H9.69531V628.649H10.6953V624.629H9.69531V620.608H10.6953V616.588H9.69531V612.567H10.6953V608.547H9.69531V604.527H10.6953V600.507H9.69531V596.486H10.6953V592.466H9.69531V588.445H10.6953V584.425H9.69531V580.404H10.6953V576.384H9.69531V572.364H10.6953V568.344H9.69531V564.323H10.6953V560.303H9.69531V556.282H10.6953V552.262H9.69531V548.241H10.6953V544.221H9.69531V540.201H10.6953V536.181H9.69531V532.16H10.6953V528.14H9.69531V524.119H10.6953V520.099H9.69531V516.078H10.6953V512.059H9.69531V508.038H10.6953V504.018H9.69531V499.997H10.6953V495.977H9.69531V491.956H10.6953V487.937H9.69531V483.916H10.6953V479.896H9.69531V475.875H10.6953V471.854H9.69531V467.834H10.6953V463.814H9.69531V459.794H10.6953V455.773H9.69531V451.753H10.6953V447.732H9.69531V443.712H10.6953V439.691H9.69531V435.672H10.6953V431.651H9.69531V427.631H10.6953V423.61H9.69531V419.59H10.6953V415.569H9.69531V411.55H10.6953V407.529H9.69531V403.509H10.6953V399.488H9.69531V395.468H10.6953V391.447H9.69531V387.427H10.6953V383.407H9.69531V379.387H10.6953V375.366H9.69531V371.346H10.6953V367.325H9.69531V363.305H10.6953V359.285H9.69531V355.265H10.6953V351.244H9.69531V347.224H10.6953V343.203H9.69531V339.183H10.6953V335.163H9.69531V331.143H10.6953V327.122H9.69531V323.102H10.6953V319.081H9.69531V315.061H10.6953V311.04H9.69531V307.021H10.6953V303H9.69531V298.979H10.6953V294.959H9.69531V290.938H10.6953V286.918H9.69531V282.898H10.6953V278.878H9.69531V274.857H10.6953V270.837H9.69531V266.816H10.6953V262.796H9.69531V258.775H10.6953V254.755H9.69531V250.735H10.6953V246.715H9.69531V242.694H10.6953V238.674H9.69531V234.653H10.6953V230.633H9.69531V226.612H10.6953V222.593H9.69531V218.572H10.6953V214.552H9.69531V210.531H10.6953V206.511H9.69531V202.49H10.6953V198.47H9.69531V194.45H10.6953V190.43H9.69531V186.409H10.6953V182.389H9.69531V178.368H10.6953V174.348H9.69531V170.327H10.6953V166.308H9.69531V162.287H10.6953V158.267H9.69531V154.246H10.6953V150.226H9.69531V146.205H10.6953V142.185H9.69531V138.165H10.6953V134.145H9.69531V130.124H10.6953V126.104H9.69531V122.083H10.6953V118.062H9.69531V114.043H10.6953V110.022H9.69531V106.002H10.6953V101.981H9.69531V97.9609H10.6953V93.9404H9.69531V89.9199H10.6953V85.9004H9.69531V81.8799H10.6953V77.8594H9.69531V73.8389H10.6953V69.8184H9.69531V65.7979H10.6953V61.7773H9.69531V57.7578H10.6953V53.7373H9.69531V49.7168H10.6953V45.6963H9.69531V41.6758H10.6953V37.6553H9.69531V33.6348H10.6953V31.625C10.6953 30.9957 10.7255 30.3738 10.7852 29.7607L9.79102 29.6641C9.9199 28.3397 10.1783 27.0533 10.5527 25.8174L11.5088 26.1074C11.8726 24.9065 12.352 23.7556 12.9346 22.668L12.0537 22.1953C12.6746 21.0361 13.4059 19.9449 14.2344 18.9365L15.0068 19.5713C15.797 18.6096 16.6799 17.7267 17.6416 16.9365L17.0068 16.1641C18.0152 15.3355 19.1065 14.6043 20.2656 13.9834L20.7383 14.8643C21.8259 14.2817 22.9768 13.8023 24.1777 13.4385L23.8877 12.4824C25.1237 12.1079 26.41 11.8496 27.7344 11.7207L27.8311 12.7148C28.4441 12.6552 29.066 12.625 29.6953 12.625H31.7021V11.625H35.7139V12.625H39.7266V11.625H43.7383V12.625H47.751V11.625H51.7637V12.625H55.7754V11.625H59.7881V12.625H63.7998V11.625H67.8125V12.625H71.8242V11.625H75.8369V12.625H79.8496V11.625H83.8613V12.625H87.874V11.625H91.8857V12.625H95.8984V11.625H99.9102V12.625H103.923V11.625H107.935V12.625H111.947V11.625H115.96V12.625H119.972V11.625H123.984V12.625H127.996V11.625H132.009V12.625H136.021V11.625H140.033V12.625H144.046V11.625H148.058V12.625H152.07V11.625H156.082V12.625H160.095V11.625H164.106V12.625H168.119V11.625H172.131V12.625H176.144V11.625H180.156V12.625H184.168V11.625H188.181V12.625H192.192V11.625H196.205V12.625H200.217V11.625H204.229V12.625H208.242V11.625H212.254V12.625H216.267V11.625H220.278V12.625H224.291V11.625H228.303V12.625H232.315V11.625H236.327V12.625H240.34V11.625H244.353V12.625H248.364V11.625H252.377V12.625H256.389V11.625H260.401V12.625H264.413V11.625H268.426V12.625H272.438V11.625H276.45V12.625H280.463V11.625H284.475V12.625H288.487V11.625H292.499V12.625H296.512V11.625H300.523V12.625H304.536V11.625H308.549V12.625H312.561V11.625H316.573V12.625H320.585V11.625H324.598V12.625H328.609V11.625H332.622V12.625H336.635V11.625H340.646V12.625H344.659V11.625H348.671V12.625H352.684V11.625H356.695V12.625H360.708V11.625H364.721V12.625H368.732V11.625H372.745V12.625H376.757V11.625H380.77V12.625H384.781V11.625H388.794V12.625H392.807V11.625H396.818V12.625H400.831V11.625H404.843V12.625H408.855V11.625H412.868V12.625H416.88V11.625H420.893V12.625H424.904V11.625H428.917V12.625H432.929V11.625H436.941V12.625H440.954V11.625H444.966V12.625H448.979V11.625H452.99V12.625H457.003V11.625H461.015V12.625H465.027V11.625H469.04V12.625H473.052V11.625H477.064V12.625H481.076V11.625H485.089V12.625H489.101V11.625H493.113V12.625H497.126V11.625H501.138V12.625H505.15V11.625H509.162V12.625H513.175V11.625H517.187V12.625H521.199V11.625H525.212V12.625H529.224V11.625H533.236V12.625H537.248V11.625H541.261V12.625H545.272V11.625H549.285V12.625H553.298V11.625H557.31V12.625H561.322V11.625H565.334V12.625H569.347V11.625H573.358V12.625H577.371V11.625H581.384V12.625H585.396V11.625H589.408Z" fill="#814330" stroke="#DD954D" stroke-width="2" stroke-dasharray="4 4"/>
<rect x="590.475" y="12.625" width="60.05" height="753.625" stroke="#DD954D" stroke-width="2" stroke-dasharray="4 4"/>
<g filter="url(#filter0_d_65_1885)">
<path d="M620.5 33.9062C620.5 33.9062 795.544 30.0312 911.782 30.0312C1003.03 30.0312 1138.35 32.4191 1192.33 33.4459C1205.39 33.6943 1215.79 44.3542 1215.79 57.4161V734.013C1215.79 747.469 1204.78 758.299 1191.33 758.036C1137.91 756.992 1008.39 754.656 918.146 754.656C801.908 754.656 620.5 758.531 620.5 758.531V33.9062Z" fill="url(#paint0_linear_65_1885)"/>
<path d="M25.2078 57.3991C25.2078 44.344 35.6417 33.6864 48.6943 33.4306C101.498 32.3956 232.058 30.0312 322.854 30.0312C439.092 30.0312 620.5 33.9062 620.5 33.9062V758.531C620.5 758.531 439.092 754.656 322.854 754.656C232.613 754.656 103.094 756.992 49.6726 758.036C36.2197 758.299 25.2078 747.469 25.2078 734.013V57.3991Z" fill="url(#paint1_linear_65_1885)"/>
</g>
<g filter="url(#filter1_d_65_1885)">
<path d="M620.5 31.9688C620.5 31.9688 795.259 28.0938 911.308 28.0938C1002.38 28.0938 1137.44 30.4804 1191.36 31.5076C1204.42 31.7564 1214.82 42.4162 1214.82 55.4778V732.075C1214.82 745.531 1203.81 756.362 1190.36 756.098C1137 755.053 1007.73 752.719 917.661 752.719C801.613 752.719 620.5 756.594 620.5 756.594V31.9688Z" fill="url(#paint2_linear_65_1885)"/>
<path d="M26.1774 55.4608C26.1774 42.406 36.6088 31.7486 49.6611 31.4924C102.401 30.457 232.711 28.0938 323.339 28.0938C439.387 28.0938 620.5 31.9688 620.5 31.9688V756.594C620.5 756.594 439.387 752.719 323.339 752.719C233.267 752.719 104 755.053 50.6416 756.098C37.1884 756.362 26.1774 745.531 26.1774 732.075V55.4608Z" fill="url(#paint3_linear_65_1885)"/>
</g>
<g filter="url(#filter2_d_65_1885)">
<path d="M620.5 30.0312C620.5 30.0312 794.974 26.1562 910.833 26.1562C1001.74 26.1562 1136.54 28.5417 1190.39 29.5694C1203.45 29.8186 1213.85 40.4783 1213.85 53.5395V730.136C1213.85 743.593 1202.84 754.424 1189.39 754.16C1136.09 753.114 1007.08 750.781 917.177 750.781C801.317 750.781 620.5 755.625 620.5 755.625V30.0312Z" fill="url(#paint4_linear_65_1885)"/>
<path d="M27.1469 53.5224C27.1469 40.468 37.5758 29.8108 50.6277 29.5542C103.305 28.5185 233.363 26.1562 323.823 26.1562C439.683 26.1562 620.5 30.0312 620.5 30.0312V755.625C620.5 755.625 439.683 750.781 323.823 750.781C233.921 750.781 104.907 753.114 51.6106 754.16C38.157 754.424 27.1469 743.593 27.1469 730.136V53.5224Z" fill="url(#paint5_linear_65_1885)"/>
</g>
<g filter="url(#filter3_d_65_1885)">
<path d="M620.5 28.0938C620.5 28.0938 794.689 24.2188 910.359 24.2188C1001.09 24.2188 1135.63 26.6031 1189.42 27.6311C1202.47 27.8807 1212.88 38.5403 1212.88 51.6012V728.198C1212.88 741.654 1201.87 752.486 1188.42 752.222C1135.19 751.176 1006.43 748.844 916.692 748.844C801.022 748.844 620.5 754.656 620.5 754.656V28.0938Z" fill="url(#paint6_linear_65_1885)"/>
<path d="M28.1165 51.5841C28.1165 38.53 38.5429 27.873 51.5945 27.616C104.208 26.5799 234.016 24.2188 324.308 24.2188C439.978 24.2188 620.5 28.0938 620.5 28.0938V754.656C620.5 754.656 439.978 748.844 324.308 748.844C234.575 748.844 105.813 751.176 52.5796 752.222C39.1258 752.486 28.1165 741.654 28.1165 728.198V51.5841Z" fill="url(#paint7_linear_65_1885)"/>
</g>
<g filter="url(#filter4_d_65_1885)">
<path d="M620.5 27.125C620.5 27.125 794.404 22.2812 909.884 22.2812C1000.45 22.2812 1134.72 24.6644 1188.45 25.6929C1201.5 25.9428 1211.91 36.6023 1211.91 49.6629V726.26C1211.91 739.716 1200.91 750.548 1187.45 750.283C1134.28 749.237 1005.77 746.906 916.207 746.906C800.726 746.906 620.5 753.688 620.5 753.688V27.125Z" fill="url(#paint8_linear_65_1885)"/>
<path d="M29.0859 49.6458C29.0859 36.592 39.5099 25.9352 52.5612 25.6778C105.112 24.6413 234.669 22.2812 324.793 22.2812C440.274 22.2812 620.5 27.125 620.5 27.125V753.688C620.5 753.688 440.274 746.906 324.793 746.906C235.229 746.906 106.719 749.237 53.5486 750.283C40.0944 750.548 29.0859 739.716 29.0859 726.26V49.6458Z" fill="url(#paint9_linear_65_1885)"/>
</g>
<g filter="url(#filter5_d_65_1885)">
<path d="M620.5 27.125C620.5 27.125 794.118 20.3438 909.41 20.3438C999.802 20.3438 1133.81 22.7257 1187.47 23.7546C1200.53 24.0049 1210.94 34.6643 1210.94 47.7246V724.321C1210.94 737.778 1199.94 748.61 1186.48 748.345C1133.38 747.298 1005.12 744.969 915.722 744.969C800.431 744.969 620.5 752.719 620.5 752.719V27.125Z" fill="url(#paint10_linear_65_1885)"/>
<path d="M30.0554 47.7074C30.0554 34.654 40.477 23.9974 53.5279 23.7396C106.016 22.7028 235.322 20.3438 325.278 20.3438C440.569 20.3438 620.5 27.125 620.5 27.125V752.719C620.5 752.719 440.569 744.969 325.278 744.969C235.883 744.969 107.625 747.298 54.5176 748.345C41.0631 748.61 30.0554 737.778 30.0554 724.321V47.7074Z" fill="url(#paint11_linear_65_1885)"/>
</g>
<g filter="url(#filter6_d_65_1885)">
<path d="M620.5 27.125C620.5 27.125 793.833 18.4062 908.936 18.4062C999.157 18.4062 1132.9 20.7871 1186.5 21.8163C1199.56 22.0671 1209.97 32.7263 1209.97 45.7863V722.383C1209.97 735.84 1198.97 746.672 1185.51 746.407C1132.47 745.36 1004.46 743.031 915.237 743.031C800.135 743.031 620.5 751.75 620.5 751.75V27.125Z" fill="url(#paint12_linear_65_1885)"/>
<path d="M31.025 45.7818C31.025 32.7287 41.4442 22.0723 54.4948 21.8141C106.919 20.7769 235.975 18.419 325.763 18.419C440.865 18.419 620.5 27.125 620.5 27.125V751.75C620.5 751.75 440.865 743.044 325.763 743.044C236.536 743.044 108.531 745.373 55.4868 746.42C42.032 746.685 31.025 735.853 31.025 722.396V45.7818Z" fill="url(#paint13_linear_65_1885)"/>
</g>
<defs>
<filter id="filter0_d_65_1885" x="21.2078" y="30.0312" width="1198.58" height="736.5" filterUnits="userSpaceOnUse" color-interpolation-filters="sRGB">
<feFlood flood-opacity="0" result="BackgroundImageFix"/>
<feColorMatrix in="SourceAlpha" type="matrix" values="0 0 0 0 0 0 0 0 0 0 0 0 0 0 0 0 0 0 127 0" result="hardAlpha"/>
<feOffset dy="4"/>
<feGaussianBlur stdDeviation="2"/>
<feComposite in2="hardAlpha" operator="out"/>
<feColorMatrix type="matrix" values="0 0 0 0 0.225962 0 0 0 0 0.112874 0 0 0 0 0.0782175 0 0 0 0.3 0"/>
<feBlend mode="normal" in2="BackgroundImageFix" result="effect1_dropShadow_65_1885"/>
<feBlend mode="normal" in="SourceGraphic" in2="effect1_dropShadow_65_1885" result="shape"/>
</filter>
<filter id="filter1_d_65_1885" x="22.1774" y="28.0938" width="1196.65" height="736.5" filterUnits="userSpaceOnUse" color-interpolation-filters="sRGB">
<feFlood flood-opacity="0" result="BackgroundImageFix"/>
<feColorMatrix in="SourceAlpha" type="matrix" values="0 0 0 0 0 0 0 0 0 0 0 0 0 0 0 0 0 0 127 0" result="hardAlpha"/>
<feOffset dy="4"/>
<feGaussianBlur stdDeviation="2"/>
<feComposite in2="hardAlpha" operator="out"/>
<feColorMatrix type="matrix" values="0 0 0 0 0.225962 0 0 0 0 0.112874 0 0 0 0 0.0782175 0 0 0 0.3 0"/>
<feBlend mode="normal" in2="BackgroundImageFix" result="effect1_dropShadow_65_1885"/>
<feBlend mode="normal" in="SourceGraphic" in2="effect1_dropShadow_65_1885" result="shape"/>
</filter>
<filter id="filter2_d_65_1885" x="23.1469" y="26.1562" width="1194.71" height="737.469" filterUnits="userSpaceOnUse" color-interpolation-filters="sRGB">
<feFlood flood-opacity="0" result="BackgroundImageFix"/>
<feColorMatrix in="SourceAlpha" type="matrix" values="0 0 0 0 0 0 0 0 0 0 0 0 0 0 0 0 0 0 127 0" result="hardAlpha"/>
<feOffset dy="4"/>
<feGaussianBlur stdDeviation="2"/>
<feComposite in2="hardAlpha" operator="out"/>
<feColorMatrix type="matrix" values="0 0 0 0 0.225962 0 0 0 0 0.112874 0 0 0 0 0.0782175 0 0 0 0.3 0"/>
<feBlend mode="normal" in2="BackgroundImageFix" result="effect1_dropShadow_65_1885"/>
<feBlend mode="normal" in="SourceGraphic" in2="effect1_dropShadow_65_1885" result="shape"/>
</filter>
<filter id="filter3_d_65_1885" x="24.1165" y="24.2188" width="1192.77" height="738.438" filterUnits="userSpaceOnUse" color-interpolation-filters="sRGB">
<feFlood flood-opacity="0" result="BackgroundImageFix"/>
<feColorMatrix in="SourceAlpha" type="matrix" values="0 0 0 0 0 0 0 0 0 0 0 0 0 0 0 0 0 0 127 0" result="hardAlpha"/>
<feOffset dy="4"/>
<feGaussianBlur stdDeviation="2"/>
<feComposite in2="hardAlpha" operator="out"/>
<feColorMatrix type="matrix" values="0 0 0 0 0.225962 0 0 0 0 0.112874 0 0 0 0 0.0782175 0 0 0 0.3 0"/>
<feBlend mode="normal" in2="BackgroundImageFix" result="effect1_dropShadow_65_1885"/>
<feBlend mode="normal" in="SourceGraphic" in2="effect1_dropShadow_65_1885" result="shape"/>
</filter>
<filter id="filter4_d_65_1885" x="25.0859" y="22.2812" width="1190.83" height="739.406" filterUnits="userSpaceOnUse" color-interpolation-filters="sRGB">
<feFlood flood-opacity="0" result="BackgroundImageFix"/>
<feColorMatrix in="SourceAlpha" type="matrix" values="0 0 0 0 0 0 0 0 0 0 0 0 0 0 0 0 0 0 127 0" result="hardAlpha"/>
<feOffset dy="4"/>
<feGaussianBlur stdDeviation="2"/>
<feComposite in2="hardAlpha" operator="out"/>
<feColorMatrix type="matrix" values="0 0 0 0 0.225962 0 0 0 0 0.112874 0 0 0 0 0.0782175 0 0 0 0.3 0"/>
<feBlend mode="normal" in2="BackgroundImageFix" result="effect1_dropShadow_65_1885"/>
<feBlend mode="normal" in="SourceGraphic" in2="effect1_dropShadow_65_1885" result="shape"/>
</filter>
<filter id="filter5_d_65_1885" x="26.0554" y="20.3438" width="1188.89" height="740.375" filterUnits="userSpaceOnUse" color-interpolation-filters="sRGB">
<feFlood flood-opacity="0" result="BackgroundImageFix"/>
<feColorMatrix in="SourceAlpha" type="matrix" values="0 0 0 0 0 0 0 0 0 0 0 0 0 0 0 0 0 0 127 0" result="hardAlpha"/>
<feOffset dy="4"/>
<feGaussianBlur stdDeviation="2"/>
<feComposite in2="hardAlpha" operator="out"/>
<feColorMatrix type="matrix" values="0 0 0 0 0.225962 0 0 0 0 0.112874 0 0 0 0 0.0782175 0 0 0 0.3 0"/>
<feBlend mode="normal" in2="BackgroundImageFix" result="effect1_dropShadow_65_1885"/>
<feBlend mode="normal" in="SourceGraphic" in2="effect1_dropShadow_65_1885" result="shape"/>
</filter>
<filter id="filter6_d_65_1885" x="27.025" y="18.4062" width="1186.95" height="741.344" filterUnits="userSpaceOnUse" color-interpolation-filters="sRGB">
<feFlood flood-opacity="0" result="BackgroundImageFix"/>
<feColorMatrix in="SourceAlpha" type="matrix" values="0 0 0 0 0 0 0 0 0 0 0 0 0 0 0 0 0 0 127 0" result="hardAlpha"/>
<feOffset dy="4"/>
<feGaussianBlur stdDeviation="2"/>
<feComposite in2="hardAlpha" operator="out"/>
<feColorMatrix type="matrix" values="0 0 0 0 0.225962 0 0 0 0 0.112874 0 0 0 0 0.0782175 0 0 0 0.3 0"/>
<feBlend mode="normal" in2="BackgroundImageFix" result="effect1_dropShadow_65_1885"/>
<feBlend mode="normal" in="SourceGraphic" in2="effect1_dropShadow_65_1885" result="shape"/>
</filter>
<linearGradient id="paint0_linear_65_1885" x1="1215.79" y1="383.347" x2="620.5" y2="384.743" gradientUnits="userSpaceOnUse">
<stop offset="0.4" stop-color="#ECE1CB"/>
<stop offset="0.6" stop-color="#F6EBD6"/>
<stop offset="0.8" stop-color="#ECE1CB"/>
<stop offset="1" stop-color="#D4C2A0"/>
</linearGradient>
<linearGradient id="paint1_linear_65_1885" x1="25.2078" y1="385.731" x2="620.499" y2="388.236" gradientUnits="userSpaceOnUse">
<stop offset="0.4" stop-color="#ECE1CB"/>
<stop offset="0.6" stop-color="#F6EBD6"/>
<stop offset="0.8" stop-color="#ECE1CB"/>
<stop offset="1" stop-color="#E3D2B1"/>
</linearGradient>
<linearGradient id="paint2_linear_65_1885" x1="1214.82" y1="381.41" x2="620.5" y2="382.801" gradientUnits="userSpaceOnUse">
<stop offset="0.4" stop-color="#ECE1CB"/>
<stop offset="0.6" stop-color="#F6EBD6"/>
<stop offset="0.8" stop-color="#ECE1CB"/>
<stop offset="1" stop-color="#D4C2A0"/>
</linearGradient>
<linearGradient id="paint3_linear_65_1885" x1="26.1774" y1="383.793" x2="620.5" y2="386.29" gradientUnits="userSpaceOnUse">
<stop offset="0.4" stop-color="#ECE1CB"/>
<stop offset="0.6" stop-color="#F6EBD6"/>
<stop offset="0.8" stop-color="#ECE1CB"/>
<stop offset="1" stop-color="#E3D2B1"/>
</linearGradient>
<linearGradient id="paint4_linear_65_1885" x1="1213.85" y1="379.472" x2="620.5" y2="380.859" gradientUnits="userSpaceOnUse">
<stop offset="0.4" stop-color="#ECE1CB"/>
<stop offset="0.6" stop-color="#F6EBD6"/>
<stop offset="0.8" stop-color="#ECE1CB"/>
<stop offset="1" stop-color="#D4C2A0"/>
</linearGradient>
<linearGradient id="paint5_linear_65_1885" x1="27.1468" y1="381.856" x2="620.5" y2="384.345" gradientUnits="userSpaceOnUse">
<stop offset="0.4" stop-color="#ECE1CB"/>
<stop offset="0.6" stop-color="#F6EBD6"/>
<stop offset="0.8" stop-color="#ECE1CB"/>
<stop offset="1" stop-color="#E3D2B1"/>
</linearGradient>
<linearGradient id="paint6_linear_65_1885" x1="1212.88" y1="377.535" x2="620.5" y2="378.917" gradientUnits="userSpaceOnUse">
<stop offset="0.4" stop-color="#ECE1CB"/>
<stop offset="0.6" stop-color="#F6EBD6"/>
<stop offset="0.8" stop-color="#ECE1CB"/>
<stop offset="1" stop-color="#D4C2A0"/>
</linearGradient>
<linearGradient id="paint7_linear_65_1885" x1="28.1164" y1="379.918" x2="620.5" y2="382.399" gradientUnits="userSpaceOnUse">
<stop offset="0.4" stop-color="#ECE1CB"/>
<stop offset="0.6" stop-color="#F6EBD6"/>
<stop offset="0.8" stop-color="#ECE1CB"/>
<stop offset="1" stop-color="#E3D2B1"/>
</linearGradient>
<linearGradient id="paint8_linear_65_1885" x1="1211.91" y1="375.597" x2="620.5" y2="376.975" gradientUnits="userSpaceOnUse">
<stop offset="0.4" stop-color="#ECE1CB"/>
<stop offset="0.6" stop-color="#F6EBD6"/>
<stop offset="0.8" stop-color="#ECE1CB"/>
<stop offset="1" stop-color="#D4C2A0"/>
</linearGradient>
<linearGradient id="paint9_linear_65_1885" x1="29.0859" y1="377.981" x2="620.5" y2="380.454" gradientUnits="userSpaceOnUse">
<stop offset="0.4" stop-color="#ECE1CB"/>
<stop offset="0.6" stop-color="#F6EBD6"/>
<stop offset="0.8" stop-color="#ECE1CB"/>
<stop offset="1" stop-color="#E3D2B1"/>
</linearGradient>
<linearGradient id="paint10_linear_65_1885" x1="1210.94" y1="373.66" x2="620.5" y2="375.033" gradientUnits="userSpaceOnUse">
<stop offset="0.4" stop-color="#ECE1CB"/>
<stop offset="0.6" stop-color="#F6EBD6"/>
<stop offset="0.8" stop-color="#ECE1CB"/>
<stop offset="1" stop-color="#D4C2A0"/>
</linearGradient>
<linearGradient id="paint11_linear_65_1885" x1="30.0554" y1="376.043" x2="620.5" y2="378.508" gradientUnits="userSpaceOnUse">
<stop offset="0.4" stop-color="#ECE1CB"/>
<stop offset="0.6" stop-color="#F6EBD6"/>
<stop offset="0.8" stop-color="#ECE1CB"/>
<stop offset="1" stop-color="#E3D2B1"/>
</linearGradient>
<linearGradient id="paint12_linear_65_1885" x1="1209.98" y1="371.722" x2="620.5" y2="373.091" gradientUnits="userSpaceOnUse">
<stop offset="0.4" stop-color="#ECE1CB"/>
<stop offset="0.6" stop-color="#F6EBD6"/>
<stop offset="0.8" stop-color="#ECE1CB"/>
<stop offset="1" stop-color="#D4C2A0"/>
</linearGradient>
<linearGradient id="paint13_linear_65_1885" x1="31.025" y1="374.119" x2="620.5" y2="376.575" gradientUnits="userSpaceOnUse">
<stop offset="0.4" stop-color="#ECE1CB"/>
<stop offset="0.6" stop-color="#F6EBD6"/>
<stop offset="0.8" stop-color="#ECE1CB"/>
<stop offset="1" stop-color="#E3D2B1"/>
</linearGradient>
</defs>
</svg>
