<svg width="500" height="556" viewBox="0 0 500 556" fill="none" xmlns="http://www.w3.org/2000/svg">
<line x1="23.6687" y1="40" x2="476.336" y2="40" stroke="#B46E36" stroke-width="2"/>
<line x1="23.6687" y1="64" x2="476.336" y2="64" stroke="#B46E36" stroke-width="2"/>
<line x1="23.6687" y1="88" x2="476.336" y2="88" stroke="#B46E36" stroke-width="2"/>
<line x1="23.6687" y1="112" x2="476.336" y2="112" stroke="#B46E36" stroke-width="2"/>
<line x1="23.6687" y1="136" x2="476.336" y2="136" stroke="#B46E36" stroke-width="2"/>
<line x1="23.6687" y1="160" x2="476.336" y2="160" stroke="#B46E36" stroke-width="2"/>
<line x1="23.6687" y1="184" x2="476.336" y2="184" stroke="#B46E36" stroke-width="2"/>
<line x1="24" y1="208" x2="476.667" y2="208" stroke="#B46E36" stroke-width="2"/>
<line x1="24" y1="232" x2="476.667" y2="232" stroke="#B46E36" stroke-width="2"/>
<line x1="24" y1="256" x2="476.667" y2="256" stroke="#B46E36" stroke-width="2"/>
<line x1="24" y1="280" x2="476.667" y2="280" stroke="#B46E36" stroke-width="2"/>
<line x1="24" y1="304" x2="476.667" y2="304" stroke="#B46E36" stroke-width="2"/>
<line x1="24" y1="328" x2="476.667" y2="328" stroke="#B46E36" stroke-width="2"/>
<line x1="24" y1="352" x2="476.667" y2="352" stroke="#B46E36" stroke-width="2"/>
<line x1="24" y1="374" x2="476.667" y2="374" stroke="#B46E36" stroke-width="2"/>
<line x1="24" y1="398" x2="476.667" y2="398" stroke="#B46E36" stroke-width="2"/>
<line x1="24" y1="422" x2="476.667" y2="422" stroke="#B46E36" stroke-width="2"/>
<line x1="24" y1="446" x2="476.667" y2="446" stroke="#B46E36" stroke-width="2"/>
<line x1="24" y1="470" x2="476.667" y2="470" stroke="#B46E36" stroke-width="2"/>
<line x1="24" y1="494" x2="476.667" y2="494" stroke="#B46E36" stroke-width="2"/>
<line x1="24" y1="518" x2="476.667" y2="518" stroke="#B46E36" stroke-width="2"/>
<rect x="1" y="1" width="498" height="554" rx="9" stroke="#B46E36" stroke-width="2"/>
</svg>
