<svg width="500" height="659" viewBox="0 0 500 659" fill="none" xmlns="http://www.w3.org/2000/svg">
<line x1="23.6687" y1="143" x2="476.336" y2="143" stroke="#B46E36" stroke-width="2"/>
<line x1="23.6687" y1="167" x2="476.336" y2="167" stroke="#B46E36" stroke-width="2"/>
<line x1="23.6687" y1="191" x2="476.336" y2="191" stroke="#B46E36" stroke-width="2"/>
<line x1="23.6687" y1="215" x2="476.336" y2="215" stroke="#B46E36" stroke-width="2"/>
<line x1="23.6687" y1="239" x2="476.336" y2="239" stroke="#B46E36" stroke-width="2"/>
<line x1="23.6687" y1="263" x2="476.336" y2="263" stroke="#B46E36" stroke-width="2"/>
<line x1="23.6687" y1="287" x2="476.336" y2="287" stroke="#B46E36" stroke-width="2"/>
<line x1="24" y1="311" x2="476.667" y2="311" stroke="#B46E36" stroke-width="2"/>
<line x1="24" y1="335" x2="476.667" y2="335" stroke="#B46E36" stroke-width="2"/>
<line x1="24" y1="359" x2="476.667" y2="359" stroke="#B46E36" stroke-width="2"/>
<line x1="24" y1="383" x2="476.667" y2="383" stroke="#B46E36" stroke-width="2"/>
<line x1="24" y1="407" x2="476.667" y2="407" stroke="#B46E36" stroke-width="2"/>
<line x1="24" y1="431" x2="476.667" y2="431" stroke="#B46E36" stroke-width="2"/>
<line x1="24" y1="455" x2="476.667" y2="455" stroke="#B46E36" stroke-width="2"/>
<line x1="24" y1="477" x2="476.667" y2="477" stroke="#B46E36" stroke-width="2"/>
<line x1="24" y1="501" x2="476.667" y2="501" stroke="#B46E36" stroke-width="2"/>
<line x1="24" y1="525" x2="476.667" y2="525" stroke="#B46E36" stroke-width="2"/>
<line x1="24" y1="549" x2="476.667" y2="549" stroke="#B46E36" stroke-width="2"/>
<line x1="24" y1="573" x2="476.667" y2="573" stroke="#B46E36" stroke-width="2"/>
<line x1="24" y1="597" x2="476.667" y2="597" stroke="#B46E36" stroke-width="2"/>
<line x1="24" y1="621" x2="476.667" y2="621" stroke="#B46E36" stroke-width="2"/>
<line x1="24" y1="47" x2="476.667" y2="47" stroke="#B46E36" stroke-width="2"/>
<line x1="24" y1="71" x2="476.667" y2="71" stroke="#B46E36" stroke-width="2"/>
<line x1="24" y1="95" x2="476.667" y2="95" stroke="#B46E36" stroke-width="2"/>
<line x1="24" y1="119" x2="476.667" y2="119" stroke="#B46E36" stroke-width="2"/>
<rect x="1" y="1" width="498" height="657" rx="9" stroke="#B46E36" stroke-width="2"/>
</svg>
