<svg width="657" height="816" viewBox="0 0 657 816" fill="none" xmlns="http://www.w3.org/2000/svg">
<path d="M0 40C0 26.7451 10.7452 16 24 16H633C646.255 16 657 26.7452 657 40V792C657 805.255 646.255 816 633 816H17C7.61117 816 0 808.389 0 799V40Z" fill="#814330"/>
<rect x="15.4098" y="23.8872" width="626.18" height="783.226" rx="19" fill="#814330" stroke="#DD954D" stroke-width="2" stroke-dasharray="4 4"/>
<g filter="url(#filter0_d_129_722)">
<path d="M9 29H624C637.255 29 648 39.7452 648 53V783.754C648 797.105 637.157 807.891 623.807 807.766C567.803 807.241 426.551 806.015 328.5 806.015C203.727 806.015 9 808 9 808V29Z" fill="url(#paint0_linear_129_722)"/>
</g>
<g filter="url(#filter1_d_129_722)">
<path d="M9 27H622C635.255 27 646 37.7452 646 51V782.038C646 795.278 635.278 806.017 622.038 806.038L9 807V27Z" fill="url(#paint1_linear_129_722)"/>
</g>
<g filter="url(#filter2_d_129_722)">
<path d="M9 25H620C633.255 25 644 35.7452 644 49V780.075C644 793.301 633.301 804.034 620.076 804.075L9 806V25Z" fill="url(#paint2_linear_129_722)"/>
</g>
<g filter="url(#filter3_d_129_722)">
<path d="M9 23H618C631.255 23 642 33.7452 642 47V778.113C642 791.324 631.324 802.051 618.114 802.113L9 805V23Z" fill="url(#paint3_linear_129_722)"/>
</g>
<g filter="url(#filter4_d_129_722)">
<path d="M9 23H616C629.255 23 640 33.7452 640 47V776.152C640 789.347 629.347 800.068 616.152 800.151L9 804V23Z" fill="url(#paint4_linear_129_722)"/>
</g>
<g filter="url(#filter5_d_129_722)">
<path d="M9 23H614C627.255 23 638 33.7452 638 47V774.19C638 787.37 627.371 798.084 614.191 798.189L9 803V23Z" fill="url(#paint5_linear_129_722)"/>
</g>
<g filter="url(#filter6_d_129_722)">
<path d="M9 23H612C625.255 23 636 33.7452 636 47V772.229C636 785.394 625.394 796.102 612.23 796.227L9 802V23Z" fill="url(#paint6_linear_129_722)"/>
</g>
<path d="M0 24C0 10.7451 10.7452 0 24 0H616C629.255 0 640 10.7452 640 24V776C640 789.255 629.255 800 616 800H0V24Z" fill="#824736"/>
<rect x="11" y="13" width="618" height="773" rx="19" fill="#824736" stroke="#DD954D" stroke-width="2" stroke-dasharray="4 4"/>
<path d="M0 799L22 800C22 800 10 801 10 808C10 815 22 816 22 816H17C7.61116 816 0 808.389 0 799Z" fill="#824736"/>
<path d="M168 130H488L482.5 136L488 145L475 149.5L488 160L482.5 168L488 175L478.5 183L488 190L481.5 196.5L488 205L475 212L488 220L482.5 227L488 235L481.5 242.5L488 250H168L175 243L168 235L181 231.5L168 220L177 213.5L168 205L173 198L168 190L179 183L168 175L181 165L168 160L177 151.5L168 145L173 138L168 130Z" fill="#DD954D"/>
<line x1="197.992" y1="231.008" x2="457.992" y2="229.008" stroke="#763B29" stroke-width="2" stroke-linecap="round" stroke-dasharray="12 12"/>
<path d="M429 420.5C429 420.5 435 421 447 435C455.653 445.096 469 457.5 469 457.5C469 457.5 456.168 458.737 450 453C448.076 451.211 434.5 432.5 434.5 432.5L429 420.5Z" fill="#763B29"/>
<path d="M436.075 380.955C445.45 391.687 448.668 403.736 447.023 415.322C445.375 426.928 438.831 438.153 428.532 447.15C427.241 448.279 426.204 449.097 425.387 449.648C424.631 450.157 424.143 450.38 423.861 450.453C423.838 450.273 423.83 449.951 423.901 449.432C424.097 448.006 424.751 445.821 425.686 443.004C426.603 440.243 427.797 436.858 428.981 433.23C431.363 425.935 433.827 417.305 434.48 409.098C435.132 400.907 433.995 392.945 428.954 387.176C423.915 381.408 416.131 379.154 407.856 378.613C399.562 378.071 390.581 379.237 382.934 380.502C381.019 380.818 379.183 381.142 377.46 381.448C375.736 381.753 374.129 382.041 372.662 382.285C369.699 382.78 367.404 383.086 365.93 383.048C365.297 383.032 364.945 382.951 364.777 382.883C364.857 382.624 365.128 382.149 365.778 381.406C366.425 380.667 367.37 379.748 368.66 378.621C378.945 369.635 391.139 364.881 403.067 365.031C414.979 365.18 426.696 370.22 436.075 380.955Z" fill="url(#paint7_linear_129_722)" stroke="#B46E36" stroke-width="2"/>
<path d="M308.275 486.43C307.977 486.314 307.772 486.071 307.707 485.764C307.065 482.732 305.155 473.11 304.057 461.246C302.958 449.367 302.682 435.317 305.266 423.397C310.825 397.756 325.992 373.376 348.819 366.89C356.72 364.646 363.042 365.407 368.639 368.074C374.282 370.763 379.259 375.421 384.386 381.112C388.287 385.442 389.167 392.778 388.665 400.333C388.169 407.818 386.341 415.202 385.164 419.33C384.537 421.529 386.457 423.689 388.71 423.341C393.008 422.678 400.717 421.794 408.378 422.43C416.095 423.071 423.466 425.233 427.431 430.38C432.314 436.718 435.739 442.889 437.125 449.264C438.504 455.613 437.877 462.236 434.528 469.525C424.537 491.271 401.533 501.048 373.68 501.634C361.704 501.886 346.936 498.713 334.323 495.143C321.732 491.578 311.382 487.645 308.275 486.43Z" fill="url(#paint8_radial_129_722)" stroke="#B46E36" stroke-width="2"/>
<path d="M648 457C648 457 650 457 654 460C656.884 462.163 657 466 657 466C657 466 654.5 463 653 462C651.4 460.933 648 460 648 460V457Z" fill="#763B29"/>
<path d="M625.975 357C641.412 357 648.939 359.494 652.58 361.841C654.386 363.005 655.23 364.128 655.627 364.896C655.827 365.284 655.92 365.593 655.963 365.787C655.984 365.884 655.994 365.953 655.998 365.99L656 366.021V462.055C655.408 461.436 654.646 460.792 653.664 460.159C649.548 457.506 641.563 455 625.975 455C600.582 455 503.607 456.339 469.193 456.826C461.822 456.93 454.885 453.496 450.472 447.586L430 420.166V393.351L450.708 367.466C455.002 362.099 461.399 358.936 468.266 358.839C501.812 358.364 600.361 357 625.975 357Z" fill="#814330" stroke="#DD954D" stroke-width="2"/>
<path d="M456.25 383.838C456.25 375.065 463.248 367.929 472.021 367.842C510.694 367.456 608.306 366.5 625.062 366.5C646.05 366.5 646.05 371 646.05 371V448.5C646.05 448.5 639.054 446.5 625.062 446.5C613.858 446.5 512.337 447.462 472.34 447.845C463.443 447.93 456.25 440.741 456.25 431.844V383.838Z" fill="url(#paint9_linear_129_722)" stroke="#DD954D" stroke-width="2" stroke-dasharray="2 2"/>
<rect x="515" y="354" width="23" height="106" rx="2" fill="#DD954D"/>
<g filter="url(#filter7_d_129_722)">
<rect x="345.822" y="473.54" width="14" height="18" rx="6" transform="rotate(7.55517 345.822 473.54)" fill="#824736"/>
<rect x="344.962" y="472.418" width="16" height="20" rx="7" transform="rotate(7.55517 344.962 472.418)" stroke="#622E1E" stroke-width="2"/>
</g>
<g filter="url(#filter8_d_129_722)">
<rect x="366.019" y="475.886" width="14" height="18" rx="6" transform="rotate(-4.44483 366.019 475.886)" fill="#824736"/>
<rect x="364.944" y="474.967" width="16" height="20" rx="7" transform="rotate(-4.44483 364.944 474.967)" stroke="#622E1E" stroke-width="2"/>
</g>
<g filter="url(#filter9_d_129_722)">
<rect x="386.184" y="473.323" width="14" height="18" rx="6" transform="rotate(-16.4448 386.184 473.323)" fill="#824736"/>
<rect x="384.942" y="472.647" width="16" height="20" rx="7" transform="rotate(-16.4448 384.942 472.647)" stroke="#622E1E" stroke-width="2"/>
</g>
<g filter="url(#filter10_d_129_722)">
<rect x="404.645" y="465.652" width="14" height="18" rx="6" transform="rotate(-28.4448 404.645 465.652)" fill="#824736"/>
<rect x="403.29" y="465.249" width="16" height="20" rx="7" transform="rotate(-28.4448 403.29 465.249)" stroke="#622E1E" stroke-width="2"/>
</g>
<path d="M156.608 127.605C155.879 127.707 155.401 126.951 155.174 125.335C154.947 123.718 155.025 121.688 155.409 119.243C153.629 121.868 152.063 123.833 150.711 125.138C149.36 126.443 148.169 127.167 147.139 127.312C145.365 127.561 144.327 126.617 144.027 124.478C143.706 122.196 144.186 119.349 145.468 115.938C146.01 114.505 146.56 113.417 147.118 112.677C147.268 112.478 147.427 112.286 147.595 112.101C147.76 111.9 147.914 111.789 148.057 111.769C148.39 111.722 148.577 111.849 148.62 112.15C148.635 112.261 148.585 112.365 148.47 112.462C148.098 112.805 147.714 113.296 147.319 113.933C146.924 114.57 146.534 115.36 146.149 116.303C145.822 117.076 145.53 117.933 145.275 118.873C145.033 119.796 144.863 120.717 144.766 121.635C144.669 122.554 144.674 123.393 144.781 124.154C145.03 125.928 145.797 126.725 147.08 126.545C147.682 126.46 148.289 126.181 148.901 125.707C149.529 125.231 150.137 124.669 150.724 124.021C151.325 123.355 151.865 122.714 152.344 122.097C152.837 121.462 153.259 120.902 153.611 120.416C153.978 119.928 154.329 119.435 154.663 118.935C155.01 118.418 155.395 117.823 155.817 117.149L156.088 115.972C156.221 115.42 156.347 114.942 156.468 114.537C156.587 114.117 156.692 113.771 156.783 113.499C157.603 111.171 158.258 109.972 158.749 109.903C158.876 109.885 158.974 109.952 159.044 110.104C159.128 110.237 159.184 110.407 159.213 110.613C159.255 110.914 159.206 111.309 159.064 111.797C158.939 112.284 158.762 112.809 158.534 113.374C158.321 113.922 158.095 114.446 157.859 114.948C157.636 115.432 157.442 115.83 157.276 116.145L156.584 117.429C156.538 117.565 156.467 117.866 156.371 118.332C156.273 118.782 156.165 119.395 156.048 120.171C155.78 121.824 155.753 123.419 155.969 124.956C156.152 126.255 156.378 126.886 156.647 126.848C156.695 126.842 156.724 126.821 156.736 126.787C156.749 126.769 156.78 126.757 156.827 126.75C156.954 126.732 157.032 126.826 157.061 127.032C157.108 127.365 156.957 127.556 156.608 127.605ZM160.97 125.392C160.083 125.517 159.598 125.286 159.515 124.7C159.464 124.336 159.54 123.954 159.742 123.553C159.96 123.151 160.23 122.774 160.552 122.422C160.874 122.069 161.183 121.792 161.477 121.589C161.566 121.528 161.686 121.463 161.838 121.393C162.005 121.321 162.145 121.277 162.255 121.261C162.382 121.244 162.452 121.282 162.466 121.377C162.477 121.456 162.402 121.556 162.241 121.675C161.561 122.126 161.05 122.626 160.707 123.176C160.377 123.707 160.234 124.123 160.276 124.424C160.316 124.709 160.582 124.817 161.073 124.748C161.485 124.69 161.914 124.525 162.361 124.252C162.823 123.977 163.245 123.643 163.626 123.25C164.022 122.855 164.337 122.447 164.569 122.027C164.8 121.607 164.892 121.222 164.843 120.874C164.809 120.636 164.7 120.433 164.515 120.265C164.345 120.095 164.088 119.986 163.742 119.938L162.106 119.683C161.692 119.612 161.384 119.485 161.181 119.304C160.977 119.122 160.858 118.905 160.822 118.651C160.755 118.176 160.87 117.724 161.165 117.295C161.476 116.863 161.885 116.499 162.393 116.201C162.9 115.904 163.407 115.719 163.914 115.648C164.421 115.577 164.883 115.641 165.299 115.841C165.712 116.025 165.948 116.323 166.006 116.735C166.039 116.973 165.999 117.205 165.886 117.431C165.788 117.655 165.652 117.779 165.478 117.803C165.208 117.841 165.058 117.749 165.027 117.527C165.016 117.448 165.042 117.347 165.105 117.225C165.183 117.085 165.214 116.96 165.198 116.849C165.131 116.374 164.733 116.187 164.005 116.29C163.608 116.345 163.225 116.488 162.853 116.718C162.495 116.93 162.208 117.188 161.992 117.493C161.777 117.798 161.691 118.109 161.736 118.426C161.78 118.743 162.133 118.952 162.793 119.053L164.381 119.315C164.861 119.393 165.205 119.546 165.415 119.775C165.623 119.988 165.748 120.245 165.79 120.546C165.891 121.259 165.558 122.057 164.794 122.94C163.56 124.39 162.285 125.208 160.97 125.392ZM170.178 123.735C169.513 123.828 168.958 123.672 168.513 123.266C168.068 122.86 167.799 122.324 167.705 121.659C167.545 120.518 167.761 119.292 168.352 117.981C168.511 117.619 168.703 117.261 168.928 116.906C169.151 116.536 169.399 116.178 169.674 115.832C170.084 115.306 170.53 114.855 171.011 114.481C171.491 114.106 171.977 113.885 172.468 113.816C173.276 113.702 173.734 114.025 173.841 114.786C173.974 115.737 173.541 116.678 172.541 117.61C171.609 118.452 170.644 118.943 169.646 119.084C169.472 119.108 169.312 119.122 169.167 119.127C169.036 119.113 168.913 119.098 168.797 119.082C168.681 119.405 168.593 119.813 168.533 120.306C168.473 120.8 168.468 121.22 168.517 121.569C168.664 122.615 169.197 123.073 170.116 122.944C170.86 122.839 171.548 122.613 172.178 122.266C172.805 121.903 173.527 121.293 174.344 120.435C174.852 119.911 175.23 119.495 175.477 119.185C175.724 118.876 175.993 118.547 176.283 118.199C176.37 118.123 176.452 118.079 176.532 118.067C176.611 118.056 176.693 118.069 176.779 118.105C176.865 118.142 176.915 118.207 176.928 118.303C176.953 118.477 176.829 118.745 176.556 119.106C176.323 119.397 176.075 119.707 175.814 120.034C175.551 120.346 175.129 120.793 174.549 121.376C173.927 122.012 173.226 122.539 172.444 122.956C171.663 123.373 170.907 123.632 170.178 123.735ZM169.396 118.343C169.904 118.272 170.376 118.125 170.813 117.902C171.25 117.679 171.653 117.388 172.023 117.029C172.846 116.218 173.216 115.512 173.131 114.91C173.093 114.641 172.908 114.529 172.575 114.576C171.941 114.665 171.259 115.157 170.529 116.051C170.17 116.489 169.878 116.886 169.654 117.241C169.442 117.577 169.251 117.943 169.081 118.339C169.18 118.357 169.286 118.359 169.396 118.343ZM175.349 123.178C175.095 123.213 174.954 123.128 174.925 122.922C174.912 122.827 174.922 122.729 174.956 122.627C175.006 122.523 175.043 122.437 175.066 122.369L176.614 117.692C177.27 115.694 177.584 114.591 177.555 114.385C177.523 114.163 177.619 114.037 177.841 114.006C178.142 113.963 178.313 114.093 178.356 114.394C178.378 114.552 178.342 114.816 178.249 115.184C178.155 115.553 178.029 115.983 177.872 116.473C177.608 117.351 177.38 118.029 177.189 118.508C177.586 117.887 177.996 117.296 178.418 116.736C178.84 116.176 179.274 115.638 179.718 115.123C181.039 113.597 182.103 112.777 182.911 112.663C183.466 112.585 183.78 112.808 183.853 113.33C183.924 113.837 183.794 114.114 183.461 114.161C183.302 114.183 183.165 114.065 183.048 113.807C182.973 113.624 182.849 113.544 182.675 113.569C182.405 113.607 181.924 113.973 181.23 114.669C180.463 115.423 179.705 116.296 178.957 117.29C178.223 118.282 177.468 119.519 176.691 121.002L175.736 122.832C175.684 122.921 175.63 122.993 175.573 123.049C175.534 123.119 175.46 123.162 175.349 123.178ZM189.948 121.78C189.821 121.798 189.686 121.761 189.544 121.667C189.417 121.572 189.346 121.469 189.331 121.358C189.315 121.247 189.321 121.117 189.349 120.968C189.378 120.834 189.413 120.676 189.452 120.493C189.995 117.46 190.87 114.55 192.078 111.762C193.593 108.286 194.837 105.986 195.81 104.864C196.076 104.568 196.252 104.382 196.338 104.305C196.437 104.21 196.527 104.157 196.606 104.146C196.986 104.093 197.2 104.232 197.247 104.565C197.273 104.755 197.311 105.081 197.36 105.543C197.409 106.005 197.479 106.56 197.57 107.21C197.761 108.572 198.128 110.201 198.669 112.096C199.208 113.976 199.907 115.962 200.766 118.054C201.637 116.43 202.391 114.958 203.03 113.64C203.667 112.307 204.209 111.051 204.658 109.873C204.99 109.019 205.326 108.131 205.665 107.211C206.018 106.273 206.337 105.38 206.621 104.532C206.922 103.682 207.148 102.931 207.299 102.28C207.463 101.61 207.523 101.117 207.478 100.8C207.447 100.579 207.535 100.453 207.741 100.424C208.057 100.38 208.237 100.508 208.279 100.809C208.344 101.269 208.288 101.85 208.113 102.553C207.95 103.238 207.664 104.135 207.254 105.243C206.845 106.351 206.309 107.767 205.646 109.492C205.116 110.891 204.637 112.082 204.209 113.063C203.795 114.026 203.347 114.977 202.865 115.918C202.659 116.286 202.418 116.756 202.143 117.328C201.865 117.884 201.546 118.543 201.184 119.304C201.1 119.51 200.971 119.625 200.797 119.65C200.67 119.668 200.569 119.641 200.495 119.571C200.42 119.501 200.337 119.367 200.245 119.17C199.853 118.336 199.464 117.413 199.08 116.401C198.709 115.371 198.358 114.313 198.028 113.229C197.698 112.144 197.412 111.086 197.17 110.053C196.926 109.005 196.741 108.037 196.616 107.15L196.383 105.486C195.273 106.903 194.088 109.105 192.827 112.093C192.134 113.71 191.584 115.257 191.178 116.736C190.769 118.199 190.458 119.665 190.244 121.133C190.173 121.547 190.074 121.763 189.948 121.78ZM209.808 117.971C208.889 118.1 208.368 117.729 208.246 116.858C208.166 116.287 208.215 115.659 208.393 114.971C208.584 114.266 208.875 113.57 209.263 112.886C209.649 112.185 210.1 111.54 210.615 110.951C211.128 110.345 211.672 109.849 212.247 109.461C212.821 109.057 213.393 108.815 213.963 108.735C214.977 108.593 215.554 109.02 215.695 110.019C215.786 110.668 215.673 111.015 215.356 111.06C215.071 111.1 214.909 110.985 214.872 110.716C214.856 110.605 214.864 110.491 214.896 110.373C214.942 110.238 214.954 110.098 214.934 109.956C214.872 109.512 214.54 109.333 213.938 109.417C212.971 109.553 211.863 110.46 210.612 112.139C210.315 112.552 210.034 113.028 209.771 113.566C209.507 114.104 209.3 114.642 209.149 115.18C209.012 115.7 208.975 116.182 209.037 116.625C209.097 117.053 209.365 117.234 209.84 117.167C210.252 117.109 210.67 116.921 211.094 116.603C211.534 116.283 211.909 115.963 212.22 115.645C212.843 115.024 213.456 114.211 214.058 113.205C214.151 113.063 214.27 112.877 214.416 112.646C214.561 112.416 214.727 112.158 214.913 111.873C214.981 111.783 215.071 111.73 215.182 111.715C215.435 111.679 215.58 111.788 215.615 112.041L214.903 113.523C214.425 114.495 214.227 115.266 214.307 115.836C214.365 116.248 214.592 116.427 214.988 116.371C215.32 116.324 215.673 116.186 216.044 115.956C216.416 115.726 216.716 115.506 216.945 115.296C217.405 114.892 217.878 114.405 218.364 113.836C218.847 113.251 219.307 112.67 219.742 112.091C219.797 112.019 219.888 111.974 220.014 111.956C220.252 111.923 220.384 112.001 220.411 112.191C220.435 112.366 220.352 112.579 220.162 112.832C219.617 113.555 219.123 114.182 218.681 114.713C218.236 115.228 217.804 115.66 217.385 116.01C217.108 116.226 216.762 116.461 216.345 116.713C215.928 116.966 215.434 117.132 214.864 117.212C214.087 117.321 213.641 116.964 213.525 116.14C213.481 115.823 213.484 115.556 213.534 115.339C212.286 116.92 211.044 117.798 209.808 117.971ZM218.851 117.282C218.581 117.32 218.429 117.212 218.393 116.959C218.391 116.943 218.458 116.731 218.595 116.324C218.732 115.917 218.922 115.317 219.166 114.523L220.02 111.81C220.367 110.711 220.601 109.846 220.722 109.215C220.859 108.582 220.916 108.178 220.891 108.004C220.856 107.75 220.964 107.606 221.218 107.57C221.472 107.535 221.616 107.643 221.652 107.897C221.681 108.103 221.655 108.438 221.575 108.901C221.508 109.347 221.372 109.932 221.167 110.655L220.342 113.583C223.066 108.934 225.267 106.492 226.947 106.256C227.264 106.212 227.528 106.312 227.74 106.557C227.95 106.786 228.078 107.058 228.122 107.375C228.229 108.136 227.868 109.536 227.04 111.575C227.76 110.601 228.487 109.627 229.222 108.651C229.971 107.657 230.722 106.679 231.476 105.716C231.669 105.479 231.836 105.351 231.979 105.331C232.169 105.304 232.341 105.377 232.494 105.549C232.646 105.706 232.736 105.887 232.765 106.093C232.787 106.251 232.744 106.459 232.634 106.717C232.477 107.094 232.346 107.541 232.241 108.057C232.134 108.557 232.011 109.123 231.874 109.756C231.716 110.473 231.618 111.093 231.578 111.616C231.538 112.138 231.541 112.558 231.585 112.875C231.641 113.271 231.777 113.551 231.994 113.714C232.209 113.862 232.411 113.922 232.601 113.895C232.934 113.849 233.286 113.71 233.658 113.48C234.029 113.25 234.33 113.03 234.559 112.821C235.019 112.417 235.492 111.93 235.977 111.361C236.461 110.776 236.92 110.194 237.356 109.616C237.41 109.544 237.501 109.499 237.628 109.481C237.865 109.448 237.997 109.526 238.024 109.716C238.049 109.89 237.966 110.104 237.775 110.357C237.23 111.08 236.737 111.707 236.294 112.237C235.85 112.752 235.418 113.185 234.998 113.534C234.722 113.751 234.383 113.984 233.982 114.235C233.581 114.485 233.135 114.645 232.643 114.714C232.184 114.778 231.776 114.69 231.419 114.449C231.078 114.207 230.841 113.618 230.71 112.683C230.659 112.318 230.662 111.882 230.72 111.373C230.775 110.848 230.886 110.259 231.053 109.605L231.892 106.434L228.974 110.334C228.634 110.785 228.356 111.164 228.14 111.469C227.924 111.774 227.749 112.024 227.616 112.221C227.359 112.58 227.133 112.927 226.938 113.261C226.758 113.594 226.605 113.882 226.478 114.126C226.391 114.316 226.277 114.421 226.134 114.441C225.865 114.479 225.714 114.387 225.683 114.165C225.614 113.674 225.899 112.478 226.537 110.579C227.174 108.68 227.469 107.556 227.42 107.207C227.398 107.049 227.212 106.994 226.864 107.043C225.453 107.241 223.266 109.9 220.302 115.018C220.061 115.488 219.652 116.2 219.075 117.154C219.036 117.224 218.962 117.267 218.851 117.282ZM239.598 113.979C238.932 114.072 238.377 113.916 237.932 113.51C237.488 113.104 237.218 112.568 237.125 111.902C236.964 110.762 237.18 109.536 237.771 108.225C237.93 107.863 238.122 107.505 238.347 107.15C238.57 106.78 238.818 106.421 239.093 106.076C239.504 105.55 239.949 105.099 240.43 104.725C240.911 104.35 241.396 104.128 241.888 104.059C242.696 103.946 243.153 104.269 243.26 105.03C243.394 105.98 242.96 106.922 241.96 107.854C241.029 108.696 240.064 109.187 239.065 109.327C238.891 109.352 238.731 109.366 238.587 109.37C238.455 109.357 238.332 109.342 238.217 109.325C238.101 109.649 238.013 110.057 237.953 110.55C237.893 111.043 237.887 111.464 237.936 111.813C238.083 112.858 238.616 113.317 239.535 113.188C240.28 113.083 240.967 112.857 241.597 112.51C242.225 112.147 242.947 111.537 243.763 110.679C244.271 110.155 244.649 109.738 244.896 109.429C245.144 109.119 245.412 108.791 245.703 108.443C245.789 108.366 245.872 108.322 245.951 108.311C246.03 108.3 246.113 108.313 246.199 108.349C246.284 108.385 246.334 108.451 246.347 108.546C246.372 108.721 246.248 108.988 245.976 109.35C245.742 109.641 245.495 109.951 245.234 110.278C244.97 110.59 244.549 111.037 243.968 111.619C243.347 112.256 242.645 112.783 241.863 113.2C241.082 113.616 240.327 113.876 239.598 113.979ZM238.816 108.587C239.323 108.516 239.795 108.368 240.232 108.145C240.669 107.922 241.073 107.631 241.442 107.273C242.266 106.462 242.635 105.756 242.55 105.154C242.513 104.884 242.327 104.773 241.995 104.82C241.361 104.909 240.679 105.401 239.948 106.295C239.589 106.733 239.298 107.13 239.073 107.484C238.862 107.821 238.671 108.187 238.5 108.583C238.6 108.601 238.705 108.602 238.816 108.587Z" fill="#F0E6D1"/>
<path d="M305.03 514.319C304.729 514.276 304.599 514.105 304.641 513.804C304.653 513.725 304.689 513.641 304.75 513.552C304.828 513.45 304.91 513.332 304.993 513.199C305.298 512.757 305.593 512.322 305.879 511.893C306.166 511.465 306.475 510.991 306.806 510.473C307.156 509.94 307.549 509.325 307.987 508.627C308.44 507.931 308.978 507.094 309.6 506.115C310.301 505.034 310.946 504.066 311.535 503.212C312.123 502.358 312.675 501.595 313.189 500.924C312.825 500.986 312.468 501.057 312.117 501.137C311.785 501.203 311.526 501.264 311.34 501.319C311.137 501.387 311.001 501.432 310.933 501.455C310.884 501.464 310.827 501.464 310.764 501.456C310.542 501.424 310.448 501.29 310.481 501.052C310.499 500.926 310.604 500.811 310.796 500.709C311.363 500.465 312.396 500.247 313.893 500.053C314.108 499.793 314.31 499.563 314.499 499.363C314.592 499.279 314.696 499.229 314.811 499.213C314.942 499.199 315.047 499.198 315.127 499.209C315.269 499.229 315.332 499.302 315.314 499.429C315.296 499.556 315.217 499.714 315.077 499.905C317.125 499.708 318.774 499.697 320.026 499.873C322.973 500.287 324.324 501.366 324.079 503.109C323.952 504.012 323.595 504.77 323.008 505.382C322.421 505.994 321.672 506.495 320.761 506.884C319.866 507.275 318.885 507.59 317.817 507.827C315.221 508.367 313.012 508.509 311.19 508.253C310.952 508.22 310.854 508.052 310.897 507.751C310.923 507.561 311.064 507.484 311.317 507.52C313.107 507.771 315.235 507.634 317.7 507.108C318.684 506.891 319.574 506.596 320.37 506.223C321.167 505.834 321.821 505.377 322.332 504.851C322.844 504.309 323.145 503.721 323.234 503.087C323.416 501.788 322.319 500.971 319.943 500.637C319.23 500.537 318.411 500.503 317.485 500.534C316.562 500.55 315.525 500.63 314.373 500.775C313.782 501.532 313.156 502.365 312.495 503.274C311.852 504.17 311.188 505.159 310.503 506.242L306.898 511.891C306.733 512.143 306.527 512.461 306.279 512.846C306.033 513.216 305.759 513.613 305.457 514.039C305.315 514.246 305.172 514.339 305.03 514.319ZM319.226 516.217C318.307 516.088 317.909 515.588 318.032 514.716C318.112 514.146 318.332 513.555 318.693 512.943C319.071 512.318 319.542 511.729 320.104 511.178C320.669 510.611 321.279 510.115 321.937 509.691C322.597 509.25 323.257 508.923 323.917 508.709C324.579 508.479 325.196 508.404 325.766 508.484C326.78 508.626 327.217 509.197 327.077 510.195C326.986 510.845 326.781 511.147 326.465 511.103C326.179 511.063 326.056 510.908 326.094 510.638C326.109 510.528 326.148 510.42 326.212 510.316C326.293 510.198 326.343 510.068 326.363 509.925C326.426 509.481 326.156 509.217 325.554 509.133C324.587 508.997 323.272 509.563 321.607 510.832C321.207 511.147 320.806 511.527 320.405 511.972C320.003 512.416 319.655 512.876 319.362 513.352C319.087 513.814 318.919 514.267 318.856 514.711C318.796 515.139 319.004 515.386 319.479 515.453C319.891 515.511 320.345 515.445 320.84 515.256C321.351 515.07 321.799 514.866 322.186 514.646C322.956 514.221 323.77 513.608 324.625 512.807C324.754 512.696 324.92 512.55 325.123 512.368C325.327 512.187 325.557 511.985 325.814 511.763C325.905 511.694 326.005 511.668 326.116 511.684C326.37 511.719 326.479 511.864 326.443 512.118L325.35 513.345C324.623 514.148 324.219 514.834 324.139 515.405C324.081 515.817 324.25 516.051 324.646 516.106C324.979 516.153 325.356 516.117 325.776 515.999C326.197 515.88 326.546 515.751 326.824 515.613C327.378 515.351 327.967 515.014 328.59 514.601C329.216 514.171 329.818 513.739 330.397 513.303C330.469 513.249 330.568 513.23 330.695 513.248C330.933 513.282 331.038 513.393 331.011 513.584C330.987 513.758 330.848 513.94 330.595 514.131C329.872 514.676 329.225 515.142 328.654 515.53C328.084 515.903 327.55 516.199 327.05 516.42C326.725 516.552 326.327 516.682 325.856 516.81C325.386 516.937 324.866 516.961 324.295 516.881C323.519 516.772 323.189 516.305 323.304 515.481C323.349 515.165 323.425 514.909 323.533 514.714C321.898 515.89 320.462 516.391 319.226 516.217ZM329.395 518.204C328.508 518.079 328.105 517.723 328.188 517.137C328.239 516.773 328.417 516.426 328.722 516.097C329.042 515.771 329.406 515.483 329.813 515.233C330.219 514.983 330.592 514.801 330.932 514.687C331.033 514.653 331.167 514.623 331.332 514.598C331.513 514.575 331.659 514.571 331.77 514.587C331.896 514.605 331.953 514.661 331.94 514.756C331.929 514.835 331.829 514.91 331.642 514.981C330.864 515.227 330.234 515.567 329.753 516C329.29 516.42 329.038 516.78 328.996 517.081C328.955 517.366 329.181 517.543 329.672 517.612C330.084 517.67 330.542 517.63 331.047 517.49C331.567 517.354 332.064 517.149 332.539 516.876C333.029 516.606 333.443 516.3 333.782 515.96C334.121 515.62 334.315 515.276 334.364 514.927C334.397 514.69 334.348 514.464 334.216 514.252C334.1 514.042 333.883 513.866 333.563 513.724L332.061 513.028C331.683 512.846 331.421 512.639 331.276 512.409C331.131 512.178 331.076 511.936 331.111 511.683C331.178 511.208 331.413 510.804 331.815 510.473C332.233 510.144 332.726 509.906 333.296 509.76C333.866 509.614 334.405 509.577 334.912 509.648C335.419 509.719 335.844 509.908 336.189 510.215C336.536 510.506 336.68 510.858 336.623 511.27C336.589 511.508 336.487 511.719 336.315 511.905C336.159 512.094 335.994 512.175 335.82 512.151C335.551 512.113 335.432 511.983 335.463 511.761C335.474 511.682 335.527 511.593 335.622 511.493C335.735 511.379 335.799 511.267 335.814 511.156C335.881 510.681 335.55 510.392 334.821 510.29C334.425 510.234 334.017 510.266 333.596 510.384C333.194 510.489 332.847 510.659 332.556 510.892C332.264 511.126 332.096 511.401 332.052 511.718C332.007 512.035 332.288 512.333 332.895 512.612L334.35 513.301C334.789 513.509 335.078 513.751 335.217 514.029C335.358 514.291 335.407 514.573 335.365 514.874C335.265 515.587 334.725 516.263 333.747 516.901C332.161 517.954 330.71 518.388 329.395 518.204ZM336.753 519.238C335.865 519.113 335.463 518.757 335.545 518.171C335.596 517.807 335.774 517.46 336.079 517.131C336.4 516.805 336.763 516.517 337.17 516.267C337.577 516.017 337.95 515.835 338.289 515.721C338.391 515.687 338.524 515.657 338.689 515.632C338.87 515.609 339.016 515.605 339.127 515.621C339.254 515.639 339.311 515.695 339.297 515.79C339.286 515.869 339.187 515.944 338.999 516.015C338.221 516.261 337.592 516.601 337.111 517.034C336.648 517.454 336.395 517.814 336.353 518.115C336.313 518.4 336.538 518.577 337.03 518.646C337.442 518.704 337.9 518.664 338.404 518.524C338.924 518.388 339.421 518.183 339.896 517.91C340.386 517.64 340.801 517.334 341.14 516.994C341.478 516.654 341.672 516.31 341.721 515.961C341.754 515.724 341.705 515.498 341.573 515.286C341.458 515.076 341.24 514.9 340.921 514.758L339.419 514.062C339.041 513.88 338.779 513.673 338.633 513.443C338.488 513.212 338.433 512.971 338.469 512.717C338.536 512.242 338.77 511.838 339.172 511.507C339.59 511.178 340.084 510.94 340.654 510.794C341.224 510.648 341.762 510.611 342.269 510.682C342.776 510.753 343.202 510.942 343.546 511.249C343.893 511.54 344.038 511.892 343.98 512.304C343.947 512.542 343.844 512.753 343.672 512.939C343.517 513.128 343.352 513.209 343.178 513.185C342.908 513.147 342.789 513.017 342.82 512.795C342.831 512.716 342.884 512.627 342.979 512.527C343.092 512.413 343.156 512.301 343.172 512.19C343.239 511.715 342.908 511.426 342.179 511.324C341.783 511.268 341.374 511.3 340.954 511.418C340.551 511.523 340.204 511.693 339.913 511.926C339.622 512.16 339.454 512.435 339.409 512.752C339.365 513.069 339.646 513.367 340.253 513.646L341.707 514.335C342.147 514.543 342.436 514.785 342.574 515.063C342.715 515.325 342.764 515.607 342.722 515.908C342.622 516.621 342.083 517.297 341.104 517.935C339.518 518.988 338.068 519.422 336.753 519.238ZM352.091 521.078C351.695 521.023 351.409 520.821 351.231 520.473C351.054 520.125 350.999 519.713 351.066 519.238C351.083 519.111 351.118 518.922 351.17 518.671C351.223 518.403 351.278 518.128 351.334 517.845C351.408 517.549 351.468 517.291 351.515 517.071C351.565 516.836 351.601 516.695 351.623 516.65L351.613 516.552C351.441 516.738 351.205 516.979 350.905 517.276C350.621 517.575 350.319 517.881 350.001 518.191C349.701 518.488 349.43 518.749 349.188 518.974C348.8 519.323 348.392 519.581 347.965 519.747C347.537 519.913 347.157 519.973 346.825 519.926C346.428 519.87 346.123 519.626 345.91 519.192C345.698 518.742 345.646 518.137 345.753 517.376C345.855 516.647 346.089 515.848 346.453 514.978L345.596 515.73C345.47 515.826 345.362 515.907 345.271 515.975C345.183 516.028 345.099 516.048 345.02 516.037C344.941 516.026 344.866 515.983 344.796 515.909C344.744 515.82 344.725 515.721 344.741 515.61C344.756 515.499 344.809 515.41 344.9 515.342C345.083 515.19 345.296 514.993 345.54 514.753C345.802 514.499 346.101 514.21 346.437 513.885C346.722 513.586 347.205 513.024 347.886 512.199C348.004 512.054 348.142 511.992 348.3 512.014C348.569 512.052 348.686 512.198 348.651 512.451C348.639 512.531 348.584 512.636 348.485 512.767C348.388 512.883 348.242 513.113 348.049 513.457C347.659 514.162 347.333 514.868 347.073 515.574C346.814 516.265 346.636 516.959 346.538 517.656C346.453 518.258 346.437 518.66 346.489 518.861C346.544 519.046 346.651 519.15 346.809 519.173C347.316 519.244 347.98 518.949 348.8 518.289C349.037 518.096 349.398 517.767 349.883 517.302C350.371 516.821 350.887 516.256 351.431 515.605C351.977 514.939 352.43 514.243 352.79 513.518L353.294 512.522C353.361 512.386 353.474 512.33 353.633 512.352C353.918 512.392 354.042 512.547 354.004 512.816C353.991 512.911 353.868 513.152 353.636 513.54C353.406 513.911 353.143 514.513 352.849 515.344C352.662 515.867 352.479 516.423 352.299 517.012C352.136 517.603 352.015 518.175 351.937 518.73C351.788 519.791 351.887 520.347 352.236 520.396C352.521 520.436 352.907 520.337 353.393 520.098C353.878 519.859 354.399 519.545 354.955 519.154C355.511 518.764 356.021 518.351 356.486 517.915C356.911 517.539 357.352 517.1 357.811 516.599C358.269 516.098 358.664 515.587 358.995 515.069C359.344 514.536 359.548 514.064 359.606 513.652C359.664 513.24 359.591 512.955 359.387 512.797C359.357 512.777 359.148 512.715 358.759 512.612C358.541 512.549 358.448 512.407 358.479 512.185C358.515 511.931 358.66 511.822 358.913 511.858C359.42 511.929 359.804 512.129 360.065 512.456C360.342 512.786 360.446 513.196 360.377 513.687C360.19 515.018 359.061 516.613 356.99 518.471C354.881 520.372 353.248 521.241 352.091 521.078ZM361.214 521.754C359.93 521.574 359.39 520.763 359.593 519.321C359.686 518.656 359.943 517.981 360.362 517.296C360.781 516.612 361.296 515.998 361.905 515.453C362.517 514.893 363.168 514.459 363.857 514.152C364.563 513.848 365.248 513.742 365.914 513.835C366.5 513.918 366.896 514.2 367.103 514.681C367.31 515.163 367.376 515.673 367.3 516.212C367.2 516.925 366.955 517.633 366.565 518.338C366.178 519.027 365.695 519.646 365.117 520.194C364.539 520.743 363.914 521.165 363.243 521.458C362.571 521.751 361.895 521.85 361.214 521.754ZM361.297 520.991C361.392 521.004 361.449 521.004 361.467 520.99C362.096 520.998 362.697 520.856 363.271 520.565C363.845 520.274 364.36 519.886 364.816 519.401C365.29 518.902 365.675 518.35 365.97 517.745C366.265 517.141 366.456 516.529 366.543 515.911C366.594 515.547 366.531 515.247 366.354 515.012C366.177 514.777 365.93 514.638 365.613 514.593C365.154 514.528 364.636 514.65 364.06 514.956C363.499 515.265 362.948 515.681 362.406 516.202C361.88 516.726 361.429 517.293 361.052 517.902C360.678 518.496 360.455 519.047 360.384 519.554C360.264 520.409 360.568 520.888 361.297 520.991ZM366.271 523.192C366.018 523.157 365.905 523.036 365.934 522.83C365.948 522.735 365.985 522.643 366.046 522.555C366.122 522.469 366.181 522.396 366.222 522.337L368.999 518.268C370.181 516.528 370.786 515.554 370.815 515.348C370.846 515.127 370.973 515.031 371.194 515.062C371.495 515.105 371.625 515.276 371.583 515.577C371.56 515.736 371.453 515.979 371.262 516.308C371.07 516.636 370.831 517.015 370.545 517.443C370.049 518.214 369.643 518.803 369.327 519.211C369.88 518.723 370.437 518.268 370.997 517.846C371.557 517.424 372.122 517.027 372.691 516.654C374.381 515.551 375.631 515.056 376.439 515.169C376.993 515.247 377.234 515.548 377.16 516.07C377.089 516.577 376.887 516.808 376.554 516.761C376.396 516.739 376.296 516.587 376.255 516.307C376.234 516.11 376.136 515.999 375.962 515.975C375.693 515.937 375.128 516.157 374.27 516.634C373.325 517.147 372.356 517.778 371.362 518.527C370.384 519.279 369.317 520.26 368.161 521.471L366.739 522.967C366.664 523.038 366.592 523.092 366.522 523.131C366.466 523.187 366.382 523.208 366.271 523.192ZM382.202 526.982C382.075 526.964 381.925 526.879 381.753 526.725C381.594 526.59 381.475 526.46 381.396 526.336C381.239 526.071 381.152 525.768 381.136 525.427C381.119 525.085 381.139 524.716 381.194 524.32C381.241 523.987 381.299 523.632 381.368 523.254C381.456 522.862 381.562 522.449 381.688 522.014C381.209 522.432 380.676 522.834 380.089 523.22C379.519 523.592 378.945 523.883 378.366 524.092C377.803 524.304 377.284 524.377 376.809 524.31C375.621 524.143 375.116 523.425 375.294 522.158C375.479 520.843 376.116 519.64 377.207 518.549C377.751 518.012 378.355 517.507 379.019 517.035C379.683 516.562 380.365 516.198 381.063 515.94C381.762 515.683 382.428 515.599 383.062 515.688C383.537 515.755 383.931 515.996 384.245 516.412C384.285 516.353 384.339 516.255 384.407 516.119C384.49 515.986 384.603 515.816 384.745 515.61C385.241 514.839 385.781 514.043 386.365 513.22C386.952 512.381 387.468 511.694 387.915 511.159C388.419 510.568 388.852 510.297 389.217 510.349C389.47 510.384 389.569 510.6 389.514 510.996C389.418 511.678 388.552 513.18 386.917 515.503C386.818 515.634 386.638 515.876 386.379 516.227C386.138 516.565 385.848 516.96 385.509 517.414C385.189 517.853 384.861 518.292 384.525 518.729C384.189 519.167 383.883 519.56 383.608 519.909C383.35 520.245 383.164 520.477 383.049 520.606C382.775 521.295 382.544 521.957 382.358 522.593C382.174 523.214 382.034 523.865 381.938 524.546C381.902 524.799 381.878 525.03 381.865 525.238C381.865 525.465 381.904 525.648 381.982 525.788C382.047 525.894 382.125 525.978 382.213 526.039C382.299 526.115 382.402 526.186 382.522 526.252C382.706 526.326 382.785 526.45 382.761 526.625C382.721 526.91 382.534 527.029 382.202 526.982ZM384.715 517.205C385.462 516.26 386.127 515.376 386.711 514.553C387.298 513.714 387.789 512.919 388.186 512.167C387.436 512.902 386.783 513.699 386.226 514.557C385.669 515.416 385.165 516.299 384.715 517.205ZM376.743 523.573C377.202 523.638 377.707 523.555 378.256 523.326C378.823 523.082 379.367 522.779 379.887 522.416C380.352 522.093 380.787 521.759 381.191 521.411C381.598 521.048 381.981 520.674 382.342 520.289C382.547 519.752 382.767 519.225 383.001 518.709C383.251 518.195 383.517 517.683 383.798 517.173C383.6 516.741 383.272 516.493 382.812 516.429C382.337 516.362 381.781 516.469 381.143 516.751C380.524 517.02 379.908 517.378 379.296 517.825C378.699 518.274 378.178 518.71 377.731 519.132C376.789 520.082 376.235 521.151 376.068 522.339C375.963 523.084 376.188 523.495 376.743 523.573Z" fill="#F0E6D1"/>
<defs>
<filter id="filter0_d_129_722" x="5" y="29" width="647" height="787" filterUnits="userSpaceOnUse" color-interpolation-filters="sRGB">
<feFlood flood-opacity="0" result="BackgroundImageFix"/>
<feColorMatrix in="SourceAlpha" type="matrix" values="0 0 0 0 0 0 0 0 0 0 0 0 0 0 0 0 0 0 127 0" result="hardAlpha"/>
<feOffset dy="4"/>
<feGaussianBlur stdDeviation="2"/>
<feComposite in2="hardAlpha" operator="out"/>
<feColorMatrix type="matrix" values="0 0 0 0 0.225962 0 0 0 0 0.112874 0 0 0 0 0.0782175 0 0 0 0.3 0"/>
<feBlend mode="normal" in2="BackgroundImageFix" result="effect1_dropShadow_129_722"/>
<feBlend mode="normal" in="SourceGraphic" in2="effect1_dropShadow_129_722" result="shape"/>
</filter>
<filter id="filter1_d_129_722" x="5" y="27" width="645" height="788" filterUnits="userSpaceOnUse" color-interpolation-filters="sRGB">
<feFlood flood-opacity="0" result="BackgroundImageFix"/>
<feColorMatrix in="SourceAlpha" type="matrix" values="0 0 0 0 0 0 0 0 0 0 0 0 0 0 0 0 0 0 127 0" result="hardAlpha"/>
<feOffset dy="4"/>
<feGaussianBlur stdDeviation="2"/>
<feComposite in2="hardAlpha" operator="out"/>
<feColorMatrix type="matrix" values="0 0 0 0 0.225962 0 0 0 0 0.112874 0 0 0 0 0.0782175 0 0 0 0.3 0"/>
<feBlend mode="normal" in2="BackgroundImageFix" result="effect1_dropShadow_129_722"/>
<feBlend mode="normal" in="SourceGraphic" in2="effect1_dropShadow_129_722" result="shape"/>
</filter>
<filter id="filter2_d_129_722" x="5" y="25" width="643" height="789" filterUnits="userSpaceOnUse" color-interpolation-filters="sRGB">
<feFlood flood-opacity="0" result="BackgroundImageFix"/>
<feColorMatrix in="SourceAlpha" type="matrix" values="0 0 0 0 0 0 0 0 0 0 0 0 0 0 0 0 0 0 127 0" result="hardAlpha"/>
<feOffset dy="4"/>
<feGaussianBlur stdDeviation="2"/>
<feComposite in2="hardAlpha" operator="out"/>
<feColorMatrix type="matrix" values="0 0 0 0 0.225962 0 0 0 0 0.112874 0 0 0 0 0.0782175 0 0 0 0.3 0"/>
<feBlend mode="normal" in2="BackgroundImageFix" result="effect1_dropShadow_129_722"/>
<feBlend mode="normal" in="SourceGraphic" in2="effect1_dropShadow_129_722" result="shape"/>
</filter>
<filter id="filter3_d_129_722" x="5" y="23" width="641" height="790" filterUnits="userSpaceOnUse" color-interpolation-filters="sRGB">
<feFlood flood-opacity="0" result="BackgroundImageFix"/>
<feColorMatrix in="SourceAlpha" type="matrix" values="0 0 0 0 0 0 0 0 0 0 0 0 0 0 0 0 0 0 127 0" result="hardAlpha"/>
<feOffset dy="4"/>
<feGaussianBlur stdDeviation="2"/>
<feComposite in2="hardAlpha" operator="out"/>
<feColorMatrix type="matrix" values="0 0 0 0 0.225962 0 0 0 0 0.112874 0 0 0 0 0.0782175 0 0 0 0.3 0"/>
<feBlend mode="normal" in2="BackgroundImageFix" result="effect1_dropShadow_129_722"/>
<feBlend mode="normal" in="SourceGraphic" in2="effect1_dropShadow_129_722" result="shape"/>
</filter>
<filter id="filter4_d_129_722" x="5" y="23" width="639" height="789" filterUnits="userSpaceOnUse" color-interpolation-filters="sRGB">
<feFlood flood-opacity="0" result="BackgroundImageFix"/>
<feColorMatrix in="SourceAlpha" type="matrix" values="0 0 0 0 0 0 0 0 0 0 0 0 0 0 0 0 0 0 127 0" result="hardAlpha"/>
<feOffset dy="4"/>
<feGaussianBlur stdDeviation="2"/>
<feComposite in2="hardAlpha" operator="out"/>
<feColorMatrix type="matrix" values="0 0 0 0 0.225962 0 0 0 0 0.112874 0 0 0 0 0.0782175 0 0 0 0.3 0"/>
<feBlend mode="normal" in2="BackgroundImageFix" result="effect1_dropShadow_129_722"/>
<feBlend mode="normal" in="SourceGraphic" in2="effect1_dropShadow_129_722" result="shape"/>
</filter>
<filter id="filter5_d_129_722" x="5" y="23" width="637" height="788" filterUnits="userSpaceOnUse" color-interpolation-filters="sRGB">
<feFlood flood-opacity="0" result="BackgroundImageFix"/>
<feColorMatrix in="SourceAlpha" type="matrix" values="0 0 0 0 0 0 0 0 0 0 0 0 0 0 0 0 0 0 127 0" result="hardAlpha"/>
<feOffset dy="4"/>
<feGaussianBlur stdDeviation="2"/>
<feComposite in2="hardAlpha" operator="out"/>
<feColorMatrix type="matrix" values="0 0 0 0 0.225962 0 0 0 0 0.112874 0 0 0 0 0.0782175 0 0 0 0.3 0"/>
<feBlend mode="normal" in2="BackgroundImageFix" result="effect1_dropShadow_129_722"/>
<feBlend mode="normal" in="SourceGraphic" in2="effect1_dropShadow_129_722" result="shape"/>
</filter>
<filter id="filter6_d_129_722" x="5" y="23" width="635" height="787" filterUnits="userSpaceOnUse" color-interpolation-filters="sRGB">
<feFlood flood-opacity="0" result="BackgroundImageFix"/>
<feColorMatrix in="SourceAlpha" type="matrix" values="0 0 0 0 0 0 0 0 0 0 0 0 0 0 0 0 0 0 127 0" result="hardAlpha"/>
<feOffset dy="4"/>
<feGaussianBlur stdDeviation="2"/>
<feComposite in2="hardAlpha" operator="out"/>
<feColorMatrix type="matrix" values="0 0 0 0 0.225962 0 0 0 0 0.112874 0 0 0 0 0.0782175 0 0 0 0.3 0"/>
<feBlend mode="normal" in2="BackgroundImageFix" result="effect1_dropShadow_129_722"/>
<feBlend mode="normal" in="SourceGraphic" in2="effect1_dropShadow_129_722" result="shape"/>
</filter>
<filter id="filter7_d_129_722" x="339.191" y="471.276" width="22.7734" height="26.2128" filterUnits="userSpaceOnUse" color-interpolation-filters="sRGB">
<feFlood flood-opacity="0" result="BackgroundImageFix"/>
<feColorMatrix in="SourceAlpha" type="matrix" values="0 0 0 0 0 0 0 0 0 0 0 0 0 0 0 0 0 0 127 0" result="hardAlpha"/>
<feOffset dx="-1" dy="1"/>
<feGaussianBlur stdDeviation="1"/>
<feComposite in2="hardAlpha" operator="out"/>
<feColorMatrix type="matrix" values="0 0 0 0 0.225962 0 0 0 0 0.112874 0 0 0 0 0.0782175 0 0 0 0.3 0"/>
<feBlend mode="normal" in2="BackgroundImageFix" result="effect1_dropShadow_129_722"/>
<feBlend mode="normal" in="SourceGraphic" in2="effect1_dropShadow_129_722" result="shape"/>
</filter>
<filter id="filter8_d_129_722" x="361.465" y="472.248" width="22.4598" height="26.1377" filterUnits="userSpaceOnUse" color-interpolation-filters="sRGB">
<feFlood flood-opacity="0" result="BackgroundImageFix"/>
<feColorMatrix in="SourceAlpha" type="matrix" values="0 0 0 0 0 0 0 0 0 0 0 0 0 0 0 0 0 0 127 0" result="hardAlpha"/>
<feOffset dx="-1" dy="1"/>
<feGaussianBlur stdDeviation="1"/>
<feComposite in2="hardAlpha" operator="out"/>
<feColorMatrix type="matrix" values="0 0 0 0 0.225962 0 0 0 0 0.112874 0 0 0 0 0.0782175 0 0 0 0.3 0"/>
<feBlend mode="normal" in2="BackgroundImageFix" result="effect1_dropShadow_129_722"/>
<feBlend mode="normal" in="SourceGraphic" in2="effect1_dropShadow_129_722" result="shape"/>
</filter>
<filter id="filter9_d_129_722" x="382.635" y="467.81" width="23.621" height="26.325" filterUnits="userSpaceOnUse" color-interpolation-filters="sRGB">
<feFlood flood-opacity="0" result="BackgroundImageFix"/>
<feColorMatrix in="SourceAlpha" type="matrix" values="0 0 0 0 0 0 0 0 0 0 0 0 0 0 0 0 0 0 127 0" result="hardAlpha"/>
<feOffset dx="-1" dy="1"/>
<feGaussianBlur stdDeviation="1"/>
<feComposite in2="hardAlpha" operator="out"/>
<feColorMatrix type="matrix" values="0 0 0 0 0.225962 0 0 0 0 0.112874 0 0 0 0 0.0782175 0 0 0 0.3 0"/>
<feBlend mode="normal" in2="BackgroundImageFix" result="effect1_dropShadow_129_722"/>
<feBlend mode="normal" in="SourceGraphic" in2="effect1_dropShadow_129_722" result="shape"/>
</filter>
<filter id="filter10_d_129_722" x="401.777" y="458.116" width="24.6194" height="26.2313" filterUnits="userSpaceOnUse" color-interpolation-filters="sRGB">
<feFlood flood-opacity="0" result="BackgroundImageFix"/>
<feColorMatrix in="SourceAlpha" type="matrix" values="0 0 0 0 0 0 0 0 0 0 0 0 0 0 0 0 0 0 127 0" result="hardAlpha"/>
<feOffset dx="-1" dy="1"/>
<feGaussianBlur stdDeviation="1"/>
<feComposite in2="hardAlpha" operator="out"/>
<feColorMatrix type="matrix" values="0 0 0 0 0.225962 0 0 0 0 0.112874 0 0 0 0 0.0782175 0 0 0 0.3 0"/>
<feBlend mode="normal" in2="BackgroundImageFix" result="effect1_dropShadow_129_722"/>
<feBlend mode="normal" in="SourceGraphic" in2="effect1_dropShadow_129_722" result="shape"/>
</filter>
<linearGradient id="paint0_linear_129_722" x1="648" y1="404.663" x2="8.9999" y2="406.158" gradientUnits="userSpaceOnUse">
<stop offset="0.85" stop-color="#ECE1CB"/>
<stop offset="1" stop-color="#D4C2A0"/>
</linearGradient>
<linearGradient id="paint1_linear_129_722" x1="646" y1="402.663" x2="8.99988" y2="404.149" gradientUnits="userSpaceOnUse">
<stop offset="0.85" stop-color="#ECE1CB"/>
<stop offset="1" stop-color="#D4C2A0"/>
</linearGradient>
<linearGradient id="paint2_linear_129_722" x1="644" y1="400.663" x2="8.99986" y2="402.14" gradientUnits="userSpaceOnUse">
<stop offset="0.85" stop-color="#ECE1CB"/>
<stop offset="1" stop-color="#D4C2A0"/>
</linearGradient>
<linearGradient id="paint3_linear_129_722" x1="642" y1="398.662" x2="8.99984" y2="400.13" gradientUnits="userSpaceOnUse">
<stop offset="0.85" stop-color="#ECE1CB"/>
<stop offset="1" stop-color="#D4C2A0"/>
</linearGradient>
<linearGradient id="paint4_linear_129_722" x1="640" y1="397.698" x2="8.99983" y2="399.161" gradientUnits="userSpaceOnUse">
<stop offset="0.85" stop-color="#ECE1CB"/>
<stop offset="1" stop-color="#D4C2A0"/>
</linearGradient>
<linearGradient id="paint5_linear_129_722" x1="638" y1="396.734" x2="8.99983" y2="398.191" gradientUnits="userSpaceOnUse">
<stop offset="0.85" stop-color="#ECE1CB"/>
<stop offset="1" stop-color="#D4C2A0"/>
</linearGradient>
<linearGradient id="paint6_linear_129_722" x1="636" y1="395.769" x2="8.99983" y2="397.221" gradientUnits="userSpaceOnUse">
<stop offset="0.5" stop-color="#ECE1CB"/>
<stop offset="0.65" stop-color="#F8EBD3"/>
<stop offset="0.8" stop-color="#ECE1CB"/>
<stop offset="1" stop-color="#D4C2A0"/>
</linearGradient>
<linearGradient id="paint7_linear_129_722" x1="436.425" y1="379.836" x2="393.5" y2="417.338" gradientUnits="userSpaceOnUse">
<stop offset="0.129808" stop-color="#DD954D"/>
<stop offset="0.475962" stop-color="#D0883E"/>
</linearGradient>
<radialGradient id="paint8_radial_129_722" cx="0" cy="0" r="1" gradientUnits="userSpaceOnUse" gradientTransform="translate(360.788 445.253) rotate(138.857) scale(61.0002 61)">
<stop offset="0.735577" stop-color="#DD954D"/>
<stop offset="1" stop-color="#D0883E"/>
</radialGradient>
<linearGradient id="paint9_linear_129_722" x1="456.25" y1="408" x2="646.05" y2="408" gradientUnits="userSpaceOnUse">
<stop offset="0.6" stop-color="#814330"/>
<stop offset="0.899038" stop-color="#7B3A26"/>
<stop offset="1" stop-color="#814330"/>
</linearGradient>
</defs>
</svg>
