<svg width="78" height="65" viewBox="0 0 78 65" fill="none" xmlns="http://www.w3.org/2000/svg">
<path d="M2 63C2 63 18.3235 48.8843 22.1324 43.3388C25.9412 37.7934 32.4706 34.2645 32.4706 34.2645C32.4706 34.2645 23.185 27.4571 17.2353 21.157C11.2855 14.857 2 3.51239 2 3.51239C2 3.51239 30.5359 2 44.9853 2C59.4347 2 76 3.51239 76 3.51239V63C76 63 59.4347 61.4876 44.9853 61.4876C30.5359 61.4876 2 63 2 63Z" fill="#F6CD8B"/>
<path d="M2 63C2 63 18.3235 48.8843 22.1324 43.3388C25.9412 37.7934 32.4706 34.2645 32.4706 34.2645C32.4706 34.2645 23.185 27.4571 17.2353 21.157C11.2855 14.857 2 3.51239 2 3.51239C2 3.51239 30.5359 2 44.9853 2C59.4347 2 76 3.51239 76 3.51239V63C76 63 59.4347 61.4876 44.9853 61.4876C30.5359 61.4876 2 63 2 63Z" fill="#F6CD8B"/>
<path d="M2 63C2 63 18.3235 48.8843 22.1324 43.3388C25.9412 37.7934 32.4706 34.2645 32.4706 34.2645C32.4706 34.2645 23.185 27.4571 17.2353 21.157C11.2855 14.857 2 3.51239 2 3.51239C2 3.51239 30.5359 2 44.9853 2C59.4347 2 76 3.51239 76 3.51239V63C76 63 59.4347 61.4876 44.9853 61.4876C30.5359 61.4876 2 63 2 63Z" fill="#F6CD8B"/>
<path d="M2 63C2 63 18.3235 48.8843 22.1324 43.3388C25.9412 37.7934 32.4706 34.2645 32.4706 34.2645C32.4706 34.2645 23.185 27.4571 17.2353 21.157C11.2855 14.857 2 3.51239 2 3.51239C2 3.51239 30.5359 2 44.9853 2C59.4347 2 76 3.51239 76 3.51239V63C76 63 59.4347 61.4876 44.9853 61.4876C30.5359 61.4876 2 63 2 63Z" stroke="#B97532" stroke-width="4"/>
</svg>
