<svg width="74" height="75" viewBox="0 0 74 75" fill="none" xmlns="http://www.w3.org/2000/svg">
<path d="M4.80469 3.56543C7.70175 3.39134 11.7145 3.15884 16.1777 2.92676C25.119 2.46183 35.8185 2 42.9854 2C50.1354 2 57.8307 2.46078 63.7549 2.92383C66.7133 3.15507 69.223 3.38628 70.9912 3.55957C71.3609 3.5958 71.6979 3.63149 72 3.66211V72.7822C71.805 72.7627 71.5985 72.7401 71.3809 72.7188C69.5916 72.5434 67.0562 72.3098 64.0674 72.0762C58.4699 71.6387 51.2538 71.1988 44.3594 71.1455L42.9854 71.1406C35.7029 71.1406 24.9097 71.6084 15.9707 72.0732C11.6376 72.2986 7.7282 72.5247 4.84766 72.6973C6.34064 71.061 8.19728 69.0028 10.1406 66.7891C14.6566 61.6446 19.8491 55.4335 21.8779 51.8018C23.6424 48.6431 26.0651 46.0179 28.083 44.1641C29.0857 43.2429 29.9735 42.526 30.6055 42.043C30.9211 41.8018 31.1717 41.6193 31.3398 41.5C31.4237 41.4405 31.487 41.3968 31.5273 41.3691C31.5473 41.3555 31.5619 41.3455 31.5703 41.3398C31.5733 41.3378 31.5757 41.3359 31.5771 41.335L33.7236 39.9092L31.8096 38.1836L31.8086 38.1826C31.8078 38.1819 31.8063 38.1811 31.8047 38.1797C31.8008 38.1762 31.7943 38.1705 31.7861 38.1631C31.7695 38.148 31.7445 38.1243 31.7109 38.0938C31.6438 38.0327 31.5432 37.9418 31.4131 37.8223C31.1526 37.5829 30.7726 37.2304 30.2969 36.7832C29.345 35.8884 28.0127 34.614 26.4971 33.1006C23.6446 30.2522 20.1818 26.5963 17.374 23.0439L16.8213 22.335C13.8808 18.5067 10.0972 13.1202 7.03418 8.66797C5.70944 6.74238 4.52359 4.99815 3.60547 3.63965C3.97981 3.61682 4.38032 3.59093 4.80469 3.56543Z" fill="#A8B5FF" stroke="#8291EA" stroke-width="4"/>
</svg>
