<svg width="74" height="85" viewBox="0 0 74 85" fill="none" xmlns="http://www.w3.org/2000/svg">
<path d="M4.82031 3.77344C7.71685 3.57617 11.729 3.31278 16.1914 3.0498C25.1328 2.52287 35.8262 2 42.9854 2C50.1255 2 57.8131 2.52137 63.7344 3.0459C66.6906 3.30778 69.1981 3.56939 70.9648 3.76562C71.3452 3.80788 71.6913 3.84927 72 3.88477V82.751C71.8125 82.7298 71.6143 82.7057 71.4062 82.6826C69.6156 82.4837 67.0786 82.219 64.0879 81.9541C58.4876 81.458 51.2647 80.9589 44.3613 80.8984L42.9854 80.8926C35.6951 80.8926 24.895 81.4234 15.9561 81.9502C11.4787 82.2141 7.45413 82.4779 4.54883 82.6758C4.52372 82.6775 4.49857 82.6799 4.47363 82.6816C6.03481 80.7483 8.07368 78.1932 10.2188 75.4238C14.7417 69.5845 19.9144 62.568 21.9258 58.4873C23.7105 54.8665 26.1518 51.8718 28.1719 49.7686C29.1774 48.7216 30.0674 47.9075 30.7002 47.3594C31.0163 47.0856 31.2672 46.8786 31.4355 46.7432C31.5197 46.6755 31.5836 46.6261 31.624 46.5947C31.6442 46.5791 31.6586 46.5679 31.667 46.5615C31.6696 46.5595 31.6714 46.5577 31.6729 46.5566H31.6738L33.4922 45.1865L31.8994 43.5596L31.8945 43.5547C31.8906 43.5506 31.8843 43.5437 31.876 43.5352C31.8594 43.5181 31.8341 43.4924 31.8008 43.458C31.7336 43.3887 31.6333 43.2842 31.5029 43.1484C31.2422 42.8769 30.8609 42.478 30.3848 41.9707C29.4322 40.9559 28.0998 39.5105 26.583 37.7939C23.5395 34.3496 19.795 29.8576 16.8906 25.5723C13.946 21.2276 10.1592 15.1179 7.0957 10.0713C5.62377 7.64648 4.32371 5.47496 3.37109 3.875C3.81558 3.84419 4.29985 3.80888 4.82031 3.77344Z" fill="#FCA999" stroke="#EA7E6E" stroke-width="4"/>
</svg>
