<svg width="74" height="87" viewBox="0 0 74 87" fill="none" xmlns="http://www.w3.org/2000/svg">
<path d="M4.82324 3.81543C7.71971 3.61353 11.7321 3.34435 16.1943 3.0752C25.1358 2.53586 35.8277 2 42.9854 2C50.1236 2 57.8098 2.53349 63.7305 3.07031C66.6865 3.33833 69.1934 3.60679 70.96 3.80762C71.3425 3.85111 71.69 3.8932 72 3.92969V84.7451C71.8141 84.7236 71.6182 84.6992 71.4121 84.6758C69.6211 84.4722 67.0833 84.2009 64.0918 83.9297C58.4908 83.4219 51.2666 82.9115 44.3613 82.8496L42.9854 82.8428C35.6937 82.8428 24.8929 83.3856 15.9541 83.9248C11.4765 84.1949 7.45137 84.4654 4.5459 84.668C4.50019 84.6712 4.45433 84.6746 4.40918 84.6777C5.97994 82.6878 8.05182 80.0338 10.2324 77.1523C14.7566 71.174 19.9263 63.9963 21.9346 59.8262C23.7229 56.1127 26.1678 53.044 28.1885 50.8906C29.1946 49.8184 30.0847 48.9841 30.7178 48.4229C31.0339 48.1426 31.2847 47.9306 31.4531 47.792C31.5373 47.7227 31.6012 47.6718 31.6416 47.6396C31.6617 47.6236 31.6762 47.612 31.6846 47.6055C31.688 47.6028 31.691 47.6017 31.6924 47.6006L33.4541 46.2422L31.916 44.6338L31.9111 44.6289C31.9072 44.6248 31.9008 44.6181 31.8926 44.6094C31.8759 44.5918 31.85 44.5648 31.8164 44.5293C31.7492 44.4584 31.6487 44.3526 31.5186 44.2139C31.2578 43.9359 30.8766 43.5271 30.4004 43.0078C29.4477 41.969 28.1147 40.4896 26.5977 38.7324C23.7441 35.427 20.2742 31.1774 17.457 27.043L16.9033 26.2178C13.9579 21.7697 10.17 15.5151 7.10645 10.3496C5.60856 7.82398 4.28795 5.56729 3.33105 3.92188C3.78722 3.88949 4.28596 3.85288 4.82324 3.81543Z" fill="#CFCB62" stroke="#939154" stroke-width="4"/>
</svg>
