<svg width="106" height="73" viewBox="0 0 106 73" fill="none" xmlns="http://www.w3.org/2000/svg">
<path d="M3 70C3 70 26.1405 54.5588 35.2314 50.9559C44.3223 47.3529 50.1074 41.1765 50.1074 41.1765C50.1074 41.1765 61.2671 49.9601 71.595 55.5882C81.923 61.2164 100.521 70 100.521 70C100.521 70 103 43.0066 103 29.3382C103 15.6699 100.521 0 100.521 0H3C3 0 5.47934 15.6699 5.47934 29.3382C5.47934 43.0066 3 70 3 70Z" fill="#FCA999"/>
<path d="M3 70C3 70 26.1405 54.5588 35.2314 50.9559C44.3223 47.3529 50.1074 41.1765 50.1074 41.1765C50.1074 41.1765 61.2671 49.9601 71.595 55.5882C81.923 61.2164 100.521 70 100.521 70C100.521 70 103 43.0066 103 29.3382C103 15.6699 100.521 0 100.521 0H3C3 0 5.47934 15.6699 5.47934 29.3382C5.47934 43.0066 3 70 3 70Z" fill="#FCA999"/>
<path d="M3 70C3 70 26.1405 54.5588 35.2314 50.9559C44.3223 47.3529 50.1074 41.1765 50.1074 41.1765C50.1074 41.1765 61.2671 49.9601 71.595 55.5882C81.923 61.2164 100.521 70 100.521 70C100.521 70 103 43.0066 103 29.3382C103 15.6699 100.521 0 100.521 0H3C3 0 5.47934 15.6699 5.47934 29.3382C5.47934 43.0066 3 70 3 70Z" fill="#FCA999"/>
<path d="M3 70C3 70 26.1405 54.5588 35.2314 50.9559C44.3223 47.3529 50.1074 41.1765 50.1074 41.1765C50.1074 41.1765 61.2671 49.9601 71.595 55.5882C81.923 61.2164 100.521 70 100.521 70C100.521 70 103 43.0066 103 29.3382C103 15.6699 100.521 0 100.521 0H3C3 0 5.47934 15.6699 5.47934 29.3382C5.47934 43.0066 3 70 3 70Z" stroke="#EA7E6E" stroke-width="4"/>
</svg>
