<svg width="117" height="70" viewBox="0 0 117 70" fill="none" xmlns="http://www.w3.org/2000/svg">
<path d="M115.782 1C115.782 1.00804 115.783 1.01628 115.783 1.02441C115.797 1.67047 115.816 2.60721 115.837 3.76953C115.879 6.09476 115.929 9.32242 115.963 12.9307C116.03 20.1541 116.03 28.8807 115.762 34.9561C115.491 41.09 115.491 49.8637 115.559 57.0879C115.592 60.7034 115.643 63.9371 115.686 66.2666C115.697 66.8816 115.707 67.4336 115.717 67.9131C114.742 67.1344 113.412 66.0463 111.931 64.7666C108.881 62.1315 105.239 58.7227 102.743 55.5449C100.125 52.2112 96.3637 48.7015 93.29 46.0459C91.7472 44.7129 90.3653 43.5848 89.3691 42.79C88.8711 42.3927 88.4687 42.0779 88.1904 41.8623C88.0514 41.7546 87.9429 41.6716 87.8691 41.6152C87.8324 41.5871 87.8044 41.5654 87.7852 41.5508C87.7755 41.5435 87.7677 41.538 87.7627 41.5342C87.7602 41.5323 87.7582 41.5303 87.7568 41.5293L87.7559 41.5283H87.7549L87.1348 41.0586L86.5273 41.5449L87.1514 42.3252C86.5268 41.545 86.5265 41.5448 86.5264 41.5449V41.5459L86.5244 41.5469C86.5232 41.5478 86.5216 41.5491 86.5195 41.5508C86.5148 41.5546 86.5071 41.5601 86.498 41.5674C86.4799 41.582 86.4536 41.6038 86.4189 41.6318C86.3493 41.6882 86.2468 41.7712 86.1152 41.8789C85.8519 42.0944 85.4706 42.4093 84.998 42.8066C84.0532 43.601 82.7407 44.7284 81.2666 46.0605C78.3278 48.7163 74.7104 52.2209 72.0996 55.5449C69.6219 58.6995 66.1062 62.1133 63.1836 64.7568C61.7273 66.0741 60.4272 67.1917 59.4922 67.9795C59.1408 68.2756 58.8395 68.523 58.6025 68.7188C58.354 68.5235 58.0369 68.2745 57.667 67.9756C56.7009 67.1949 55.3677 66.0866 53.9023 64.7773C50.9539 62.1431 47.536 58.7544 45.457 55.6113C43.2292 52.243 39.649 48.713 36.6758 46.0566C35.1803 44.7206 33.8213 43.5903 32.8359 42.7939C32.343 42.3956 31.9426 42.0805 31.665 41.8643C31.5266 41.7563 31.4186 41.6729 31.3447 41.6162C31.3077 41.5878 31.2792 41.5655 31.2598 41.5508C31.2501 41.5434 31.2424 41.5381 31.2373 41.5342C31.2347 41.5322 31.2328 41.5304 31.2314 41.5293L31.2295 41.5283L30.626 42.3252L31.2285 41.5283L30.5107 40.9854L29.8965 41.6416L29.8896 41.6484C29.8854 41.6529 29.8795 41.6601 29.8711 41.6689C29.854 41.6871 29.8286 41.7143 29.7949 41.75C29.7274 41.8215 29.6268 41.9272 29.4971 42.0635C29.2373 42.3364 28.8585 42.7317 28.3857 43.2188C27.44 44.1931 26.1181 45.5348 24.6123 47.002C21.5852 49.9515 17.8692 53.357 14.9854 55.3389C11.9473 57.4268 8.12573 60.9402 5.09668 63.8916C3.62405 65.3265 2.32578 66.641 1.37793 67.6162C1.36237 67.2274 1.34365 66.7954 1.32617 66.3252C1.24222 64.066 1.14138 60.9185 1.07422 57.3652C0.939692 50.2471 0.941649 41.5396 1.47559 35.082C2.01843 28.5164 2.01651 19.7236 1.88184 12.5977C1.8144 9.02934 1.7132 5.8689 1.62891 3.60059C1.58838 2.50999 1.55155 1.62499 1.52441 1H115.782Z" fill="#C66260" stroke="#BD5351" stroke-width="2"/>
</svg>
