<svg width="74" height="83" viewBox="0 0 74 83" fill="none" xmlns="http://www.w3.org/2000/svg">
<path d="M4.81738 3.73145C7.71409 3.53881 11.7269 3.28219 16.1895 3.02539C25.1307 2.51087 35.8248 2 42.9854 2C50.1276 2 57.8174 2.50924 63.7393 3.02148C66.6959 3.27724 69.2037 3.53296 70.9707 3.72461C71.3488 3.76562 71.6927 3.80632 72 3.84082V80.7578C71.811 80.7369 71.6113 80.7132 71.4014 80.6904C69.611 80.4962 67.0744 80.2372 64.084 79.9785C58.4841 79.4941 51.2621 79.0072 44.3604 78.9482L42.9854 78.9424C35.6967 78.9424 24.8979 79.4602 15.959 79.9746C11.4816 80.2323 7.45701 80.4894 4.55176 80.6826C4.54817 80.6829 4.5446 80.6834 4.54102 80.6836C6.09129 78.808 8.09741 76.3534 10.2051 73.6963C14.7267 67.996 19.9033 61.1405 21.918 57.1494C23.6989 53.6214 26.1359 50.7005 28.1553 48.6475C29.1602 47.6258 30.05 46.8309 30.6826 46.2959C30.9985 46.0288 31.2497 45.8274 31.418 45.6953C31.5019 45.6294 31.5651 45.5805 31.6055 45.5498C31.6254 45.5347 31.64 45.5239 31.6484 45.5176C31.6521 45.5149 31.6549 45.5127 31.6563 45.5117V45.5107L33.5332 44.1309L31.8828 42.4844H31.8818C31.881 42.4835 31.8799 42.4815 31.8779 42.4795L31.7842 42.3857C31.717 42.3181 31.6165 42.2164 31.4863 42.084C31.2256 41.8189 30.8442 41.4288 30.3682 40.9336C29.4158 39.9429 28.0837 38.5321 26.5674 36.8564C23.524 33.4933 19.7807 29.1079 16.8779 24.9258C13.9342 20.6845 10.1483 14.7197 7.08496 9.79199C5.63989 7.46744 4.36067 5.38078 3.41309 3.82715C3.84517 3.79792 4.31449 3.76489 4.81738 3.73145Z" fill="#94CBDB" stroke="#588E9D" stroke-width="4"/>
</svg>
