<svg width="74" height="96" viewBox="0 0 74 96" fill="none" xmlns="http://www.w3.org/2000/svg">
<path d="M69.1621 4.00195C66.2661 3.77919 62.2545 3.4825 57.793 3.18555C48.8514 2.59041 38.1653 2 31.0146 2C23.8853 2 16.2061 2.5876 10.2881 3.17969C7.33406 3.47523 4.82879 3.77171 3.06348 3.99316C2.67136 4.04235 2.31572 4.08982 2 4.13086V93.7168C2.17913 93.6939 2.36778 93.6683 2.56543 93.6436C4.3576 93.4187 6.89659 93.1198 9.88965 92.8203C15.493 92.2597 22.7234 91.6953 29.6367 91.627L31.0146 91.6201C38.3133 91.6201 49.1199 92.2195 58.0586 92.8145C62.5371 93.1125 66.5628 93.4103 69.4688 93.6338C69.5945 93.6435 69.7183 93.6537 69.8398 93.6631C69.8147 93.6281 69.7891 93.5931 69.7637 93.5576C68.1684 91.3311 66.0013 88.2693 63.7129 84.9326C59.1839 78.3288 54.0295 70.4293 52.0342 65.8574C50.231 61.7259 47.7716 58.3211 45.7471 55.9404C44.7381 54.754 43.8454 53.8316 43.2109 53.2109C42.8939 52.9008 42.6416 52.6661 42.4727 52.5127C42.3886 52.4363 42.3248 52.3804 42.2842 52.3447C42.2639 52.3269 42.2487 52.314 42.2402 52.3066C42.2375 52.3043 42.2358 52.302 42.2344 52.3008H42.2334L40.6963 50.9922L42.0176 49.4668H42.0186L42.0195 49.4658C42.0204 49.4648 42.0216 49.4631 42.0234 49.4609C42.0274 49.4563 42.0336 49.4491 42.042 49.4395C42.0587 49.42 42.0845 49.3908 42.1182 49.3516C42.1855 49.2731 42.2856 49.1554 42.416 49.002C42.6771 48.6949 43.0586 48.2433 43.5352 47.6699C44.4886 46.5227 45.8226 44.8888 47.3408 42.9482C50.3856 39.0565 54.1369 33.9742 57.0498 29.1201C59.9984 24.2066 63.7878 17.2999 66.8516 11.5996C68.3809 8.75426 69.725 6.21766 70.6865 4.39258C70.733 4.30438 70.7786 4.21764 70.8232 4.13281C70.3222 4.09347 69.7665 4.04844 69.1621 4.00195Z" fill="#ECE1CB" stroke="#D4C2A0" stroke-width="4"/>
</svg>
