<svg width="142" height="142" viewBox="0 0 142 142" fill="none" xmlns="http://www.w3.org/2000/svg">
<path d="M71.4999 21C81.2368 21 93.5915 21.4992 103.522 21.999C108.485 22.2488 112.839 22.4982 115.951 22.6855C117.507 22.7792 118.754 22.8575 119.61 22.9121C119.751 22.9211 119.881 22.9289 120 22.9365V99.0078C119.933 99.076 119.864 99.1505 119.794 99.2344C119.409 99.696 118.869 100.525 118.105 102.053C117.281 103.702 118.051 105.504 118.709 106.618C119.065 107.22 119.455 107.736 119.754 108.099C119.843 108.207 119.928 108.301 120 108.383V120.831C119.493 120.754 118.83 120.655 118.026 120.541C116.027 120.258 113.159 119.882 109.68 119.506C102.723 118.753 93.3105 118 83.4999 118C73.7045 118 58.0527 118.752 44.871 119.502C38.2756 119.877 32.2908 120.252 27.955 120.533C25.7872 120.674 24.0313 120.791 22.8173 120.873C22.5093 120.894 22.2361 120.913 21.9999 120.929V22.9385C22.1307 22.9303 22.2744 22.9218 22.4306 22.9121C23.3147 22.8575 24.5998 22.7792 26.2031 22.6855C29.4096 22.4982 33.8883 22.2488 38.9765 21.999C49.1579 21.4992 61.7627 21 71.4999 21Z" fill="#EA4472" stroke="#C92F5A" stroke-width="2"/>
<path d="M96.0831 43.6082C97.0009 42.9281 98.158 44.0707 97.4895 44.997L80.2543 68.8781C79.4896 69.9375 79.4987 71.3707 80.2765 72.4204L97.8104 96.0831C98.4905 97.0009 97.3479 98.158 96.4216 97.4895L72.5405 80.2543C71.481 79.4897 70.0479 79.4987 68.9981 80.2765L45.3355 97.8104C44.4176 98.4905 43.2606 97.3479 43.9291 96.4216L61.1643 72.5405C61.9289 71.481 61.9199 70.0479 61.142 68.9981L43.6082 45.3355C42.9281 44.4176 44.0707 43.2606 44.997 43.9291L68.8781 61.1643C69.9375 61.9289 71.3707 61.9199 72.4204 61.142L96.0831 43.6082Z" fill="#F5F5F5" stroke="#C92F5A" stroke-width="2"/>
</svg>
