<svg width="199" height="87" viewBox="0 0 199 87" fill="none" xmlns="http://www.w3.org/2000/svg">
<path d="M53.3093 1H178.302C188.795 1 197.302 9.50659 197.302 20V66.0762C197.301 76.5695 188.795 85.0762 178.302 85.0762H53.8347C49.8558 85.0761 45.9958 83.8396 42.7986 81.4893C37.5289 77.6154 29.1714 71.3753 22.1355 65.6885C18.6151 62.843 15.4427 60.1496 13.157 57.9678C12.0119 56.8747 11.1111 55.9303 10.5037 55.1729C10.1993 54.7933 9.98605 54.4827 9.85425 54.2412C9.71009 53.977 9.71655 53.8915 9.71655 53.9336V31.5977C9.71655 31.2894 9.92103 30.6978 10.5603 29.7812C11.1709 28.9058 12.0774 27.8738 13.2332 26.7197C15.5413 24.415 18.7471 21.7176 22.3044 18.9395C29.4131 13.3878 37.829 7.58879 43.033 4.09082C45.8755 2.18012 49.1965 1.13576 52.6228 1.0127L53.3093 1Z" fill="#DD954D" stroke="#B46E36" stroke-width="2"/>
<path d="M5.0791 39.1349H19.4258C21.0826 39.1349 22.4258 40.4781 22.4258 42.1349V45.0304C22.4258 46.6873 21.0826 48.0304 19.4258 48.0304H4.64453C2.81053 48.0303 1.40567 46.3989 1.67773 44.5851L2.1123 41.6896C2.33271 40.2212 3.59421 39.1349 5.0791 39.1349Z" fill="#824736" stroke="#622E1E" stroke-width="2"/>
</svg>
