<svg width="272" height="36" viewBox="0 0 272 36" fill="none" xmlns="http://www.w3.org/2000/svg">
<path d="M1 31.3703C5.34261 31.3703 9.75102 31.3703 14.5918 31.1376C20.3985 30.8586 32.0901 29.6126 40.8176 26.5765M40.8176 26.5765C46.8167 24.4896 51.2184 23.3313 56.3176 21.1036C61.4169 18.8759 63.2607 15.0902 63.8176 14.4604C64.7707 13.3827 65.9767 6.86324 59.8176 6.61649C54.8534 6.41761 49.2498 9.83816 46.8176 12.3408C44.9172 14.2963 40.9915 22.013 40.8176 26.5765ZM40.8176 26.5765C40.6568 30.7969 46.8176 33.6403 52.3176 33.6403C62.4092 33.6403 73.1784 32.5335 78.3176 31.2081C82.0369 30.249 88.5313 28.6115 94.9042 26.5765M94.9042 26.5765C108.013 22.3905 126.798 15.2242 123.818 6.61649C121.818 0.84079 114.947 3.21649 109.818 5.34079C102.318 8.4466 99.9696 12.4019 98.3176 14.6766C96.2757 17.4882 94.6809 22.5041 94.9042 26.5765ZM94.9042 26.5765C95.0535 29.2997 103.21 29.3329 105.758 29.3329M105.758 29.3329C108.758 29.3329 101.406 29.3306 105.758 29.3329ZM105.758 29.3329C110.11 29.3353 118.175 29.1802 128.378 28.2473C138.582 27.3144 150.679 25.6083 157.454 24.5744C165.337 23.3713 170.155 22.5065 177.811 21.1036C187.318 19.3615 192.318 17.3197 197.818 14.6766C202.05 12.6427 206.12 7.9254 204.55 3.81308C202.544 -1.44127 186.318 1.34079 177.811 6.61649C168.622 12.3152 163.622 17.5717 161.74 19.9239C160.434 21.556 160.323 24.3065 160.555 26.5765C160.827 29.228 166.42 30.0355 169.318 30.2729C174.254 30.6772 185.036 30.7372 194.818 30.2729C203.942 29.8398 213.576 29.1802 217.392 28.4C224.404 26.9666 230.18 26.2052 233.456 25.1901C241.66 22.6476 244.28 22.1305 247.335 20.6454C249.069 19.8021 260.318 14.4604 257.521 9.9228C254.725 5.38516 240.598 10.5878 234.611 14.6766M234.611 14.6766C231.666 16.6877 236.415 13.1845 234.611 14.6766ZM234.611 14.6766C232.785 16.1863 221.574 24.7153 226.818 30.2729C230.68 34.3669 234.234 34.3408 240.818 34.3408C244.783 34.3408 252.448 33.7202 257.521 33.4875C265.231 32.7896 268.878 32.3102 270.598 32.2327" stroke="#B46E36" stroke-width="2" stroke-linecap="round"/>
</svg>
