<svg width="24" height="20" viewBox="0 0 24 20" fill="none" xmlns="http://www.w3.org/2000/svg">
<path d="M6.65003 10C6.65003 10.7502 7.37981 11.3583 8.28003 11.3583C9.18026 11.3583 9.91003 10.7502 9.91003 10C9.91003 9.24981 9.18026 8.64166 8.28003 8.64166C7.37981 8.64166 6.65003 9.24981 6.65003 10Z" fill="#763B29"/>
<path d="M14.47 15.2334H15.72C18.42 15.2334 22 14.6917 22 10C22 5.30835 18.42 4.76669 15.72 4.76669H14.47C14.12 2.43335 12.7 1.66669 9.21 1.66669H7.35C3.25 1.66669 2 2.70835 2 6.12502V13.875C2 17.2917 3.25 18.3334 7.35 18.3334H9.21C12.7 18.3334 14.12 17.5667 14.47 15.2334ZM5.26 10C5.26 8.60835 6.62 7.48335 8.28 7.48335C9.95 7.48335 11.3 8.61669 11.3 10C11.3 11.3834 9.94 12.5167 8.28 12.5167C6.61 12.5167 5.26 11.3917 5.26 10ZM14.56 6.12502C14.56 6.05835 14.56 6.00002 14.56 5.93335H15.72C18.65 5.93335 20.6 6.62502 20.6 10C20.6 13.375 18.65 14.0667 15.72 14.0667H14.55C14.55 14 14.55 13.9417 14.55 13.875V6.12502H14.56Z" fill="#763B29"/>
</svg>
