<svg width="190" height="174" viewBox="0 0 190 174" fill="none" xmlns="http://www.w3.org/2000/svg">
<g filter="url(#filter0_d_121_673)">
<path d="M59.1548 135.051C70.9926 135.051 80.2307 142.86 80.231 152.093C80.231 154.416 79.658 155.965 78.7368 157.039C77.8051 158.125 76.4096 158.85 74.5259 159.313C72.638 159.777 70.3483 159.954 67.7261 160.01C65.0966 160.067 62.2372 160.001 59.1548 160.001C56.0724 160.001 53.213 160.067 50.5835 160.01C47.9611 159.954 45.6707 159.777 43.7827 159.313C41.8992 158.85 40.5045 158.124 39.5728 157.039C38.6516 155.965 38.0786 154.416 38.0786 152.093C38.0789 142.86 47.3169 135.051 59.1548 135.051Z" fill="#D9D9D9" stroke="#AAAAAA" stroke-width="2"/>
<line x1="1" y1="-1" x2="4.69849" y2="-1" transform="matrix(0.90206 0.431611 -0.341085 0.940032 62.5359 147.754)" stroke="#767676" stroke-width="2" stroke-linecap="round"/>
<line x1="1" y1="-1" x2="4.69849" y2="-1" transform="matrix(0.90206 -0.431611 0.341085 0.940032 49.4097 150.214)" stroke="#767676" stroke-width="2" stroke-linecap="round"/>
<line x1="57.5696" y1="153.606" x2="59.5473" y2="153.606" stroke="#767676" stroke-width="2" stroke-linecap="round"/>
</g>
<g filter="url(#filter1_d_121_673)">
<path d="M80.9458 67.9622C83.1693 67.1238 85.7086 67.5927 88.0591 68.3851C89.2233 68.7775 90.2777 69.2256 91.2017 69.598C91.654 69.7803 92.0864 69.9485 92.4683 70.0716C92.8299 70.1881 93.2414 70.2972 93.6235 70.2972C94.4188 70.2972 95.5879 70.0415 96.8228 69.7386C98.1353 69.4166 99.5479 69.0328 101.083 68.6683C102.593 68.3099 104.109 67.9986 105.475 67.8509C106.863 67.7008 107.989 67.7327 108.768 67.9798C110.849 68.6393 112.348 69.8335 113.384 71.5325C114.435 73.2559 115.043 75.5566 115.211 78.4593C115.477 83.0492 112.898 88.0619 110.557 90.8421C103.084 99.7188 95.9388 100.84 93.6235 100.84C91.3693 100.84 85.1774 99.5392 78.2134 90.8597C76.9057 89.2298 75.5158 87.2031 74.5112 85.0335C73.5031 82.8562 72.9159 80.6054 73.1187 78.4974C73.3971 75.6027 74.3098 73.3795 75.647 71.6868C76.9864 69.9913 78.7945 68.7735 80.9458 67.9622Z" fill="#F6C5C4" stroke="#E88E8D" stroke-width="2"/>
<path d="M83.8054 77.3116L87.6387 79.7306" stroke="#9C4645" stroke-width="2" stroke-linecap="round"/>
<path d="M83.9952 82.2174L87.6388 79.7306" stroke="#9C4645" stroke-width="2" stroke-linecap="round"/>
<path d="M104.024 77.3115L100.191 79.7305" stroke="#9C4645" stroke-width="2" stroke-linecap="round"/>
<path d="M103.835 82.2173L100.191 79.7305" stroke="#9C4645" stroke-width="2" stroke-linecap="round"/>
<path d="M96.5601 83.4847C96.5601 83.4847 93.6167 88.8401 90.9185 83.689" stroke="#9C4645" stroke-width="2" stroke-linecap="round"/>
</g>
<g filter="url(#filter2_d_121_673)">
<path d="M131.528 9C135.802 9 139.122 9.84855 142.604 12.0742C144.699 13.4136 146.453 16.1886 147.709 18.7939C148.325 20.0709 148.799 21.2596 149.12 22.1289C149.279 22.5627 149.401 22.9154 149.481 23.1582C149.521 23.2796 149.551 23.3741 149.571 23.4365C149.574 23.4468 149.577 23.4563 149.58 23.4648C149.586 23.508 149.597 23.5718 149.61 23.6553C149.636 23.8262 149.672 24.0789 149.715 24.4014C149.802 25.0469 149.915 25.9718 150.02 27.082C150.23 29.3071 150.404 32.2579 150.268 35.1953C150.131 38.1545 149.683 40.9984 148.712 43.0703C147.762 45.099 146.399 46.2461 144.378 46.2461C143.219 46.2461 142.396 45.8635 141.78 45.3115C141.143 44.7406 140.683 43.9467 140.359 43.085C140.037 42.228 139.868 41.357 139.782 40.6904C139.739 40.3597 139.717 40.0851 139.706 39.8965C139.7 39.8023 139.697 39.7297 139.696 39.6826C139.695 39.6592 139.695 39.6421 139.695 39.6318V39.6201C139.691 39.0699 139.242 38.6264 138.692 38.6279C138.141 38.6296 137.696 39.0758 137.695 39.626V39.6348C137.695 39.6441 137.695 39.6611 137.694 39.6836C137.692 39.7287 137.689 39.7989 137.683 39.8906C137.671 40.0748 137.647 40.344 137.598 40.6689C137.499 41.3239 137.302 42.1803 136.919 43.0234C136.537 43.8652 135.984 44.6631 135.184 45.25C134.396 45.8286 133.309 46.246 131.776 46.2461C130.384 46.2461 129.4 45.8393 128.681 45.2715C127.948 44.6917 127.433 43.8974 127.075 43.0488C126.717 42.2008 126.534 41.3382 126.441 40.6787C126.395 40.3519 126.372 40.0813 126.361 39.8955C126.355 39.8028 126.352 39.7314 126.351 39.6855C126.35 39.6626 126.35 39.6455 126.35 39.6357C126.35 39.6311 126.35 39.6273 126.35 39.626C126.349 39.0784 125.908 38.6333 125.36 38.6279C124.812 38.6227 124.362 39.0591 124.35 39.6064V39.6172C124.35 39.6272 124.349 39.6447 124.348 39.668C124.346 39.7145 124.343 39.7865 124.335 39.8799C124.321 40.0672 124.294 40.34 124.245 40.6689C124.144 41.3322 123.954 42.1997 123.599 43.0537C123.244 43.9102 122.742 44.7076 122.043 45.2861C121.363 45.85 120.449 46.2461 119.172 46.2461C117.807 46.2461 116.765 45.6623 115.921 44.6162C115.05 43.5349 114.402 41.9639 113.948 40.0781C113.041 36.3118 112.986 31.6418 113.131 28.1553C113.262 25.0097 113.918 21.9383 115.304 19.1816C116.656 16.4919 118.598 13.5015 120.927 12.0869C124.514 9.90902 127.295 9.00006 131.528 9Z" fill="#B5D2BC" stroke="#92BE9D" stroke-width="2" stroke-linejoin="round"/>
<path d="M134.313 28.6343C134.313 28.6343 131.478 31.4047 128.208 28.6343" stroke="#679E75" stroke-width="2" stroke-linecap="round"/>
<path d="M128.208 23.4833C128.208 23.4833 125.745 25.7499 122.538 23.063" stroke="#679E75" stroke-width="2" stroke-linecap="round"/>
<path d="M140.417 23.4833C140.417 23.4833 137.955 25.7499 134.748 23.063" stroke="#679E75" stroke-width="2" stroke-linecap="round"/>
</g>
<g filter="url(#filter3_d_121_673)">
<path d="M131.097 123.267C131.352 123.525 131.661 123.931 132.01 124.473C132.702 125.549 133.458 127.012 134.164 128.51C134.867 130 135.507 131.494 135.973 132.617C136.205 133.178 136.393 133.645 136.523 133.972C136.588 134.135 136.639 134.263 136.673 134.35C136.69 134.393 136.703 134.426 136.712 134.448C136.716 134.459 136.72 134.467 136.722 134.473C136.723 134.475 136.723 134.478 136.724 134.48L136.725 134.481L137.535 136.582L138.55 134.571L138.551 134.57C138.551 134.57 138.551 134.569 138.552 134.567C138.553 134.564 138.556 134.559 138.56 134.552C138.567 134.538 138.577 134.517 138.591 134.49C138.619 134.436 138.66 134.356 138.714 134.253C138.821 134.047 138.976 133.752 139.167 133.398C139.55 132.69 140.074 131.749 140.646 130.812C141.221 129.867 141.828 128.956 142.373 128.291C142.641 127.965 142.871 127.728 143.053 127.579C144.672 128.646 146.432 130.867 147.878 133.564C149.429 136.455 150.504 139.675 150.665 142.145C151.009 147.439 150.633 151.885 148.051 155.036C145.491 158.16 140.519 160.291 130.924 160.291C121.329 160.291 116.356 158.16 113.797 155.036C111.215 151.885 110.838 147.439 111.183 142.145C111.341 139.709 112.581 136.513 114.263 133.605C115.813 130.923 117.629 128.677 119.095 127.573C119.105 127.58 119.115 127.587 119.126 127.595C119.329 127.744 119.58 127.984 119.871 128.316C120.45 128.977 121.084 129.884 121.683 130.826C122.277 131.762 122.817 132.701 123.21 133.409C123.406 133.762 123.564 134.057 123.673 134.262C123.727 134.364 123.77 134.444 123.798 134.498C123.812 134.525 123.823 134.546 123.83 134.56C123.834 134.566 123.836 134.571 123.838 134.574L123.84 134.578L124.916 136.669L125.676 134.443V134.442C125.676 134.441 125.677 134.439 125.678 134.437C125.68 134.431 125.683 134.422 125.687 134.411C125.694 134.389 125.706 134.356 125.721 134.313C125.751 134.226 125.796 134.098 125.854 133.936C125.969 133.609 126.136 133.142 126.344 132.581C126.759 131.458 127.333 129.965 127.969 128.476C128.608 126.979 129.296 125.519 129.938 124.445C130.262 123.905 130.551 123.504 130.79 123.25C130.846 123.191 130.894 123.148 130.931 123.115C130.973 123.15 131.029 123.198 131.097 123.267Z" fill="#E6798C" stroke="#CE6275" stroke-width="2"/>
<path d="M129.807 148.642C129.807 148.642 132.803 144.374 136.259 148.642" stroke="#803744" stroke-width="2" stroke-linecap="round"/>
<line x1="1" y1="-1" x2="4.61411" y2="-1" transform="matrix(0.864795 0.502124 -0.456029 0.889965 123.355 142.264)" stroke="#803744" stroke-width="2" stroke-linecap="round"/>
<line x1="1" y1="-1" x2="4.61411" y2="-1" transform="matrix(-0.864795 0.502124 0.456029 0.889965 142.036 142.264)" stroke="#803744" stroke-width="2" stroke-linecap="round"/>
</g>
<g filter="url(#filter4_d_121_673)">
<path d="M30.8496 64.5331C41.8702 64.5331 50.6991 72.9272 50.6992 83.1562C50.6992 85.8824 50.6973 88.3909 50.3828 90.6572C50.0699 92.9118 49.4567 94.8467 48.2871 96.4404C45.9771 99.5879 41.1978 101.779 30.8496 101.779C20.5015 101.779 15.7222 99.5879 13.4121 96.4404C12.2425 94.8467 11.6293 92.9118 11.3164 90.6572C11.0019 88.3909 11 85.8824 11 83.1562C11.0001 72.9272 19.829 64.5332 30.8496 64.5331Z" fill="#94B2E6" stroke="#7396D1" stroke-width="2"/>
<path d="M34.5737 80.1951C34.5737 80.1951 37.698 82.6661 41.0253 80.9076" stroke="#536C97" stroke-width="2" stroke-linecap="round"/>
<path d="M27.5715 80.0726C27.5715 80.0726 24.4473 82.5435 21.12 80.7851" stroke="#536C97" stroke-width="2" stroke-linecap="round"/>
<path d="M27.1433 88.6589C27.1433 88.6589 31.0816 84.7342 35.0198 88.6589" stroke="#536C97" stroke-width="2" stroke-linecap="round"/>
<path d="M40.3704 84.132C40.3993 84.5094 40.2832 85.0276 39.7089 85.0716C39.1346 85.1156 38.8481 84.758 38.8192 84.3807C38.7713 83.7555 39.4168 83.6552 39.5498 82.9962C39.6828 82.3372 40.3224 83.5068 40.3704 84.132Z" fill="#536C97"/>
</g>
<g filter="url(#filter5_d_121_673)">
<path d="M49.3735 14.6104C52.8279 10.9848 57.9493 8.65105 64.6646 9.04199C68.5176 9.73158 70.8016 11.9093 72.1724 15.1855C73.5822 18.5551 74.0122 23.0716 74.0122 28.2861C74.0122 33.3494 72.6213 37.8357 69.8608 41.04C67.1194 44.2222 62.9376 46.246 57.1177 46.2461C53.0706 46.2461 49.8448 44.3167 47.5962 41.1182C45.3298 37.8943 44.0571 33.3691 44.0571 28.2861C44.0572 23.2849 45.8908 18.2658 49.3735 14.6104Z" fill="#D7E7E6" stroke="#AFD1CF" stroke-width="2"/>
<line x1="57.4866" y1="27.3549" x2="60.5994" y2="27.3549" stroke="#72A09E" stroke-width="2" stroke-linecap="round"/>
<ellipse cx="54.3558" cy="24.0942" rx="0.852137" ry="0.852137" fill="#72A09E"/>
<ellipse cx="63.7293" cy="24.0942" rx="0.852137" ry="0.852137" fill="#72A09E"/>
</g>
<g filter="url(#filter6_d_121_673)">
<path d="M159.202 101.729C162.022 101.729 164.363 101.889 166.541 101.64C168.649 101.398 170.461 100.778 172.102 99.2747C172.819 98.6176 173.6 97.4166 174.368 96.0237C175.142 94.6212 175.782 93.2644 176.359 92.1721C177.722 89.5903 178.386 86.8456 178.386 83.7131C178.386 78.0194 175.854 73.8383 171.649 70.3147L171.599 70.2737L171.555 70.2258C169.454 67.9434 165.31 64.5336 160.632 64.5334C156.294 64.5334 152.12 65.9192 148.889 68.2278C147.624 69.1319 146.198 70.1288 144.903 71.2327C143.602 72.3413 142.506 73.4973 141.864 74.6819C141.24 75.8325 141.098 77.2446 141.151 78.9026C141.177 79.7267 141.248 80.5692 141.317 81.4495C141.384 82.3175 141.448 83.2172 141.448 84.1008C141.448 85.3879 141.334 86.6763 141.281 87.802C141.227 88.9644 141.232 90.0377 141.431 91.095C141.943 93.8101 143.813 96.5446 145.947 98.4993C149.294 101.566 153.688 101.729 159.202 101.729Z" fill="#BEAAE7" stroke="#A18DCB" stroke-width="2"/>
<path d="M155.348 88.4907L159.763 87.0812L163.921 88.4907" stroke="#75629E" stroke-width="2" stroke-linecap="round"/>
<path d="M166.812 80.271C166.899 80.2188 167.006 80.1231 167.056 80.0009C167.11 79.8691 167.079 79.749 167.045 79.6273C167.017 79.5277 166.931 79.4541 166.84 79.4095C166.69 79.3361 166.438 79.3688 166.209 79.4407C165.774 79.578 165.703 79.8348 165.569 80.0658C165.488 80.2065 165.487 80.4042 165.503 80.5628C165.539 80.9044 165.724 81.0905 165.847 81.1854C165.939 81.2574 166.158 81.3267 166.37 81.353C166.646 81.3872 166.961 81.2954 167.101 81.2454C167.204 81.2086 167.292 81.1565 167.488 81.0572C167.988 80.8036 168.079 80.6421 168.168 80.5347C168.239 80.4487 168.289 80.3078 168.332 80.178C168.418 79.9149 168.381 79.6533 168.345 79.5205C168.307 79.3786 168.181 79.0615 167.972 78.7784C167.767 78.4995 167.53 78.3861 167.292 78.2404C167.113 78.1306 166.864 78.1037 166.741 78.0816C166.61 78.0581 166.482 78.0805 166.285 78.0846C166.081 78.0889 165.947 78.1585 165.773 78.2253C165.622 78.283 165.231 78.5072 164.964 78.6952C164.828 78.7912 164.767 78.8878 164.666 78.9833C164.497 79.1443 164.476 79.2714 164.357 79.5463C164.178 79.9593 164.262 80.2532 164.277 80.4021C164.301 80.6278 164.368 80.766 164.432 80.9729C164.472 81.1018 164.66 81.5076 164.877 81.837C164.971 81.9786 165.11 82.0535 165.239 82.1607C165.343 82.248 165.554 82.3837 165.762 82.4816C165.87 82.5323 166.014 82.5982 166.118 82.6321C166.2 82.6591 166.341 82.6695 166.515 82.6756C166.736 82.6833 166.84 82.66 167.004 82.618C167.138 82.5841 167.621 82.3182 167.911 82.1195C167.938 82.0955 167.967 82.0701 168.004 82.0441C168.041 82.018 168.083 81.9921 168.128 81.9653" stroke="#75629E" stroke-width="1.8" stroke-linecap="round"/>
<path d="M152.219 80.1613C152.127 80.1237 152.008 80.0464 151.943 79.9335C151.873 79.8118 151.888 79.688 151.906 79.5621C151.921 79.459 151.997 79.3722 152.081 79.3133C152.22 79.2164 152.474 79.2079 152.709 79.2421C153.158 79.3074 153.26 79.5502 153.423 79.757C153.522 79.883 153.548 80.0785 153.552 80.2382C153.56 80.582 153.401 80.7961 153.292 80.9098C153.209 80.9961 153.002 81.1001 152.795 81.1605C152.526 81.2391 152.204 81.1991 152.059 81.1723C151.952 81.1526 151.858 81.1154 151.651 81.0487C151.124 80.8787 151.013 80.7337 150.912 80.6418C150.83 80.5682 150.762 80.4369 150.703 80.3155C150.584 80.069 150.588 79.8041 150.606 79.6669C150.625 79.5204 150.709 79.1862 150.879 78.8722C151.047 78.563 151.267 78.4124 151.484 78.2296C151.647 78.092 151.89 78.025 152.009 77.9832C152.135 77.9388 152.265 77.9402 152.46 77.9125C152.663 77.8836 152.804 77.9308 152.985 77.9687C153.141 78.0014 153.558 78.1599 153.845 78.3027C153.992 78.3757 154.066 78.4613 154.178 78.5396C154.366 78.6715 154.403 78.7938 154.556 79.0466C154.786 79.4263 154.741 79.7307 154.744 79.8805C154.75 80.1077 154.702 80.2553 154.664 80.4705C154.641 80.6045 154.507 81.0365 154.335 81.3976C154.26 81.5529 154.132 81.6496 154.019 81.7765C153.926 81.8798 153.735 82.0483 153.542 82.1788C153.441 82.2465 153.308 82.3349 153.209 82.3853C153.131 82.4255 152.993 82.4585 152.821 82.4928C152.604 82.5361 152.498 82.5299 152.33 82.515C152.194 82.503 151.682 82.3181 151.369 82.1685C151.339 82.1491 151.307 82.1287 151.267 82.1089C151.228 82.089 151.182 82.0703 151.135 82.051" stroke="#75629E" stroke-width="1.8" stroke-linecap="round"/>
</g>
<defs>
<filter id="filter0_d_121_673" x="27.0786" y="126.051" width="64.1521" height="46.9819" filterUnits="userSpaceOnUse" color-interpolation-filters="sRGB">
<feFlood flood-opacity="0" result="BackgroundImageFix"/>
<feColorMatrix in="SourceAlpha" type="matrix" values="0 0 0 0 0 0 0 0 0 0 0 0 0 0 0 0 0 0 127 0" result="hardAlpha"/>
<feOffset dy="2"/>
<feGaussianBlur stdDeviation="5"/>
<feComposite in2="hardAlpha" operator="out"/>
<feColorMatrix type="matrix" values="0 0 0 0 0.666667 0 0 0 0 0.666667 0 0 0 0 0.666667 0 0 0 1 0"/>
<feBlend mode="normal" in2="BackgroundImageFix" result="effect1_dropShadow_121_673"/>
<feBlend mode="normal" in="SourceGraphic" in2="effect1_dropShadow_121_673" result="shape"/>
</filter>
<filter id="filter1_d_121_673" x="62.0786" y="58.5189" width="64.1521" height="55.3217" filterUnits="userSpaceOnUse" color-interpolation-filters="sRGB">
<feFlood flood-opacity="0" result="BackgroundImageFix"/>
<feColorMatrix in="SourceAlpha" type="matrix" values="0 0 0 0 0 0 0 0 0 0 0 0 0 0 0 0 0 0 127 0" result="hardAlpha"/>
<feOffset dy="2"/>
<feGaussianBlur stdDeviation="5"/>
<feComposite in2="hardAlpha" operator="out"/>
<feColorMatrix type="matrix" values="0 0 0 0 0.909804 0 0 0 0 0.556863 0 0 0 0 0.552941 0 0 0 1 0"/>
<feBlend mode="normal" in2="BackgroundImageFix" result="effect1_dropShadow_121_673"/>
<feBlend mode="normal" in="SourceGraphic" in2="effect1_dropShadow_121_673" result="shape"/>
</filter>
<filter id="filter2_d_121_673" x="102.07" y="0" width="59.2463" height="59.2464" filterUnits="userSpaceOnUse" color-interpolation-filters="sRGB">
<feFlood flood-opacity="0" result="BackgroundImageFix"/>
<feColorMatrix in="SourceAlpha" type="matrix" values="0 0 0 0 0 0 0 0 0 0 0 0 0 0 0 0 0 0 127 0" result="hardAlpha"/>
<feOffset dy="2"/>
<feGaussianBlur stdDeviation="5"/>
<feComposite in2="hardAlpha" operator="out"/>
<feColorMatrix type="matrix" values="0 0 0 0 0.572549 0 0 0 0 0.745098 0 0 0 0 0.615686 0 0 0 1 0"/>
<feBlend mode="normal" in2="BackgroundImageFix" result="effect1_dropShadow_121_673"/>
<feBlend mode="normal" in="SourceGraphic" in2="effect1_dropShadow_121_673" result="shape"/>
</filter>
<filter id="filter3_d_121_673" x="100.074" y="114.045" width="61.6992" height="59.2464" filterUnits="userSpaceOnUse" color-interpolation-filters="sRGB">
<feFlood flood-opacity="0" result="BackgroundImageFix"/>
<feColorMatrix in="SourceAlpha" type="matrix" values="0 0 0 0 0 0 0 0 0 0 0 0 0 0 0 0 0 0 127 0" result="hardAlpha"/>
<feOffset dy="2"/>
<feGaussianBlur stdDeviation="5"/>
<feComposite in2="hardAlpha" operator="out"/>
<feColorMatrix type="matrix" values="0 0 0 0 0.807843 0 0 0 0 0.384314 0 0 0 0 0.458824 0 0 0 1 0"/>
<feBlend mode="normal" in2="BackgroundImageFix" result="effect1_dropShadow_121_673"/>
<feBlend mode="normal" in="SourceGraphic" in2="effect1_dropShadow_121_673" result="shape"/>
</filter>
<filter id="filter4_d_121_673" x="0" y="55.5331" width="61.6992" height="59.2463" filterUnits="userSpaceOnUse" color-interpolation-filters="sRGB">
<feFlood flood-opacity="0" result="BackgroundImageFix"/>
<feColorMatrix in="SourceAlpha" type="matrix" values="0 0 0 0 0 0 0 0 0 0 0 0 0 0 0 0 0 0 127 0" result="hardAlpha"/>
<feOffset dy="2"/>
<feGaussianBlur stdDeviation="5"/>
<feComposite in2="hardAlpha" operator="out"/>
<feColorMatrix type="matrix" values="0 0 0 0 0.45098 0 0 0 0 0.588235 0 0 0 0 0.819608 0 0 0 1 0"/>
<feBlend mode="normal" in2="BackgroundImageFix" result="effect1_dropShadow_121_673"/>
<feBlend mode="normal" in="SourceGraphic" in2="effect1_dropShadow_121_673" result="shape"/>
</filter>
<filter id="filter5_d_121_673" x="33.0571" y="0" width="51.9551" height="59.2464" filterUnits="userSpaceOnUse" color-interpolation-filters="sRGB">
<feFlood flood-opacity="0" result="BackgroundImageFix"/>
<feColorMatrix in="SourceAlpha" type="matrix" values="0 0 0 0 0 0 0 0 0 0 0 0 0 0 0 0 0 0 127 0" result="hardAlpha"/>
<feOffset dy="2"/>
<feGaussianBlur stdDeviation="5"/>
<feComposite in2="hardAlpha" operator="out"/>
<feColorMatrix type="matrix" values="0 0 0 0 0.686275 0 0 0 0 0.819608 0 0 0 0 0.811765 0 0 0 1 0"/>
<feBlend mode="normal" in2="BackgroundImageFix" result="effect1_dropShadow_121_673"/>
<feBlend mode="normal" in="SourceGraphic" in2="effect1_dropShadow_121_673" result="shape"/>
</filter>
<filter id="filter6_d_121_673" x="130.14" y="55.5332" width="59.2463" height="59.2464" filterUnits="userSpaceOnUse" color-interpolation-filters="sRGB">
<feFlood flood-opacity="0" result="BackgroundImageFix"/>
<feColorMatrix in="SourceAlpha" type="matrix" values="0 0 0 0 0 0 0 0 0 0 0 0 0 0 0 0 0 0 127 0" result="hardAlpha"/>
<feOffset dy="2"/>
<feGaussianBlur stdDeviation="5"/>
<feComposite in2="hardAlpha" operator="out"/>
<feColorMatrix type="matrix" values="0 0 0 0 0.631373 0 0 0 0 0.552941 0 0 0 0 0.796078 0 0 0 1 0"/>
<feBlend mode="normal" in2="BackgroundImageFix" result="effect1_dropShadow_121_673"/>
<feBlend mode="normal" in="SourceGraphic" in2="effect1_dropShadow_121_673" result="shape"/>
</filter>
</defs>
</svg>
