<svg width="24" height="22" viewBox="0 0 24 22" fill="none" xmlns="http://www.w3.org/2000/svg">
<path d="M18 2.75H6C3.79 2.75 2 4.38167 2 6.38917V15.6108C2 17.6183 3.79 19.25 6 19.25H18C20.21 19.25 22 17.6183 22 15.6108V6.38917C22 4.38167 20.21 2.75 18 2.75ZM8.5 6.5725C9.77 6.5725 10.81 7.52583 10.81 8.69C10.81 9.85417 9.77 10.8075 8.5 10.8075C7.23 10.8075 6.19 9.85417 6.19 8.69C6.19 7.52583 7.23 6.5725 8.5 6.5725ZM12.37 15.2717C12.28 15.3633 12.14 15.4183 12 15.4183H5C4.86 15.4183 4.72 15.3633 4.63 15.2717C4.54 15.18 4.49 15.0517 4.5 14.9233C4.67 13.3833 6.01 12.1642 7.69 12.0175C8.22 11.9717 8.77 11.9717 9.3 12.0175C10.98 12.1642 12.33 13.3833 12.49 14.9233C12.51 15.0517 12.46 15.18 12.37 15.2717ZM19 15.3542H17C16.59 15.3542 16.25 15.0425 16.25 14.6667C16.25 14.2908 16.59 13.9792 17 13.9792H19C19.41 13.9792 19.75 14.2908 19.75 14.6667C19.75 15.0425 19.41 15.3542 19 15.3542ZM19 11.6875H15C14.59 11.6875 14.25 11.3758 14.25 11C14.25 10.6242 14.59 10.3125 15 10.3125H19C19.41 10.3125 19.75 10.6242 19.75 11C19.75 11.3758 19.41 11.6875 19 11.6875ZM19 8.02083H14C13.59 8.02083 13.25 7.70917 13.25 7.33333C13.25 6.9575 13.59 6.64583 14 6.64583H19C19.41 6.64583 19.75 6.9575 19.75 7.33333C19.75 7.70917 19.41 8.02083 19 8.02083Z" fill="#763B29"/>
</svg>
