<svg width="20" height="20" viewBox="0 0 20 20" fill="none" xmlns="http://www.w3.org/2000/svg">
<path d="M12.3166 16.75C12.3166 15.2417 13.3833 14.625 14.6916 15.375C15.45 15.8084 16.4166 15.55 16.85 14.7917L17.675 13.35C18.0666 12.6917 17.8333 11.8417 17.175 11.45L17.0166 11.3584C15.7083 10.6084 15.7083 9.37502 17.0166 8.61669L17.175 8.52502C17.8333 8.15002 18.0666 7.30002 17.675 6.64169L16.85 5.20002C16.4166 4.44169 15.4416 4.18335 14.6833 4.61669C13.3833 5.37502 12.3166 4.75835 12.3166 3.25002C12.3166 2.38335 11.6083 1.66669 10.7333 1.66669H9.26664C8.39997 1.66669 7.68331 2.37502 7.68331 3.25002C7.68331 4.75835 6.61664 5.37502 5.30831 4.61669C4.54997 4.18335 3.58331 4.44169 3.14997 5.20002L2.32497 6.64169C1.93331 7.30002 2.16664 8.15002 2.82497 8.54169L2.9833 8.63335C4.29164 9.38335 4.29164 10.6167 2.9833 11.375L2.82497 11.4667C2.16664 11.8584 1.93331 12.7084 2.32497 13.3667L3.14997 14.8084C3.58331 15.5667 4.55831 15.825 5.30831 15.3917C6.61664 14.6334 7.68331 15.25 7.68331 16.7584C7.68331 17.625 8.39164 18.3417 9.26664 18.3417H10.7333C11.6 18.3334 12.3166 17.625 12.3166 16.75ZM7.29164 10C7.29164 8.50835 8.50831 7.29169 9.99997 7.29169C11.4916 7.29169 12.7083 8.50835 12.7083 10C12.7083 11.4917 11.4916 12.7084 9.99997 12.7084C8.50831 12.7084 7.29164 11.4917 7.29164 10Z" fill="#763B29"/>
</svg>
