<svg width="85" height="80" viewBox="0 0 85 80" fill="none" xmlns="http://www.w3.org/2000/svg">
<path d="M42.5 1C42.5907 1 42.9467 1.10617 43.5918 1.75977C44.1856 2.36146 44.86 3.25795 45.5869 4.3877C47.036 6.63981 48.5982 9.66966 50.0439 12.7344C51.4862 15.7918 52.7981 18.8533 53.751 21.1523C54.2272 22.3012 54.6134 23.2583 54.8799 23.9277C55.013 24.2621 55.1166 24.5245 55.1865 24.7031C55.2215 24.7924 55.2478 24.8614 55.2656 24.9072C55.2745 24.9301 55.2817 24.9475 55.2861 24.959C55.2883 24.9645 55.29 24.9689 55.291 24.9717C55.2915 24.9729 55.2918 24.974 55.292 24.9746V24.9756L56.1035 27.0771L57.1182 25.0664V25.0654L57.123 25.0557C57.1266 25.0486 57.1324 25.0377 57.1396 25.0234C57.1542 24.9947 57.1763 24.9517 57.2051 24.8955C57.2627 24.7829 57.3481 24.6167 57.458 24.4053C57.6779 23.9823 57.9955 23.3769 58.3877 22.6504C59.173 21.1956 60.2522 19.26 61.4307 17.3281C62.6131 15.3897 63.8781 13.4844 65.0352 12.0742C65.6154 11.3671 66.1435 10.816 66.5977 10.4502C66.8832 10.2203 67.0896 10.1074 67.2217 10.0518C70.9197 12.2226 74.8431 17.1486 77.9746 22.9883C81.1783 28.9627 83.4361 35.6742 83.7764 40.9043C84.4797 51.7164 83.7535 61.1488 78.2148 67.9082C72.6989 74.6399 62.1635 79 42.5 79C22.8365 79 12.3011 74.6399 6.78516 67.9082C1.24648 61.1488 0.520277 51.7164 1.22363 40.9043C1.5617 35.7075 4.17756 29.0295 7.63867 23.043C11.0014 17.2266 15.0392 12.2731 18.3057 10.0449C18.4827 10.1039 18.7343 10.2302 19.0674 10.4756C19.5653 10.8425 20.1337 11.3938 20.751 12.0986C21.9831 13.5054 23.309 15.4072 24.5391 17.3438C25.7648 19.2735 26.8769 21.2076 27.6836 22.6611C28.0864 23.3869 28.4119 23.9916 28.6367 24.4141C28.7491 24.6253 28.8367 24.7909 28.8955 24.9033C28.9249 24.9595 28.9471 25.0026 28.9619 25.0312C28.9693 25.0455 28.9749 25.0565 28.9785 25.0635L28.9834 25.0732L30.0596 27.1631L30.8193 24.9385V24.9375C30.8195 24.9369 30.8199 24.9359 30.8203 24.9346C30.8213 24.9318 30.8232 24.9276 30.8252 24.9219C30.8291 24.9104 30.8349 24.893 30.8428 24.8701C30.8585 24.8244 30.8821 24.7562 30.9131 24.667C30.975 24.4884 31.0663 24.2252 31.1846 23.8906C31.4211 23.2214 31.7647 22.2647 32.1895 21.1162C33.0397 18.8175 34.215 15.7567 35.5205 12.7002C36.8293 9.63605 38.2549 6.60908 39.6016 4.36035C40.2773 3.23198 40.9093 2.33994 41.4717 1.74316C42.0822 1.09534 42.4197 1.00001 42.5 1Z" fill="#E6798C" stroke="#CE6275" stroke-width="2"/>
<path d="M35.9241 55.0002C35.9241 55.0002 42.0303 46.301 49.076 55.0002" stroke="#803744" stroke-width="2" stroke-linecap="round"/>
<line x1="1" y1="-1" x2="10.4438" y2="-1" transform="matrix(0.864795 0.502124 -0.456029 0.889965 22.7722 42)" stroke="#803744" stroke-width="2" stroke-linecap="round"/>
<line x1="1" y1="-1" x2="10.4438" y2="-1" transform="matrix(-0.864795 0.502124 0.456029 0.889965 60.8513 42)" stroke="#803744" stroke-width="2" stroke-linecap="round"/>
</svg>
