<svg width="80" height="80" viewBox="0 0 80 80" fill="none" xmlns="http://www.w3.org/2000/svg">
<path d="M39.6641 1C48.5485 1 55.5142 2.773 62.8008 7.43066C67.334 10.3284 71.0123 16.2195 73.584 21.5518C74.8574 24.1921 75.837 26.6469 76.498 28.4414C76.8282 29.3376 77.078 30.0678 77.2451 30.5723C77.3287 30.8245 77.392 31.0207 77.4336 31.1523C77.4514 31.2089 77.4646 31.2538 77.4746 31.2861C77.4776 31.3051 77.4821 31.3284 77.4863 31.3555C77.5006 31.4457 77.5213 31.5805 77.5479 31.7568C77.6011 32.1105 77.6773 32.6314 77.7666 33.2949C77.9452 34.6222 78.1776 36.5208 78.3926 38.7998C78.823 43.3622 79.1808 49.4295 78.9004 55.4834C78.619 61.5591 77.6977 67.5195 75.6328 71.9287C73.5882 76.2946 70.5086 78.9999 65.8584 79C63.2354 79 61.3111 78.1229 59.8672 76.8291C58.4023 75.5165 57.3884 73.7334 56.6924 71.8828C55.9982 70.0368 55.6403 68.1768 55.458 66.7686C55.3672 66.0671 55.3208 65.484 55.2969 65.0791C55.2849 64.8768 55.2786 64.7193 55.2754 64.6143C55.2738 64.5618 55.2729 64.5224 55.2725 64.4971V64.4639C55.2688 63.9132 54.8203 63.4692 54.2695 63.4707C53.7187 63.4724 53.2729 63.919 53.2725 64.4697C53.2725 64.4704 53.2725 64.4721 53.2725 64.4746C53.2724 64.4796 53.2717 64.4881 53.2715 64.5C53.2711 64.5243 53.2711 64.563 53.2695 64.6143C53.2664 64.7173 53.26 64.8732 53.2471 65.0732C53.2211 65.4736 53.1688 66.0515 53.0635 66.7471C52.8521 68.1438 52.4307 69.9901 51.5986 71.8223C50.7673 73.6528 49.5402 75.4392 47.7305 76.7676C45.9318 78.0879 43.4981 79 40.168 79C37.1078 79 34.8734 78.0985 33.2168 76.7891C31.5451 75.4676 30.4047 73.6841 29.6299 71.8467C28.8553 70.0098 28.4626 68.159 28.2656 66.7578C28.1676 66.0601 28.119 65.4803 28.0947 65.0781C28.0826 64.8774 28.0762 64.721 28.0732 64.6172C28.0718 64.5656 28.0716 64.5267 28.0713 64.502V64.4697C28.0708 63.9218 27.629 63.4763 27.0811 63.4707C26.5329 63.4654 26.0824 63.9022 26.0713 64.4502V64.4561C26.0712 64.4614 26.0707 64.4709 26.0703 64.4834C26.0695 64.5084 26.0678 64.5477 26.0654 64.5996C26.0606 64.704 26.0524 64.8611 26.0371 65.0625C26.0064 65.4661 25.9487 66.0474 25.8428 66.7471C25.6301 68.152 25.2251 70.0087 24.46 71.8516C23.6938 73.6969 22.5861 75.4835 20.9932 76.8037C19.4178 78.1093 17.3199 79 14.4775 79C10.9294 78.9999 8.29932 77.2497 6.30957 74.2939C4.29276 71.2978 2.97481 67.1074 2.1582 62.4268C0.527418 53.0793 0.958171 42.1598 1.41992 35.9932C1.65609 32.8395 2.33512 29.7701 3.55859 26.8848C4.78563 23.9911 6.62926 20.1159 9.00586 16.459C11.3921 12.7874 14.2636 9.41721 17.5156 7.44238C24.9671 2.91749 30.8215 1.00002 39.6641 1Z" fill="#B5D2BC" stroke="#92BE9D" stroke-width="2" stroke-linejoin="round"/>
<path d="M45.3395 42.061C45.3395 42.061 39.5617 47.7081 32.895 42.061" stroke="#679E75" stroke-width="2" stroke-linecap="round"/>
<path d="M32.8953 31.5613C32.8953 31.5613 27.8764 36.1815 21.3385 30.7045" stroke="#679E75" stroke-width="2" stroke-linecap="round"/>
<path d="M57.7842 31.5613C57.7842 31.5613 52.7654 36.1815 46.2274 30.7045" stroke="#679E75" stroke-width="2" stroke-linecap="round"/>
</svg>
