<svg width="90" height="72" viewBox="0 0 90 72" fill="none" xmlns="http://www.w3.org/2000/svg">
<path d="M17.709 1.97168C22.593 0.129964 28.0637 1.18686 32.9062 2.81934C35.3164 3.63185 37.5069 4.5634 39.3682 5.31348C40.2892 5.68463 41.1408 6.01544 41.8809 6.25391C42.6008 6.48584 43.3103 6.66309 43.918 6.66309C45.39 6.66299 47.6454 6.17951 50.1924 5.55469C52.817 4.91082 55.7673 4.11101 58.8838 3.37109C61.9741 2.63739 65.1145 1.99178 67.9639 1.68359C70.8354 1.37303 73.3032 1.41924 75.1016 1.98926C79.5742 3.40696 82.8372 5.99611 85.084 9.67969C87.3455 13.3876 88.6117 18.2624 88.96 24.2803C89.5222 34.0002 84.094 44.47 79.2285 50.249C63.7946 68.5805 48.9397 70.9999 43.918 71C38.9577 71 26.0553 68.1626 11.6963 50.2666C8.99724 46.9027 6.1108 42.7004 4.0166 38.1777C1.91881 33.6473 0.648347 28.8661 1.08594 24.3174C1.67012 18.2455 3.59371 13.5177 6.45898 9.89062C9.32655 6.26071 13.1808 3.67928 17.709 1.97168Z" fill="#F6C5C4" stroke="#E88E8D" stroke-width="2"/>
<path d="M23.9037 22L31.7174 26.9309" stroke="#9C4645" stroke-width="2" stroke-linecap="round"/>
<path d="M24.2903 32.0001L31.7174 26.9311" stroke="#9C4645" stroke-width="2" stroke-linecap="round"/>
<path d="M65.1183 22L57.3046 26.9309" stroke="#9C4645" stroke-width="2" stroke-linecap="round"/>
<path d="M64.7317 32.0001L57.3046 26.9311" stroke="#9C4645" stroke-width="2" stroke-linecap="round"/>
<path d="M49.9036 34.5835C49.9036 34.5835 43.9037 45.5 38.4038 34.9999" stroke="#9C4645" stroke-width="2" stroke-linecap="round"/>
</svg>
