<svg width="66" height="80" viewBox="0 0 66 80" fill="none" xmlns="http://www.w3.org/2000/svg">
<path d="M12.123 12.7588C19.3942 5.12692 30.1584 0.257842 44.1768 1.09277C52.451 2.55787 57.3879 7.27022 60.3066 14.2461C63.2649 21.3168 64.1377 30.7003 64.1377 41.3516C64.1377 51.8515 61.2536 61.2601 55.4238 68.0273C49.613 74.7724 40.7849 79 28.6602 79C20.0318 78.9999 13.1565 74.8666 8.40332 68.1055C3.63226 61.3187 1 51.8713 1 41.3516C1.00006 30.9136 4.82438 20.4196 12.123 12.7588Z" fill="#D7E7E6" stroke="#AFD1CF" stroke-width="2"/>
<line x1="28.792" y1="42.5229" x2="37.214" y2="42.5229" stroke="#72A09E" stroke-width="2" stroke-linecap="round"/>
<circle cx="23.4494" cy="34.8381" r="1.737" fill="#72A09E"/>
<circle cx="42.5563" cy="34.8381" r="1.737" fill="#72A09E"/>
</svg>
