<svg width="85" height="80" viewBox="0 0 85 80" fill="none" xmlns="http://www.w3.org/2000/svg">
<path d="M42.5 1C65.4778 1 84 18.5171 84 40C84 45.5397 83.9985 50.7285 83.3457 55.4326C82.6945 60.1251 81.4036 64.255 78.8809 67.6924C73.8645 74.5274 63.6733 79 42.5 79C21.3267 79 11.1355 74.5274 6.11914 67.6924C3.59636 64.255 2.30547 60.1251 1.6543 55.4326C1.00154 50.7285 1 45.5397 1 40C1 18.5171 19.5222 1 42.5 1Z" fill="#94B2E6" stroke="#7396D1" stroke-width="2"/>
<path d="M50.0913 33.9639C50.0913 33.9639 56.4598 39.0006 63.2422 35.4162" stroke="#536C97" stroke-width="2" stroke-linecap="round"/>
<path d="M35.8175 33.7141C35.8175 33.7141 29.449 38.7509 22.6666 35.1664" stroke="#536C97" stroke-width="2" stroke-linecap="round"/>
<path d="M34.9445 51.2166C34.9445 51.2166 42.9722 43.2163 51 51.2166" stroke="#536C97" stroke-width="2" stroke-linecap="round"/>
<path d="M61.907 41.989C61.966 42.7582 61.7294 43.8146 60.5588 43.9043C59.3881 43.994 58.8041 43.2651 58.7451 42.4959C58.6474 41.2215 59.9633 41.0171 60.2344 39.6738C60.5056 38.3305 61.8093 40.7146 61.907 41.989Z" fill="#536C97"/>
</svg>
