<svg width="80" height="80" viewBox="0 0 80 80" fill="none" xmlns="http://www.w3.org/2000/svg">
<path d="M38.8584 78.8965C44.5066 78.8965 49.4172 79.2264 53.9346 78.709C58.3815 78.1996 62.3035 76.8746 65.8535 73.6221C67.4532 72.1564 69.113 69.5698 70.6807 66.7295C72.2536 63.8798 73.6113 61.0136 74.7471 58.8623C77.6092 53.4413 79 47.6787 79 41.1348C79 29.1507 73.6419 20.3578 64.8936 13.0283L64.8438 12.9863L64.7998 12.9385C60.473 8.23817 51.7632 1 41.7705 1C32.7144 1.00006 23.9937 3.89117 17.2305 8.72363C14.6656 10.5563 11.7176 12.6187 9.03516 14.9043C6.34725 17.1946 4.00047 19.6493 2.60059 22.2305C1.19345 24.8252 0.911789 27.9337 1.02148 31.3633C1.07619 33.0729 1.22553 34.82 1.36426 36.6016C1.50203 38.371 1.62891 40.1691 1.62891 41.9258C1.6289 44.5203 1.3998 47.0636 1.29004 49.4219C1.17857 51.8169 1.18262 54.1001 1.61133 56.375C2.70949 62.202 6.68396 67.9621 11.1348 72.04C18.2999 78.6047 27.6857 78.8965 38.8584 78.8965Z" fill="#BEAAE7" stroke="#A18DCB" stroke-width="2"/>
<path d="M31 50.8734L40 48.0002L48.4762 50.8734" stroke="#75629E" stroke-width="2" stroke-linecap="round"/>
<path d="M54.3687 34.1185C54.5445 34.0121 54.7641 33.8171 54.8656 33.5679C54.975 33.2993 54.9119 33.0546 54.8429 32.8065C54.7864 32.6034 54.6104 32.4535 54.4248 32.3625C54.1192 32.2128 53.6049 32.2795 53.1397 32.4261C52.2518 32.706 52.1084 33.2294 51.8348 33.7003C51.6683 33.987 51.6663 34.3901 51.7002 34.7135C51.7732 35.4098 52.1507 35.7891 52.4 35.9825C52.5892 36.1293 53.0342 36.2706 53.4672 36.3242C54.0305 36.3939 54.6711 36.2068 54.9567 36.1049C55.167 36.0299 55.3469 35.9237 55.7461 35.7211C56.7646 35.2041 56.9506 34.8749 57.1313 34.6561C57.276 34.4807 57.3791 34.1935 57.4661 33.9291C57.6426 33.3926 57.5655 32.8595 57.4934 32.5887C57.4163 32.2995 57.1589 31.6531 56.7335 31.076C56.3146 30.5076 55.8317 30.2764 55.3467 29.9793C54.9814 29.7556 54.4733 29.7006 54.223 29.6557C53.9563 29.6077 53.6955 29.6534 53.2944 29.6619C52.877 29.6707 52.6049 29.8125 52.25 29.9485C51.9431 30.0662 51.1449 30.5232 50.6019 30.9064C50.3245 31.1021 50.1987 31.299 49.9938 31.4937C49.6485 31.8219 49.6058 32.0809 49.3632 32.6414C48.9989 33.4832 49.1695 34.0823 49.2009 34.3857C49.2486 34.8459 49.3854 35.1277 49.5166 35.5493C49.5984 35.8121 49.982 36.6393 50.4243 37.3107C50.6146 37.5994 50.899 37.7519 51.1607 37.9705C51.3739 38.1484 51.8043 38.4251 52.2284 38.6246C52.4484 38.7281 52.7409 38.8623 52.9525 38.9314C53.1214 38.9865 53.4077 39.0077 53.7631 39.0201C54.2131 39.0359 54.4244 38.9884 54.7603 38.9028C55.0318 38.8336 56.0166 38.2916 56.6084 37.8867C56.6634 37.8376 56.7232 37.7859 56.7977 37.7328C56.8722 37.6797 56.9596 37.6268 57.0497 37.5723" stroke="#75629E" stroke-width="1.8" stroke-linecap="round"/>
<path d="M24.6218 33.8949C24.4342 33.8181 24.1919 33.6607 24.0594 33.4305C23.9167 33.1824 23.9478 32.93 23.9842 32.6734C24.014 32.4633 24.169 32.2864 24.341 32.1663C24.6242 31.9687 25.1418 31.9514 25.6208 32.0211C26.5354 32.1543 26.7445 32.6491 27.0756 33.0707C27.2772 33.3275 27.3309 33.7261 27.3388 34.0515C27.3558 34.7524 27.0309 35.1889 26.809 35.4206C26.6406 35.5966 26.2184 35.8084 25.7968 35.9315C25.2483 36.0917 24.5904 36.0103 24.2947 35.9557C24.077 35.9156 23.8853 35.8396 23.4643 35.7038C22.3902 35.3572 22.1638 35.0616 21.957 34.8743C21.7913 34.7242 21.6524 34.4566 21.5324 34.2091C21.2889 33.7068 21.2968 33.1667 21.3335 32.8871C21.3727 32.5884 21.5445 31.9071 21.8914 31.2671C22.233 30.6368 22.6813 30.3298 23.1231 29.9573C23.4558 29.6767 23.9516 29.5401 24.1935 29.4551C24.4512 29.3644 24.7152 29.3674 25.1132 29.3108C25.5273 29.2519 25.8148 29.3482 26.1834 29.4254C26.5022 29.4921 27.3507 29.8151 27.9372 30.1063C28.2368 30.2551 28.3865 30.4295 28.6143 30.5891C28.9981 30.8579 29.0736 31.1073 29.3855 31.6226C29.854 32.3967 29.7621 33.0171 29.7699 33.3224C29.7817 33.7855 29.6825 34.0865 29.6067 34.525C29.5595 34.7983 29.2861 35.6789 28.9344 36.415C28.7832 36.7315 28.5213 36.9285 28.2904 37.1872C28.1023 37.3978 27.7118 37.7413 27.3177 38.0074C27.1134 38.1454 26.8411 38.3256 26.6405 38.4282C26.4804 38.5101 26.1999 38.5774 25.8499 38.6473C25.4065 38.7357 25.1914 38.7229 24.848 38.6927C24.5704 38.6682 23.5264 38.2913 22.8888 37.9864C22.8281 37.9468 22.7623 37.9053 22.6817 37.8648C22.6012 37.8244 22.5079 37.7862 22.4118 37.7468" stroke="#75629E" stroke-width="1.8" stroke-linecap="round"/>
</svg>
