<svg width="90" height="55" viewBox="0 0 90 55" fill="none" xmlns="http://www.w3.org/2000/svg">
<path d="M45 1C69.4984 1 88.9997 17.1972 89 36.7773C89 41.6866 87.786 45.1064 85.7051 47.5322C83.6133 49.9704 80.5392 51.5298 76.5811 52.502C72.6189 53.475 67.859 53.8383 62.4941 53.9531C57.1221 54.0681 51.2475 53.9336 45 53.9336C38.7525 53.9336 32.8779 54.0681 27.5059 53.9531C22.141 53.8383 17.3811 53.475 13.4189 52.502C9.4608 51.5298 6.38668 49.9704 4.29492 47.5322C2.21398 45.1064 1 41.6866 1 36.7773C1.0003 17.1972 20.5016 1 45 1Z" fill="#D9D9D9" stroke="#AAAAAA" stroke-width="2"/>
<line x1="1" y1="-1" x2="10.6158" y2="-1" transform="matrix(0.90206 0.431611 -0.341085 0.940032 51.8918 27.9324)" stroke="#767676" stroke-width="2" stroke-linecap="round"/>
<line x1="1" y1="-1" x2="10.6158" y2="-1" transform="matrix(0.90206 -0.431611 0.341085 0.940032 25.1353 32.9458)" stroke="#767676" stroke-width="2" stroke-linecap="round"/>
<line x1="40.7297" y1="40.8984" x2="46.8378" y2="40.8984" stroke="#767676" stroke-width="2" stroke-linecap="round"/>
</svg>
