<svg width="300" height="200" viewBox="0 0 300 200" fill="none" xmlns="http://www.w3.org/2000/svg">
<path d="M112.524 1.58887C143.326 -2.33916 165.137 14.0509 179.322 31.584C186.412 40.3473 191.569 49.3662 194.953 56.1982C196.644 59.6126 197.891 62.4768 198.714 64.4844C199.125 65.488 199.431 66.277 199.633 66.8135C199.734 67.0815 199.808 67.2868 199.857 67.4238C199.882 67.4923 199.901 67.5442 199.913 67.5781C199.919 67.5947 199.923 67.6072 199.926 67.6152C199.927 67.619 199.928 67.6222 199.929 67.624L199.93 67.626L200.409 69.0068L201.522 68.0605L201.523 68.0596C201.525 68.0581 201.529 68.0554 201.533 68.0518C201.542 68.0445 201.556 68.0331 201.574 68.0176C201.612 67.9866 201.669 67.939 201.746 67.877C201.9 67.7528 202.133 67.5688 202.439 67.3369C203.053 66.8731 203.962 66.2172 205.132 65.4551C207.473 63.9297 210.853 61.9873 215 60.3232C223.297 56.9938 234.601 54.8011 246.811 59.21C258.947 63.5925 264.447 72.6098 266.931 80.5967C268.174 84.5968 268.656 88.3275 268.825 91.0596C268.91 92.4239 268.917 93.5353 268.902 94.3018C268.895 94.6849 268.883 94.9821 268.873 95.1807C268.868 95.2798 268.863 95.3546 268.859 95.4033C268.858 95.4276 268.856 95.4459 268.855 95.457C268.855 95.4624 268.855 95.4666 268.854 95.4688V95.4697L268.801 96.1279L269.385 96.4365C269.386 96.4369 269.387 96.4376 269.389 96.4385C269.393 96.4405 269.399 96.4438 269.407 96.4482C269.424 96.4573 269.451 96.4713 269.485 96.4902C269.555 96.5283 269.66 96.5867 269.798 96.6641C270.074 96.8191 270.481 97.0526 270.996 97.3623C272.027 97.9821 273.494 98.9068 275.221 100.12C278.678 102.549 283.167 106.124 287.312 110.713C295.609 119.896 302.425 133.003 297.132 149.126C291.86 165.184 278.527 170.23 266.264 171.233C260.134 171.735 254.325 171.215 250.041 170.567C247.902 170.244 246.148 169.889 244.933 169.616C244.325 169.48 243.852 169.364 243.533 169.282C243.374 169.242 243.252 169.209 243.172 169.188C243.132 169.177 243.101 169.168 243.082 169.163C243.073 169.161 243.066 169.158 243.062 169.157C243.059 169.157 243.058 169.157 243.057 169.156L243.055 169.155L241.947 168.843L241.793 169.984C241.793 169.986 241.793 169.989 241.792 169.993C241.791 170.002 241.789 170.016 241.786 170.035C241.78 170.075 241.769 170.137 241.755 170.22C241.726 170.386 241.678 170.635 241.606 170.958C241.463 171.604 241.223 172.541 240.839 173.687C240.07 175.978 238.729 179.092 236.442 182.36C231.887 188.873 223.533 196.069 208.281 198.55C196.964 200.39 185.854 196.288 177.495 191.636C173.329 189.317 169.878 186.88 167.47 185.023C166.266 184.095 165.325 183.314 164.687 182.766C164.367 182.492 164.124 182.276 163.962 182.13C163.881 182.057 163.819 182.002 163.779 181.965C163.759 181.947 163.744 181.933 163.734 181.924C163.73 181.92 163.727 181.917 163.725 181.915C163.724 181.914 163.722 181.912 163.722 181.912H163.723L162.809 181.059L162.177 182.137L162.176 182.14C162.173 182.144 162.168 182.153 162.16 182.165C162.145 182.19 162.119 182.231 162.083 182.285C162.011 182.394 161.898 182.561 161.739 182.777C161.422 183.21 160.922 183.839 160.212 184.601C158.791 186.124 156.522 188.177 153.166 190.238C146.462 194.356 135.368 198.537 117.928 198.537C100.586 198.537 89.843 192.379 83.4375 186.287C80.2256 183.232 78.09 180.18 76.7598 177.897C76.0949 176.757 75.6315 175.81 75.3369 175.154C75.1898 174.827 75.0848 174.571 75.0176 174.401C74.984 174.316 74.9595 174.252 74.9443 174.211C74.9368 174.191 74.9319 174.176 74.9287 174.167L74.9258 174.158L74.6387 173.334L73.7832 173.507L73.7822 173.508C73.7809 173.508 73.7784 173.508 73.7754 173.509C73.7692 173.51 73.7593 173.512 73.7461 173.515C73.7198 173.52 73.6795 173.527 73.626 173.537C73.5185 173.558 73.3567 173.588 73.1445 173.626C72.7202 173.701 72.0926 173.807 71.2881 173.927C69.6785 174.167 67.3606 174.466 64.5381 174.697C58.8879 175.16 51.237 175.348 43.208 174.263C27.124 172.088 9.79005 164.859 3.63184 144.775C-0.0471759 132.777 0.440829 122.861 3.1875 114.73C5.93814 106.588 10.9786 100.166 16.5127 95.2109C22.0485 90.2547 28.0549 86.7877 32.6865 84.5586C35 83.4451 36.9649 82.6434 38.3477 82.1211C39.0389 81.86 39.5847 81.6691 39.9551 81.5439C40.1399 81.4815 40.2811 81.4353 40.375 81.4053C40.422 81.3902 40.4577 81.3792 40.4805 81.3721C40.4916 81.3686 40.4997 81.3658 40.5049 81.3643C40.5075 81.3635 40.5097 81.3636 40.5107 81.3633L40.5117 81.3623L40.5107 81.3613L41.1582 81.166L41.2168 80.4922V80.4902C41.2169 80.4886 41.2175 80.4859 41.2178 80.4824C41.2184 80.475 41.2192 80.463 41.2207 80.4473C41.2237 80.4154 41.2288 80.3667 41.2354 80.3018C41.2486 80.1714 41.2697 79.975 41.2998 79.7178C41.36 79.2034 41.4573 78.4438 41.6045 77.4717C41.8991 75.5264 42.3928 72.7312 43.1914 69.3486C44.7894 62.5803 47.6009 53.4755 52.4512 44.1172C62.1431 25.4173 79.9459 5.74362 112.524 1.58887Z" fill="#F6EBD6" stroke="#D4C2A0" stroke-width="2"/>
</svg>
