<svg width="500" height="300" viewBox="0 0 500 300" fill="none" xmlns="http://www.w3.org/2000/svg">
<rect x="1" y="1" width="498" height="298" rx="19" fill="#F6CD8B" stroke="#B97532" stroke-width="2"/>
<mask id="mask0_115_313" style="mask-type:alpha" maskUnits="userSpaceOnUse" x="0" y="2" width="500" height="298">
<rect x="1" y="3.66284" width="498" height="295.337" rx="19" fill="#F6CD8B" stroke="#B97532" stroke-width="2"/>
</mask>
<g mask="url(#mask0_115_313)">
<g opacity="0.8">
<rect x="32.025" y="239.585" width="3.14363" height="68.725" fill="#CFCB62" stroke="#939154" stroke-width="2"/>
<path d="M45.8409 311.226C54.7136 305.794 63.8154 297.205 67.208 286.491C69.8865 278.032 71.425 268.584 71.8588 260.81C72.0757 256.921 72.0141 253.491 71.6941 250.836C71.534 249.508 71.3127 248.406 71.0444 247.552C70.7727 246.687 70.4778 246.156 70.207 245.869C70.0252 245.676 69.5923 245.47 68.747 245.488C67.9383 245.505 66.9065 245.722 65.6921 246.123C63.2682 246.925 60.2555 248.415 57.1109 250.248C50.8176 253.917 44.137 258.879 40.7929 262.195C34.0934 268.84 29.8808 281.707 27.8259 293.573C26.8031 299.48 26.3285 305.064 26.3371 309.389C26.3415 311.555 26.4666 313.369 26.6926 314.733C26.8055 315.414 26.9393 315.954 27.0818 316.357C27.2273 316.769 27.3591 316.972 27.4421 317.06C27.5188 317.142 27.7013 317.27 28.06 317.37C28.4085 317.467 28.8636 317.521 29.4254 317.516C30.5489 317.505 32.0074 317.261 33.7151 316.779C37.1249 315.816 41.4261 313.929 45.8409 311.226Z" fill="#CFCB62" stroke="#939154" stroke-width="2"/>
<path d="M21.3528 311.663C12.4801 306.23 3.37833 297.641 -0.0142858 286.927C-2.69277 278.469 -4.23132 269.021 -4.66507 261.246C-4.88203 257.357 -4.82044 253.927 -4.50039 251.272C-4.34029 249.944 -4.11905 248.843 -3.85073 247.988C-3.579 247.123 -3.28408 246.592 -3.01336 246.305C-2.83156 246.113 -2.39859 245.906 -1.5533 245.924C-0.744571 245.941 0.2872 246.158 1.50157 246.56C3.9255 247.361 6.93822 248.851 10.0828 250.684C16.3761 254.354 23.0567 259.315 26.4008 262.632C33.1002 269.277 37.3129 282.143 39.3678 294.009C40.3906 299.916 40.8652 305.5 40.8566 309.825C40.8522 311.991 40.7271 313.805 40.5011 315.169C40.3881 315.851 40.2543 316.39 40.1119 316.793C39.9664 317.205 39.8346 317.409 39.7516 317.497C39.6748 317.578 39.4923 317.707 39.1337 317.807C38.7851 317.904 38.3301 317.957 37.7682 317.952C36.6448 317.942 35.1862 317.698 33.4786 317.215C30.0688 316.252 25.7676 314.366 21.3528 311.663Z" fill="#CFCB62" stroke="#939154" stroke-width="2"/>
<path d="M49.546 204.721C50.6482 204.053 51.3942 203.952 51.8741 204.056C52.3263 204.154 52.7661 204.484 53.1563 205.216C53.9728 206.75 54.2854 209.542 54.0509 212.994C53.82 216.391 53.0739 220.24 51.9473 223.75C50.8151 227.279 49.3274 230.373 47.6671 232.328C40.2549 241.052 26.9386 241.052 19.5264 232.328C17.8661 230.373 16.3784 227.279 15.2462 223.75C14.1196 220.24 13.3735 216.391 13.1427 212.994C12.9081 209.542 13.2207 206.75 14.0372 205.216C14.4274 204.484 14.8672 204.154 15.3194 204.056C15.7993 203.952 16.5454 204.053 17.6475 204.721C19.5775 205.892 21.4019 208.284 22.7833 210.513C23.4611 211.607 24.0101 212.623 24.3887 213.366C24.5778 213.737 24.7241 214.038 24.8223 214.246C24.8714 214.349 24.9082 214.43 24.9327 214.483C24.9448 214.509 24.9542 214.53 24.96 214.542C24.963 214.549 24.9656 214.554 24.9669 214.557C24.9674 214.558 24.9676 214.56 24.9678 214.56L26.0645 217.023L26.8389 214.44C26.8392 214.439 26.8403 214.438 26.8409 214.436C26.8421 214.432 26.8432 214.426 26.8458 214.417C26.8511 214.4 26.8601 214.374 26.8712 214.338C26.8934 214.268 26.9268 214.161 26.9718 214.026C27.0617 213.755 27.1965 213.365 27.3721 212.897C27.7247 211.957 28.2391 210.712 28.8887 209.474C29.5429 208.228 30.31 207.037 31.1544 206.171C32.008 205.296 32.8261 204.866 33.5968 204.866C34.3674 204.866 35.1855 205.296 36.0391 206.171C36.8835 207.037 37.6515 208.228 38.3057 209.474C38.9553 210.712 39.4689 211.957 39.8214 212.897C39.997 213.365 40.1318 213.755 40.2218 214.026C40.2667 214.161 40.3001 214.268 40.3223 214.338C40.3334 214.374 40.3424 214.4 40.3477 214.417C40.3503 214.426 40.3514 214.432 40.3526 214.436C40.3532 214.438 40.3543 214.439 40.3546 214.44L41.129 217.023L42.2257 214.56L42.2276 214.557C42.2289 214.554 42.2306 214.549 42.2335 214.542C42.2393 214.53 42.2487 214.509 42.2608 214.483C42.2853 214.43 42.3221 214.349 42.3712 214.246C42.4695 214.038 42.6158 213.737 42.8048 213.366C43.1834 212.623 43.7324 211.607 44.4102 210.513C45.7916 208.284 47.6161 205.892 49.546 204.721Z" fill="#C66260" stroke="#BD5351" stroke-width="2"/>
</g>
</g>
</svg>
